<?xml version="1.0" encoding="utf-8"?>
<!-- Generator: Adobe Illustrator 21.1.0, SVG Export Plug-In . SVG Version: 6.00 Build 0)  -->
<svg version="1.1" id="图层_1" xmlns="http://www.w3.org/2000/svg" xmlns:xlink="http://www.w3.org/1999/xlink" x="0px" y="0px"
	 width="1201.359px" height="1014.101px" viewBox="0 0 1201.359 1014.101" style="enable-background:new 0 0 1201.359 1014.101;"
	 xml:space="preserve">
<image style="display:none;overflow:visible;" width="3038" height="1922" xlink:href="EC57D064FD0D6C24.png"  transform="matrix(0.5 0 0 0.5 1022 -0.8986)">
</image>
<path style="fill:#FEF8DE;stroke:#EFCF84;stroke-miterlimit:10;" d="M332.664,570.141l-25.527,39.822l-8,6l-26,15l-83,14l-30-137
	v-165h198v51h18c0,0,2-18,23-18c0,0,24,1,26,24h20v-64h-16v-66l10-8v-26h-46l-1-169h41v-15h129v14h20v37h21v95l37-1v66h96v-49h83v49
	l259-1l11,12v202h27v70h-69v29h-34v-9h-161v13h-55v-42h-41v42h-57v-12l-159,1v7l-34-1v-27h-73v-68h12v-68h-20c0,0,2,24-25,24
	c0,0-21,4-24-20h-19v117l-4.823,7.524"/>
<rect x="160.137" y="342.963" style="fill:#E6E4DA;stroke:#C7C5BC;stroke-miterlimit:10;" width="110" height="11"/>
<polygon style="fill:#E6E4DA;stroke:#C7C5BC;stroke-miterlimit:10;" points="295.637,342.463 295.637,353.463 299.637,353.463 
	299.637,380.463 327.637,380.463 327.637,361.463 357.637,361.463 357.637,353.463 357.637,347.463 357.637,342.463 "/>
<polygon style="fill:#E6E4DA;stroke:#C7C5BC;stroke-miterlimit:10;" points="180.637,603.463 213.637,603.463 213.637,614.463 
	301.637,614.463 272.637,632.463 189.637,645.463 "/>
<rect x="392.637" y="103.463" style="fill:#E6E4DA;stroke:#C7C5BC;stroke-miterlimit:10;" width="84" height="10"/>
<rect x="518.637" y="103.463" style="fill:#E6E4DA;stroke:#C7C5BC;stroke-miterlimit:10;" width="84" height="10"/>
<rect x="463.637" y="285.463" style="fill:#E7E3D9;stroke:#EFCF84;stroke-miterlimit:10;" width="13" height="15"/>
<rect x="463.637" y="321.463" style="fill:#E7E3D9;stroke:#EFCF84;stroke-miterlimit:10;" width="7" height="13"/>
<path style="fill:#E6E4DA;stroke:#C7C5BC;stroke-miterlimit:10;" d="M502.637,262.463c1,0,39,0,39,0l-6,14h-7v10h-12l-14-14V262.463
	z"/>
<polygon style="fill:#E6E4DA;stroke:#C7C5BC;stroke-miterlimit:10;" points="581.637,263.463 599.637,263.463 594.637,276.463 
	587.637,276.463 "/>
<polygon style="fill:#E6E4DA;stroke:#C7C5BC;stroke-miterlimit:10;" points="639.637,263.463 657.637,263.463 652.637,276.463 
	645.637,276.463 "/>
<polygon style="fill:#E6E4DA;stroke:#C7C5BC;stroke-miterlimit:10;" points="657.637,323.463 639.637,323.463 644.637,306.463 
	651.637,306.463 "/>
<polygon style="fill:#E6E4DA;stroke:#C7C5BC;stroke-miterlimit:10;" points="600.637,323.463 582.637,323.463 587.637,306.463 
	594.637,306.463 "/>
<polygon style="fill:#E6E4DA;stroke:#C7C5BC;stroke-miterlimit:10;" points="697.637,263.463 703.637,276.463 710.637,276.463 
	711.637,273.863 711.637,263.463 "/>
<polygon style="fill:#E6E4DA;stroke:#C7C5BC;stroke-miterlimit:10;" points="709.637,306.463 702.637,306.463 697.637,323.463 
	711.637,323.463 711.637,312.129 "/>
<polygon style="fill:#E6E4DA;stroke:#C7C5BC;stroke-miterlimit:10;" points="482.637,316.463 482.637,334.463 508.637,334.463 
	508.637,398.463 523.637,398.463 523.637,380.463 595.637,380.463 595.637,323.463 541.637,323.463 536.637,306.463 
	528.637,306.463 528.637,298.463 515.637,298.463 504.637,311.463 487.637,311.463 "/>
<g>
	<polygon style="fill:#E6E4DA;stroke:#C7C5BC;stroke-miterlimit:10;" points="595.637,380.463 611.637,380.463 595.637,396.463 	"/>
	<polygon style="fill:#E6E4DA;stroke:#C7C5BC;stroke-miterlimit:10;" points="645.637,380.463 645.637,396.463 629.637,380.463 	"/>
</g>
<g>
	<polygon style="fill:#E6E4DA;stroke:#C7C5BC;stroke-miterlimit:10;" points="645.637,430.463 629.637,430.463 645.637,414.463 	"/>
	<polygon style="fill:#E6E4DA;stroke:#C7C5BC;stroke-miterlimit:10;" points="595.637,430.463 595.637,414.463 611.637,430.463 	"/>
</g>
<polygon style="fill:#E6E4DA;stroke:#C7C5BC;stroke-miterlimit:10;" points="909.637,324.463 811.637,324.463 811.637,381.463 
	898.637,381.463 909.637,370.463 "/>
<polygon style="fill:#E6E4DA;stroke:#C7C5BC;stroke-miterlimit:10;" points="595.637,430.463 523.637,430.463 523.637,411.463 
	507.637,411.463 507.637,478.463 519.637,478.463 519.637,521.463 540.637,521.463 540.637,488.463 595.637,488.463 "/>
<polygon style="fill:#FFEADD;stroke:#EFCF84;stroke-miterlimit:10;" points="841.637,324.463 645.637,324.463 645.637,344.463 
	645.637,352.463 645.637,380.463 743.637,380.463 743.637,352.463 841.637,352.463 "/>
<polygon style="fill:#E6E4DA;stroke:#C7C5BC;stroke-miterlimit:10;" points="958.637,324.463 958.637,370.463 969.637,381.463 
	1024.637,381.463 1024.637,324.463 "/>
<polygon style="fill:#E6E4DA;stroke:#C7C5BC;stroke-miterlimit:10;" points="1024.637,262.463 1024.637,272.463 1035.637,262.463 
	"/>
<polygon style="fill:#E6E4DA;stroke:#C7C5BC;stroke-miterlimit:10;" points="1024.637,323.713 1034.637,323.713 1024.637,312.713 
	"/>
<polygon style="fill:#E6E4DA;stroke:#C7C5BC;stroke-miterlimit:10;" points="1087.637,323.213 1087.637,313.213 1076.637,323.213 
	"/>
<polygon style="fill:#E6E4DA;stroke:#C7C5BC;stroke-miterlimit:10;" points="1024.637,476.463 1024.637,430.463 969.637,430.463 
	958.637,441.463 958.637,487.463 1024.637,487.463 1032.637,487.463 1032.637,476.463 "/>
<rect x="831.637" y="520.463" style="fill:#E6E4DA;stroke:#C7C5BC;stroke-miterlimit:10;" width="21" height="16"/>
<rect x="699.637" y="488.463" style="fill:#E6E4DA;stroke:#C7C5BC;stroke-miterlimit:10;" width="19" height="17"/>
<rect x="700.637" y="519.463" style="fill:#E6E4DA;stroke:#C7C5BC;stroke-miterlimit:10;" width="19" height="17"/>
<rect x="645.637" y="430.463" style="fill:#FFEADD;stroke:#EFCF84;stroke-miterlimit:10;" width="97" height="57"/>
<rect x="735.637" y="414.463" style="fill:#E6E4DA;stroke:#C7C5BC;stroke-miterlimit:10;" width="7" height="16"/>
<rect x="700.637" y="537.463" style="fill:#FFEADD;stroke:#EFCF84;stroke-miterlimit:10;" width="56" height="41"/>
<polygon style="fill:#FEF8DE;stroke:#EFCF84;stroke-miterlimit:10;" points="815.137,667.963 815.137,652.963 855.137,652.963 
	855.137,612.963 797.137,612.963 797.137,595.963 756.137,595.963 756.137,612.963 700.137,612.963 700.137,652.963 
	739.137,652.963 739.137,667.963 676.137,667.963 676.137,700.963 879.137,700.963 879.137,667.963 "/>
<polygon style="fill:#E6E4DA;stroke:#C7C5BC;stroke-miterlimit:10;" points="773.137,650.963 750.137,650.963 750.137,651.963 
	750.137,654.963 750.137,667.963 758.137,667.963 758.137,654.963 773.137,654.963 "/>
<polygon style="fill:#E6E4DA;stroke:#C7C5BC;stroke-miterlimit:10;" points="781.137,650.963 804.137,650.963 804.137,651.963 
	804.137,654.963 804.137,667.963 796.137,667.963 796.137,654.963 781.137,654.963 "/>
<polygon style="fill:#FEF8DE;stroke:#EFCF84;stroke-miterlimit:10;" points="160.137,661.963 357.137,661.963 357.137,830.963 
	306.137,910.963 272.221,931.484 191.137,945.963 159.137,807.963 "/>
<polygon style="fill:#E6E4DA;stroke:#C7C5BC;stroke-miterlimit:10;" points="260.137,662.963 260.137,676.963 297.137,676.963 
	297.137,693.963 304.137,693.963 315.137,684.963 315.137,676.963 315.137,672.963 315.137,662.963 "/>
<rect x="160.137" y="661.963" style="fill:#FEF8DE;stroke:#EFCF84;stroke-miterlimit:10;" width="103" height="60"/>
<g>
	<path style="fill:#E6E4DA;stroke:#C7C5BC;stroke-miterlimit:10;" d="M275.137,782.963h14v-14h-5v-11h-28v-6h-23c0,0-1,13-16,13v154
		l-32,4l5,23l37-6.222v-96.778h48V782.963z"/>
	<polygon style="fill:#E6E4DA;stroke:#C7C5BC;stroke-miterlimit:10;" points="314.887,861.963 302.887,858.963 261.887,884.963 
		250.887,909.963 271.887,931.963 305.887,910.963 338.155,860.739 	"/>
</g>
<polygon style="fill:#FFEADD;stroke:#EFCF84;stroke-miterlimit:10;" points="289.137,768.963 305.137,768.963 305.137,804.963 
	328.137,804.963 328.304,860.379 318.137,860.963 292.137,887.963 278.137,898.963 267.137,902.963 271.178,932.128 227.137,939.74 
	227.137,842.963 275.137,842.963 275.137,782.963 289.137,782.963 "/>
<line style="fill:#FEFAEC;stroke:#EFCF84;stroke-miterlimit:10;" x1="211.137" y1="353.963" x2="211.137" y2="377.963"/>
<line style="fill:#FEFAEC;stroke:#EFCF84;stroke-miterlimit:10;" x1="211.137" y1="406.463" x2="211.137" y2="470.463"/>
<line style="fill:#FEFAEC;stroke:#EFCF84;stroke-miterlimit:10;" x1="263.137" y1="412.463" x2="263.137" y2="470.463"/>
<line style="fill:#FEFAEC;stroke:#EFCF84;stroke-miterlimit:10;" x1="263.137" y1="354.463" x2="263.137" y2="384.463"/>
<line style="fill:#FEFAEC;stroke:#EFCF84;stroke-miterlimit:10;" x1="288.637" y1="353.963" x2="272.637" y2="353.963"/>
<line style="fill:#FEFAEC;stroke:#EFCF84;stroke-miterlimit:10;" x1="211.137" y1="487.463" x2="211.137" y2="555.463"/>
<line style="fill:#FEFAEC;stroke:#EFCF84;stroke-miterlimit:10;" x1="212.137" y1="568.463" x2="212.137" y2="603.463"/>
<line style="fill:#FEFAEC;stroke:#EFCF84;stroke-miterlimit:10;" x1="263.137" y1="487.463" x2="263.137" y2="555.463"/>
<line style="fill:#FEFAEC;stroke:#EFCF84;stroke-miterlimit:10;" x1="326.137" y1="424.463" x2="326.137" y2="579.463"/>
<line style="fill:#FEFAEC;stroke:#EFCF84;stroke-miterlimit:10;" x1="263.137" y1="568.463" x2="263.137" y2="614.463"/>
<line style="fill:none;stroke:#EFCF84;stroke-miterlimit:10;" x1="160.137" y1="413.963" x2="188.137" y2="413.963"/>
<line style="fill:none;stroke:#EFCF84;stroke-miterlimit:10;" x1="201.137" y1="413.963" x2="211.637" y2="413.963"/>
<line style="fill:none;stroke:#EFCF84;stroke-miterlimit:10;" x1="211.637" y1="424.963" x2="225.637" y2="424.963"/>
<line style="fill:none;stroke:#EFCF84;stroke-miterlimit:10;" x1="249.637" y1="424.963" x2="274.137" y2="424.963"/>
<line style="fill:none;stroke:#EFCF84;stroke-miterlimit:10;" x1="386.637" y1="393.963" x2="409.137" y2="393.963"/>
<line style="fill:none;stroke:#EFCF84;stroke-miterlimit:10;" x1="386.637" y1="417.963" x2="409.137" y2="417.963"/>
<line style="fill:none;stroke:#EFCF84;stroke-miterlimit:10;" x1="443.637" y1="478.963" x2="470.137" y2="478.963"/>
<line style="fill:none;stroke:#EFCF84;stroke-miterlimit:10;" x1="479.637" y1="478.963" x2="508.637" y2="478.963"/>
<line style="fill:none;stroke:#EFCF84;stroke-miterlimit:10;" x1="594.137" y1="567.963" x2="594.137" y2="534.463"/>
<line style="fill:none;stroke:#EFCF84;stroke-miterlimit:10;" x1="643.137" y1="567.963" x2="643.137" y2="534.463"/>
<line style="fill:none;stroke:#EFCF84;stroke-miterlimit:10;" x1="646.137" y1="519.963" x2="646.137" y2="486.463"/>
<line style="fill:none;stroke:#EFCF84;stroke-miterlimit:10;" x1="595.137" y1="521.963" x2="595.137" y2="488.463"/>
<line style="fill:none;stroke:#EFCF84;stroke-miterlimit:10;" x1="595.387" y1="488.213" x2="613.137" y2="488.213"/>
<line style="fill:none;stroke:#EFCF84;stroke-miterlimit:10;" x1="624.137" y1="488.213" x2="646.137" y2="488.213"/>
<line style="fill:none;stroke:#EFCF84;stroke-miterlimit:10;" x1="538.137" y1="535.463" x2="538.137" y2="571.963"/>
<line style="fill:none;stroke:#EFCF84;stroke-miterlimit:10;" x1="263.137" y1="457.963" x2="274.137" y2="457.963"/>
<line style="fill:none;stroke:#EFCF84;stroke-miterlimit:10;" x1="189.137" y1="459.963" x2="210.637" y2="459.963"/>
<line style="fill:none;stroke:#EFCF84;stroke-miterlimit:10;" x1="160.137" y1="459.963" x2="177.137" y2="459.963"/>
<line style="fill:none;stroke:#EFCF84;stroke-miterlimit:10;" x1="161.637" y1="514.963" x2="188.137" y2="514.963"/>
<line style="fill:none;stroke:#EFCF84;stroke-miterlimit:10;" x1="201.137" y1="514.963" x2="211.137" y2="514.963"/>
<line style="fill:none;stroke:#EFCF84;stroke-miterlimit:10;" x1="211.637" y1="499.963" x2="225.137" y2="499.963"/>
<line style="fill:none;stroke:#EFCF84;stroke-miterlimit:10;" x1="249.637" y1="499.963" x2="305.137" y2="499.963"/>
<line style="fill:none;stroke:#EFCF84;stroke-miterlimit:10;" x1="249.637" y1="540.963" x2="295.137" y2="540.963"/>
<line style="fill:none;stroke:#EFCF84;stroke-miterlimit:10;" x1="307.637" y1="540.963" x2="326.137" y2="540.963"/>
<line style="fill:none;stroke:#EFCF84;stroke-miterlimit:10;" x1="285.637" y1="582.963" x2="324.137" y2="582.963"/>
<line style="fill:none;stroke:#EFCF84;stroke-miterlimit:10;" x1="262.637" y1="582.963" x2="273.137" y2="582.963"/>
<line style="fill:none;stroke:#EFCF84;stroke-miterlimit:10;" x1="201.637" y1="575.963" x2="212.137" y2="575.963"/>
<line style="fill:none;stroke:#EFCF84;stroke-miterlimit:10;" x1="174.637" y1="575.963" x2="188.137" y2="575.963"/>
<line style="fill:none;stroke:#EFCF84;stroke-miterlimit:10;" x1="201.637" y1="540.963" x2="225.137" y2="540.963"/>
<line style="fill:none;stroke:#EFCF84;stroke-miterlimit:10;" x1="167.637" y1="540.963" x2="177.137" y2="540.963"/>
<line style="fill:none;stroke:#EFCF84;stroke-miterlimit:10;" x1="318.137" y1="499.963" x2="326.137" y2="499.963"/>
<line style="fill:none;stroke:#EFCF84;stroke-miterlimit:10;" x1="287.137" y1="457.963" x2="325.637" y2="457.963"/>
<polyline style="fill:none;stroke:#EFCF84;stroke-miterlimit:10;" points="287.137,424.963 326.137,424.963 357.137,424.963 "/>
<line style="fill:#FEF8DE;stroke:#EFCF84;stroke-miterlimit:10;" x1="392" y1="155.601" x2="405" y2="155.601"/>
<line style="fill:#FEF8DE;stroke:#EFCF84;stroke-miterlimit:10;" x1="473" y1="155.601" x2="417" y2="155.601"/>
<line style="fill:#FEF8DE;stroke:#EFCF84;stroke-miterlimit:10;" x1="392" y1="196.601" x2="405" y2="196.601"/>
<line style="fill:#FEF8DE;stroke:#EFCF84;stroke-miterlimit:10;" x1="417" y1="196.601" x2="472" y2="196.601"/>
<line style="fill:#FEF8DE;stroke:#EFCF84;stroke-miterlimit:10;" x1="472.5" y1="140.101" x2="472.5" y2="211.101"/>
<line style="fill:#FEF8DE;stroke:#EFCF84;stroke-miterlimit:10;" x1="472.5" y1="223.101" x2="472.5" y2="236.101"/>
<line style="fill:#FEF8DE;stroke:#EFCF84;stroke-miterlimit:10;" x1="438" y1="235.601" x2="489" y2="235.601"/>
<line style="fill:#FEF8DE;stroke:#EFCF84;stroke-miterlimit:10;" x1="500" y1="236.601" x2="613" y2="236.601"/>
<line style="fill:#FEF8DE;stroke:#EFCF84;stroke-miterlimit:10;" x1="515.5" y1="223.101" x2="515.5" y2="241.101"/>
<line style="fill:#FEF8DE;stroke:#EFCF84;stroke-miterlimit:10;" x1="621" y1="236.601" x2="639" y2="236.601"/>
<polyline style="fill:#FEF8DE;stroke:#EFCF84;stroke-miterlimit:10;" points="515.5,140.101 515.5,196.962 515.5,211.101 "/>
<line style="fill:#FEF8DE;stroke:#EFCF84;stroke-miterlimit:10;" x1="572" y1="196.601" x2="515" y2="196.601"/>
<line style="fill:#FEF8DE;stroke:#EFCF84;stroke-miterlimit:10;" x1="586" y1="196.601" x2="602" y2="196.601"/>
<line style="fill:#FEF8DE;stroke:#EFCF84;stroke-miterlimit:10;" x1="515" y1="155.601" x2="573" y2="155.601"/>
<line style="fill:#FEF8DE;stroke:#EFCF84;stroke-miterlimit:10;" x1="586" y1="155.601" x2="602" y2="155.601"/>
<line style="fill:#FEF8DE;stroke:#EFCF84;stroke-miterlimit:10;" x1="476.5" y1="113.101" x2="476.5" y2="128.101"/>
<line style="fill:#FEF8DE;stroke:#EFCF84;stroke-miterlimit:10;" x1="518.5" y1="113.101" x2="518.5" y2="127.101"/>
<line style="fill:#FEF8DE;stroke:#EFCF84;stroke-miterlimit:10;" x1="432.5" y1="67.101" x2="432.5" y2="91.101"/>
<line style="fill:#FEF8DE;stroke:#EFCF84;stroke-miterlimit:10;" x1="445" y1="88.601" x2="526" y2="88.601"/>
<line style="fill:#FEF8DE;stroke:#EFCF84;stroke-miterlimit:10;" x1="476.5" y1="52.101" x2="476.5" y2="89.101"/>
<polyline style="fill:none;stroke:#EFCF84;stroke-miterlimit:10;" points="516.5,89.101 516.5,67.601 546.5,67.601 546.5,73.601 
	561,73.601 "/>
<line style="fill:none;stroke:#EFCF84;stroke-miterlimit:10;" x1="552" y1="94.601" x2="581" y2="94.601"/>
<line style="fill:none;stroke:#EFCF84;stroke-miterlimit:10;" x1="476" y1="103.601" x2="490" y2="103.601"/>
<line style="fill:none;stroke:#EFCF84;stroke-miterlimit:10;" x1="503" y1="103.601" x2="518" y2="103.601"/>
<line style="fill:none;stroke:#EFCF84;stroke-miterlimit:10;" x1="485" y1="113.601" x2="508" y2="113.601"/>
<polyline style="fill:none;stroke:#EFCF84;stroke-miterlimit:10;" points="459.5,236.101 459.5,262.601 488.5,262.601 
	488.5,271.463 484.25,275.532 "/>
<line style="fill:none;stroke:#EFCF84;stroke-miterlimit:10;" x1="462.5" y1="275.101" x2="462.5" y2="308.101"/>
<line style="fill:none;stroke:#EFCF84;stroke-miterlimit:10;" x1="451" y1="292.601" x2="461" y2="292.601"/>
<line style="fill:none;stroke:#EFCF84;stroke-miterlimit:10;" x1="438" y1="292.601" x2="428" y2="292.601"/>
<line style="fill:none;stroke:#EFCF84;stroke-miterlimit:10;" x1="602.5" y1="198.101" x2="602.5" y2="211.101"/>
<line style="fill:none;stroke:#EFCF84;stroke-miterlimit:10;" x1="602.5" y1="223.101" x2="602.5" y2="245.101"/>
<line style="fill:none;stroke:#EFCF84;stroke-miterlimit:10;" x1="601.5" y1="255.101" x2="601.5" y2="262.101"/>
<line style="fill:none;stroke:#EFCF84;stroke-miterlimit:10;" x1="541" y1="262.601" x2="614" y2="262.601"/>
<line style="fill:none;stroke:#EFCF84;stroke-miterlimit:10;" x1="624" y1="262.601" x2="641" y2="262.601"/>
<line style="fill:none;stroke:#EFCF84;stroke-miterlimit:10;" x1="559.5" y1="237.101" x2="559.5" y2="245.101"/>
<line style="fill:none;stroke:#EFCF84;stroke-miterlimit:10;" x1="559.5" y1="255.101" x2="559.5" y2="262.101"/>
<line style="fill:none;stroke:#EFCF84;stroke-miterlimit:10;" x1="735" y1="262.601" x2="771" y2="262.601"/>
<line style="fill:none;stroke:#EFCF84;stroke-miterlimit:10;" x1="782" y1="262.601" x2="820" y2="262.601"/>
<line style="fill:none;stroke:#EFCF84;stroke-miterlimit:10;" x1="840.5" y1="263.101" x2="840.5" y2="288.101"/>
<line style="fill:none;stroke:#EFCF84;stroke-miterlimit:10;" x1="840.5" y1="298.101" x2="840.5" y2="323.101"/>
<line style="fill:none;stroke:#EFCF84;stroke-miterlimit:10;" x1="710.5" y1="273.101" x2="710.5" y2="288.101"/>
<line style="fill:none;stroke:#EFCF84;stroke-miterlimit:10;" x1="710.5" y1="298.101" x2="710.5" y2="312.101"/>
<line style="fill:none;stroke:#EFCF84;stroke-miterlimit:10;" x1="600" y1="323.601" x2="614" y2="323.601"/>
<line style="fill:none;stroke:#EFCF84;stroke-miterlimit:10;" x1="624" y1="323.601" x2="639" y2="323.601"/>
<line style="fill:none;stroke:#EFCF84;stroke-miterlimit:10;" x1="710.5" y1="380.101" x2="710.5" y2="399.101"/>
<line style="fill:none;stroke:#EFCF84;stroke-miterlimit:10;" x1="742.5" y1="380.101" x2="742.5" y2="399.101"/>
<line style="fill:none;stroke:#EFCF84;stroke-miterlimit:10;" x1="742" y1="454.601" x2="759" y2="454.601"/>
<line style="fill:none;stroke:#EFCF84;stroke-miterlimit:10;" x1="794" y1="454.601" x2="811" y2="454.601"/>
<line style="fill:none;stroke:#EFCF84;stroke-miterlimit:10;" x1="811.5" y1="381.101" x2="811.5" y2="400.101"/>
<line style="fill:none;stroke:#EFCF84;stroke-miterlimit:10;" x1="810.5" y1="411.101" x2="810.5" y2="465.101"/>
<line style="fill:none;stroke:#EFCF84;stroke-miterlimit:10;" x1="810.5" y1="477.101" x2="810.5" y2="487.101"/>
<line style="fill:none;stroke:#EFCF84;stroke-miterlimit:10;" x1="742" y1="487.601" x2="816" y2="487.601"/>
<polyline style="fill:none;stroke:#EFCF84;stroke-miterlimit:10;" points="757.5,488.101 757.5,503.601 742,503.601 "/>
<polyline style="fill:none;stroke:#EFCF84;stroke-miterlimit:10;" points="742,521.601 756.5,521.601 756.5,537.101 "/>
<polyline style="fill:none;stroke:#EFCF84;stroke-miterlimit:10;" points="796.5,488.101 796.5,503.601 812,503.601 "/>
<polyline style="fill:none;stroke:#EFCF84;stroke-miterlimit:10;" points="796.5,537.101 796.5,522.601 812,522.601 "/>
<line style="fill:none;stroke:#EFCF84;stroke-miterlimit:10;" x1="795" y1="536.601" x2="815" y2="536.601"/>
<line style="fill:none;stroke:#EFCF84;stroke-miterlimit:10;" x1="824" y1="536.601" x2="831" y2="536.601"/>
<line style="fill:none;stroke:#EFCF84;stroke-miterlimit:10;" x1="851.5" y1="536.101" x2="851.5" y2="544.101"/>
<line style="fill:none;stroke:#EFCF84;stroke-miterlimit:10;" x1="851.5" y1="554.101" x2="851.5" y2="566.101"/>
<line style="fill:none;stroke:#EFCF84;stroke-miterlimit:10;" x1="840.5" y1="381.101" x2="840.5" y2="399.101"/>
<line style="fill:none;stroke:#EFCF84;stroke-miterlimit:10;" x1="840.5" y1="411.101" x2="840.5" y2="430.101"/>
<polyline style="fill:none;stroke:#EFCF84;stroke-miterlimit:10;" points="811,430.601 898.637,430.601 907.5,440.296 
	907.5,519.101 "/>
<line style="fill:none;stroke:#EFCF84;stroke-miterlimit:10;" x1="907.5" y1="535.101" x2="907.5" y2="566.101"/>
<path style="fill:none;stroke:#EFCF84;stroke-miterlimit:10;" d="M882,446.601h-51.5v26h4.137c0,0,0.015-8.486,8.681-8.153
	c8.667,0.333,8.182,8.514,8.182,8.514v16.639H927"/>
<polyline style="fill:none;stroke:#EFCF84;stroke-miterlimit:10;" points="939,487.601 958.5,487.601 958.5,519.101 "/>
<line style="fill:none;stroke:#EFCF84;stroke-miterlimit:10;" x1="958.5" y1="535.101" x2="958.5" y2="565.101"/>
<line style="fill:none;stroke:#EFCF84;stroke-miterlimit:10;" x1="1013.5" y1="488.101" x2="1013.5" y2="520.101"/>
<line style="fill:none;stroke:#EFCF84;stroke-miterlimit:10;" x1="1031.5" y1="487.101" x2="1031.5" y2="520.101"/>
<line style="fill:none;stroke:#EFCF84;stroke-miterlimit:10;" x1="1013.5" y1="533.101" x2="1013.5" y2="575.101"/>
<line style="fill:none;stroke:#EFCF84;stroke-miterlimit:10;" x1="1033.5" y1="533.101" x2="1033.5" y2="545.101"/>
<line style="fill:none;stroke:#EFCF84;stroke-miterlimit:10;" x1="1023" y1="546.601" x2="1037" y2="546.601"/>
<line style="fill:none;stroke:#EFCF84;stroke-miterlimit:10;" x1="1032" y1="476.601" x2="1050" y2="476.601"/>
<line style="fill:none;stroke:#EFCF84;stroke-miterlimit:10;" x1="1062" y1="475.601" x2="1090" y2="475.601"/>
<line style="fill:none;stroke:#EFCF84;stroke-miterlimit:10;" x1="1023.5" y1="381.101" x2="1023.5" y2="400.101"/>
<line style="fill:none;stroke:#EFCF84;stroke-miterlimit:10;" x1="1023.5" y1="411.101" x2="1023.5" y2="430.101"/>
<line style="fill:none;stroke:#EFCF84;stroke-miterlimit:10;" x1="897.5" y1="381.101" x2="897.5" y2="387.101"/>
<path style="fill:none;stroke:#EFCF84;stroke-miterlimit:10;" d="M898.137,423.129c0.5,0.5,0,7.833,0,7.833"/>
<line style="fill:none;stroke:#EFCF84;stroke-miterlimit:10;" x1="907" y1="439.601" x2="916" y2="439.601"/>
<path style="fill:none;stroke:#EFCF84;stroke-miterlimit:10;" d="M949.387,439.963c0.083-0.167,9.25,0,9.25,0"/>
<line style="fill:none;stroke:#EFCF84;stroke-miterlimit:10;" x1="967.5" y1="423.101" x2="967.5" y2="430.101"/>
<line style="fill:none;stroke:#EFCF84;stroke-miterlimit:10;" x1="968.5" y1="388.101" x2="968.5" y2="381.101"/>
<line style="fill:none;stroke:#EFCF84;stroke-miterlimit:10;" x1="957" y1="370.601" x2="950" y2="370.601"/>
<line style="fill:none;stroke:#EFCF84;stroke-miterlimit:10;" x1="909" y1="370.601" x2="916" y2="370.601"/>
<circle style="fill:none;stroke:#EFCF84;stroke-miterlimit:10;" cx="933.804" cy="406.629" r="30"/>
<line style="fill:none;stroke:#EFCF84;stroke-miterlimit:10;" x1="909" y1="324.601" x2="917" y2="324.601"/>
<line style="fill:none;stroke:#EFCF84;stroke-miterlimit:10;" x1="950" y1="323.601" x2="958" y2="323.601"/>
<line style="fill:none;stroke:#EFCF84;stroke-miterlimit:10;" x1="1023.5" y1="272.101" x2="1023.5" y2="288.101"/>
<line style="fill:none;stroke:#EFCF84;stroke-miterlimit:10;" x1="1023.5" y1="300.101" x2="1023.5" y2="312.101"/>
<line style="fill:none;stroke:#EFCF84;stroke-miterlimit:10;" x1="1035" y1="323.601" x2="1048" y2="323.601"/>
<line style="fill:none;stroke:#EFCF84;stroke-miterlimit:10;" x1="1065" y1="323.601" x2="1078" y2="323.601"/>
<polyline style="fill:none;stroke:#EFCF84;stroke-miterlimit:10;" points="518.5,534.101 518.5,545.601 530,545.601 "/>
<path style="fill:none;stroke:#EFCF84;stroke-miterlimit:10;" d="M159,740.601h98.637c0,0,28.931-1.5,44.931,12.25"/>
<polyline style="fill:none;stroke:#EFCF84;stroke-miterlimit:10;" points="262.5,722.101 262.5,728.601 303.5,728.601 
	303.5,736.101 "/>
<line style="fill:none;stroke:#EFCF84;stroke-miterlimit:10;" x1="217.5" y1="722.101" x2="217.5" y2="741.101"/>
<line style="fill:none;stroke:#EFCF84;stroke-miterlimit:10;" x1="159" y1="765.601" x2="193" y2="765.601"/>
<line style="fill:none;stroke:#EFCF84;stroke-miterlimit:10;" x1="202.5" y1="766.101" x2="202.5" y2="806.101"/>
<line style="fill:none;stroke:#EFCF84;stroke-miterlimit:10;" x1="202.5" y1="816.101" x2="202.5" y2="841.101"/>
<line style="fill:none;stroke:#EFCF84;stroke-miterlimit:10;" x1="202.5" y1="852.101" x2="202.5" y2="884.101"/>
<line style="fill:none;stroke:#EFCF84;stroke-miterlimit:10;" x1="176" y1="884.601" x2="208" y2="884.601"/>
<line style="fill:none;stroke:#EFCF84;stroke-miterlimit:10;" x1="164" y1="831.601" x2="175" y2="831.601"/>
<line style="fill:none;stroke:#EFCF84;stroke-miterlimit:10;" x1="184" y1="831.601" x2="202" y2="831.601"/>
<line style="fill:none;stroke:#EFCF84;stroke-miterlimit:10;" x1="314.5" y1="805.101" x2="314.5" y2="843.101"/>
<polyline style="fill:none;stroke:#EFCF84;stroke-miterlimit:10;" points="356,726.601 326.5,726.601 326.5,766.101 "/>
<line style="fill:none;stroke:#EFCF84;stroke-miterlimit:10;" x1="327.5" y1="788.101" x2="327.5" y2="806.101"/>
<path style="fill:none;stroke:#EFCF84;stroke-miterlimit:10;" d="M304.887,700.963c0,0,5.5-10.5,17.75-11.5"/>
<line style="fill:#FEF8DE;stroke:#EFCF84;stroke-miterlimit:10;" x1="561.5" y1="66.101" x2="561.5" y2="82.101"/>
<line style="fill:#FEF8DE;stroke:#EFCF84;stroke-miterlimit:10;" x1="546" y1="68.601" x2="561" y2="68.601"/>
<line style="fill:#FEF8DE;stroke:#EFCF84;stroke-miterlimit:10;" x1="546" y1="71.601" x2="561" y2="71.601"/>
<line style="fill:#FEF8DE;stroke:#EFCF84;stroke-miterlimit:10;" x1="545.5" y1="52.101" x2="545.5" y2="68.101"/>
<line style="fill:#FEF8DE;stroke:#EFCF84;stroke-miterlimit:10;" x1="542.5" y1="52.101" x2="542.5" y2="68.101"/>
<line style="fill:#FEF8DE;stroke:#EFCF84;stroke-miterlimit:10;" x1="538.5" y1="52.101" x2="538.5" y2="68.101"/>
<line style="fill:#FEF8DE;stroke:#EFCF84;stroke-miterlimit:10;" x1="533.5" y1="52.101" x2="533.5" y2="68.101"/>
<line style="fill:#FEF8DE;stroke:#EFCF84;stroke-miterlimit:10;" x1="552.5" y1="95.101" x2="552.5" y2="103.101"/>
<line style="fill:#FEF8DE;stroke:#EFCF84;stroke-miterlimit:10;" x1="556.5" y1="95.101" x2="556.5" y2="103.101"/>
<line style="fill:#FEF8DE;stroke:#EFCF84;stroke-miterlimit:10;" x1="561.5" y1="95.101" x2="561.5" y2="103.101"/>
<path style="fill:none;stroke:#EFCF84;stroke-miterlimit:10;" d="M470.5,245.601v7h17.998c0,0,5-4,0-7H470.5z"/>
<line style="fill:none;stroke:#EFCF84;stroke-miterlimit:10;" x1="487.5" y1="236.101" x2="487.5" y2="246.101"/>
<line style="fill:none;stroke:#EFCF84;stroke-miterlimit:10;" x1="483.5" y1="236.101" x2="483.5" y2="246.101"/>
<line style="fill:none;stroke:#EFCF84;stroke-miterlimit:10;" x1="480.5" y1="236.101" x2="480.5" y2="246.101"/>
<line style="fill:none;stroke:#EFCF84;stroke-miterlimit:10;" x1="476.5" y1="236.101" x2="476.5" y2="246.101"/>
<line style="fill:none;stroke:#EFCF84;stroke-miterlimit:10;" x1="487.5" y1="253.101" x2="487.5" y2="263.101"/>
<line style="fill:none;stroke:#EFCF84;stroke-miterlimit:10;" x1="483.5" y1="253.101" x2="483.5" y2="263.101"/>
<line style="fill:none;stroke:#EFCF84;stroke-miterlimit:10;" x1="480.5" y1="253.101" x2="480.5" y2="263.101"/>
<line style="fill:none;stroke:#EFCF84;stroke-miterlimit:10;" x1="476.5" y1="253.101" x2="476.5" y2="263.101"/>
<line style="fill:none;stroke:#EFCF84;stroke-miterlimit:10;" x1="326" y1="428.601" x2="357" y2="428.601"/>
<line style="fill:none;stroke:#EFCF84;stroke-miterlimit:10;" x1="326" y1="432.601" x2="357" y2="432.601"/>
<line style="fill:none;stroke:#EFCF84;stroke-miterlimit:10;" x1="326" y1="437.601" x2="357" y2="437.601"/>
<line style="fill:none;stroke:#EFCF84;stroke-miterlimit:10;" x1="326" y1="441.601" x2="357" y2="441.601"/>
<line style="fill:none;stroke:#EFCF84;stroke-miterlimit:10;" x1="326" y1="446.601" x2="357" y2="446.601"/>
<line style="fill:none;stroke:#EFCF84;stroke-miterlimit:10;" x1="326" y1="450.601" x2="357" y2="450.601"/>
<line style="fill:none;stroke:#EFCF84;stroke-miterlimit:10;" x1="326" y1="455.601" x2="357" y2="455.601"/>
<line style="fill:none;stroke:#EFCF84;stroke-miterlimit:10;" x1="326" y1="459.601" x2="357" y2="459.601"/>
<line style="fill:none;stroke:#EFCF84;stroke-miterlimit:10;" x1="326" y1="732.601" x2="357" y2="732.601"/>
<line style="fill:none;stroke:#EFCF84;stroke-miterlimit:10;" x1="326" y1="736.601" x2="357" y2="736.601"/>
<line style="fill:none;stroke:#EFCF84;stroke-miterlimit:10;" x1="326" y1="740.601" x2="357" y2="740.601"/>
<line style="fill:none;stroke:#EFCF84;stroke-miterlimit:10;" x1="326" y1="744.601" x2="357" y2="744.601"/>
<line style="fill:none;stroke:#EFCF84;stroke-miterlimit:10;" x1="326" y1="748.601" x2="357" y2="748.601"/>
<line style="fill:none;stroke:#EFCF84;stroke-miterlimit:10;" x1="326" y1="752.601" x2="357" y2="752.601"/>
<line style="fill:none;stroke:#EFCF84;stroke-miterlimit:10;" x1="326" y1="756.601" x2="357" y2="756.601"/>
<line style="fill:none;stroke:#EFCF84;stroke-miterlimit:10;" x1="326" y1="760.601" x2="357" y2="760.601"/>
<line style="fill:none;stroke:#EFCF84;stroke-miterlimit:10;" x1="327" y1="793.601" x2="357" y2="793.601"/>
<line style="fill:none;stroke:#EFCF84;stroke-miterlimit:10;" x1="327" y1="797.601" x2="357" y2="797.601"/>
<line style="fill:none;stroke:#EFCF84;stroke-miterlimit:10;" x1="327" y1="801.601" x2="357" y2="801.601"/>
<line style="fill:none;stroke:#EFCF84;stroke-miterlimit:10;" x1="328" y1="805.601" x2="357" y2="805.601"/>
<line style="fill:none;stroke:#EFCF84;stroke-miterlimit:10;" x1="328" y1="809.601" x2="357" y2="809.601"/>
<line style="fill:none;stroke:#EFCF84;stroke-miterlimit:10;" x1="328" y1="813.601" x2="357" y2="813.601"/>
<line style="fill:none;stroke:#EFCF84;stroke-miterlimit:10;" x1="328" y1="817.601" x2="357" y2="817.601"/>
<line style="fill:none;stroke:#EFCF84;stroke-miterlimit:10;" x1="328" y1="821.601" x2="357" y2="821.601"/>
<line style="fill:none;stroke:#EFCF84;stroke-miterlimit:10;" x1="755.5" y1="504.101" x2="755.5" y2="522.101"/>
<line style="fill:none;stroke:#EFCF84;stroke-miterlimit:10;" x1="751.5" y1="504.101" x2="751.5" y2="522.101"/>
<line style="fill:none;stroke:#EFCF84;stroke-miterlimit:10;" x1="747.5" y1="504.101" x2="747.5" y2="522.101"/>
<line style="fill:none;stroke:#EFCF84;stroke-miterlimit:10;" x1="743.5" y1="504.101" x2="743.5" y2="522.101"/>
<line style="fill:none;stroke:#EFCF84;stroke-miterlimit:10;" x1="809.5" y1="504.101" x2="809.5" y2="522.101"/>
<line style="fill:none;stroke:#EFCF84;stroke-miterlimit:10;" x1="805.5" y1="504.101" x2="805.5" y2="522.101"/>
<line style="fill:none;stroke:#EFCF84;stroke-miterlimit:10;" x1="801.5" y1="504.101" x2="801.5" y2="522.101"/>
<line style="fill:none;stroke:#EFCF84;stroke-miterlimit:10;" x1="797.5" y1="504.101" x2="797.5" y2="522.101"/>
<line style="fill:none;stroke:#EFCF84;stroke-miterlimit:10;" x1="758" y1="489.601" x2="797" y2="489.601"/>
<line style="fill:none;stroke:#EFCF84;stroke-miterlimit:10;" x1="758" y1="493.601" x2="797" y2="493.601"/>
<line style="fill:none;stroke:#EFCF84;stroke-miterlimit:10;" x1="758" y1="497.601" x2="797" y2="497.601"/>
<line style="fill:none;stroke:#EFCF84;stroke-miterlimit:10;" x1="756" y1="600.601" x2="797" y2="600.601"/>
<line style="fill:none;stroke:#EFCF84;stroke-miterlimit:10;" x1="756" y1="604.601" x2="797" y2="604.601"/>
<line style="fill:none;stroke:#EFCF84;stroke-miterlimit:10;" x1="756" y1="608.601" x2="797" y2="608.601"/>
<line style="fill:none;stroke:#EFCF84;stroke-miterlimit:10;" x1="758" y1="501.601" x2="797" y2="501.601"/>
<line style="fill:none;stroke:#EFCF84;stroke-miterlimit:10;" x1="757" y1="525.601" x2="797" y2="525.601"/>
<line style="fill:none;stroke:#EFCF84;stroke-miterlimit:10;" x1="757" y1="529.601" x2="797" y2="529.601"/>
<line style="fill:none;stroke:#EFCF84;stroke-miterlimit:10;" x1="757" y1="533.601" x2="797" y2="533.601"/>
<line style="fill:none;stroke:#EFCF84;stroke-miterlimit:10;" x1="714.5" y1="613.101" x2="714.5" y2="637.101"/>
<line style="fill:none;stroke:#EFCF84;stroke-miterlimit:10;" x1="838.5" y1="613.101" x2="838.5" y2="640.101"/>
<line style="fill:none;stroke:#EFCF84;stroke-miterlimit:10;" x1="700" y1="635.601" x2="714" y2="635.601"/>
<line style="fill:none;stroke:#EFCF84;stroke-miterlimit:10;" x1="700" y1="631.601" x2="715" y2="631.601"/>
<line style="fill:none;stroke:#EFCF84;stroke-miterlimit:10;" x1="700" y1="627.601" x2="714" y2="627.601"/>
<line style="fill:none;stroke:#EFCF84;stroke-miterlimit:10;" x1="839" y1="635.601" x2="854" y2="635.601"/>
<line style="fill:none;stroke:#EFCF84;stroke-miterlimit:10;" x1="839" y1="631.601" x2="855" y2="631.601"/>
<line style="fill:none;stroke:#EFCF84;stroke-miterlimit:10;" x1="839" y1="627.601" x2="854" y2="627.601"/>
<line style="fill:none;stroke:#EFCF84;stroke-miterlimit:10;" x1="676" y1="684.601" x2="701" y2="684.601"/>
<line style="fill:none;stroke:#EFCF84;stroke-miterlimit:10;" x1="676" y1="689.601" x2="701" y2="689.601"/>
<line style="fill:none;stroke:#EFCF84;stroke-miterlimit:10;" x1="676" y1="694.601" x2="701" y2="694.601"/>
<line style="fill:none;stroke:#EFCF84;stroke-miterlimit:10;" x1="854" y1="684.601" x2="879" y2="684.601"/>
<line style="fill:none;stroke:#EFCF84;stroke-miterlimit:10;" x1="854" y1="689.601" x2="879" y2="689.601"/>
<line style="fill:none;stroke:#EFCF84;stroke-miterlimit:10;" x1="854" y1="694.601" x2="879" y2="694.601"/>
<line style="fill:none;stroke:#EFCF84;stroke-miterlimit:10;" x1="703.5" y1="668.101" x2="703.5" y2="681.101"/>
<line style="fill:none;stroke:#EFCF84;stroke-miterlimit:10;" x1="708.5" y1="668.101" x2="708.5" y2="681.101"/>
<line style="fill:none;stroke:#EFCF84;stroke-miterlimit:10;" x1="713.5" y1="668.101" x2="713.5" y2="681.101"/>
<line style="fill:none;stroke:#EFCF84;stroke-miterlimit:10;" x1="718.5" y1="668.101" x2="718.5" y2="681.101"/>
<line style="fill:none;stroke:#EFCF84;stroke-miterlimit:10;" x1="723.5" y1="668.101" x2="723.5" y2="681.101"/>
<line style="fill:none;stroke:#EFCF84;stroke-miterlimit:10;" x1="728.5" y1="668.101" x2="728.5" y2="681.101"/>
<line style="fill:none;stroke:#EFCF84;stroke-miterlimit:10;" x1="826.5" y1="668.101" x2="826.5" y2="681.101"/>
<line style="fill:none;stroke:#EFCF84;stroke-miterlimit:10;" x1="831.5" y1="668.101" x2="831.5" y2="681.101"/>
<line style="fill:none;stroke:#EFCF84;stroke-miterlimit:10;" x1="836.5" y1="668.101" x2="836.5" y2="681.101"/>
<line style="fill:none;stroke:#EFCF84;stroke-miterlimit:10;" x1="841.5" y1="668.101" x2="841.5" y2="681.101"/>
<line style="fill:none;stroke:#EFCF84;stroke-miterlimit:10;" x1="846.5" y1="668.101" x2="846.5" y2="681.101"/>
<line style="fill:none;stroke:#EFCF84;stroke-miterlimit:10;" x1="851.5" y1="668.101" x2="851.5" y2="681.101"/>
<polygon style="fill:#E6E4DA;stroke:#C7C5BC;stroke-miterlimit:10;" points="824.137,680.963 824.137,692.963 731.137,692.963 
	731.137,680.963 701.137,680.963 701.137,692.963 701.137,695.963 701.137,698.963 854.137,698.963 854.137,695.963 
	854.137,692.963 854.137,680.963 "/>
<line style="fill:none;stroke:#EFCF84;stroke-miterlimit:10;" x1="833.5" y1="431.101" x2="833.5" y2="447.101"/>
<line style="fill:none;stroke:#EFCF84;stroke-miterlimit:10;" x1="838.5" y1="431.101" x2="838.5" y2="447.101"/>
<line style="fill:none;stroke:#EFCF84;stroke-miterlimit:10;" x1="842.5" y1="431.101" x2="842.5" y2="447.101"/>
<line style="fill:none;stroke:#EFCF84;stroke-miterlimit:10;" x1="846.5" y1="431.101" x2="846.5" y2="447.101"/>
<line style="fill:none;stroke:#EFCF84;stroke-miterlimit:10;" x1="850.5" y1="431.101" x2="850.5" y2="446.101"/>
<g>
	<g>
		<g>
			<circle style="fill:#FFFFFF;" cx="250.887" cy="891.456" r="11.774"/>
		</g>
		<g>
			<path style="fill:#323333;" d="M250.887,903.73c-6.769,0-12.274-5.506-12.274-12.274s5.506-12.274,12.274-12.274
				s12.274,5.506,12.274,12.274S257.656,903.73,250.887,903.73z M250.887,880.181c-6.217,0-11.274,5.058-11.274,11.274
				s5.058,11.274,11.274,11.274s11.274-5.058,11.274-11.274S257.104,880.181,250.887,880.181z"/>
		</g>
	</g>
	<g>
		<g>
			<g>
				<path style="fill:#323333;" d="M250.887,886.455c-4.328,0-7.836,3.508-7.836,7.836h15.672
					C258.723,889.963,255.215,886.455,250.887,886.455z"/>
			</g>
		</g>
		<g>
			<g>
				<path style="fill:#323333;" d="M243.21,896.155l-0.778-0.383c-0.553-0.272-0.161-0.738,0.621-0.738h15.668
					c0.783,0,1.174,0.466,0.621,0.738l-0.862,0.425c-0.166,0.082-0.392,0.127-0.626,0.127l-14.028-0.041
					C243.595,896.281,243.374,896.236,243.21,896.155z"/>
			</g>
		</g>
		<g>
			<g>
				<path style="fill:#323333;" d="M250.992,887.064h-0.21c-0.251,0-0.456-0.205-0.456-0.456v-0.564
					c0-0.251,0.205-0.456,0.456-0.456h0.21c0.251,0,0.456,0.205,0.456,0.456v0.564C251.448,886.859,251.243,887.064,250.992,887.064
					z"/>
			</g>
		</g>
		<g>
			<g>
				<path style="fill:#323333;" d="M251.274,885.406H250.5c-0.096,0-0.175-0.078-0.175-0.175v-0.469
					c0-0.096,0.078-0.174,0.175-0.174h0.773c0.096,0,0.175,0.078,0.175,0.174v0.469C251.448,885.328,251.37,885.406,251.274,885.406
					z"/>
			</g>
		</g>
	</g>
</g>
<g>
	<g>
		<g>
			<circle style="fill:#FFFFFF;" cx="283.498" cy="700.963" r="11.774"/>
		</g>
		<g>
			<path style="fill:#323333;" d="M283.498,713.237c-6.768,0-12.274-5.506-12.274-12.274s5.506-12.274,12.274-12.274
				s12.274,5.506,12.274,12.274S290.266,713.237,283.498,713.237z M283.498,689.688c-6.217,0-11.274,5.058-11.274,11.274
				s5.058,11.274,11.274,11.274s11.274-5.058,11.274-11.274S289.715,689.688,283.498,689.688z"/>
		</g>
	</g>
	<g>
		<g>
			<g>
				<path style="fill:#323333;" d="M282.679,694.411c0,0.731,0.582,1.323,1.299,1.323c0.718,0,1.299-0.592,1.299-1.323
					c0-0.731-0.582-1.323-1.299-1.323C283.261,693.088,282.679,693.68,282.679,694.411L282.679,694.411z M282.679,694.411"/>
			</g>
		</g>
		<g>
			<g>
				<path style="fill:#323333;" d="M286.836,699.376c0.115-0.493-0.554-2.521-0.554-2.521c-0.075-0.191-0.431-0.777-1.433-0.783
					l-1.957,0.006c-0.971-0.054-1.329,0.502-1.419,0.795c0,0-0.65,2.043-0.542,2.503c0.072,0.302,0.612,0.674,1.18,0.944
					l-1.193,3.638l1.746-0.005l0.005,4.414c0.034,0.34,0.27,0.465,0.56,0.465c0.289,0,0.526-0.115,0.559-0.454h0.18
					c0.034,0.34,0.269,0.46,0.559,0.46c0.29,0,0.525-0.128,0.56-0.467l0.005-4.417l1.861,0.002l-1.135-3.714
					C286.323,699.98,286.772,699.649,286.836,699.376L286.836,699.376z M286.836,699.376"/>
			</g>
		</g>
	</g>
</g>
<g>
	<g>
		<g>
			<circle style="fill:#FFFFFF;" cx="256.448" cy="700.963" r="11.774"/>
		</g>
		<g>
			<path style="fill:#323333;" d="M256.448,713.237c-6.768,0-12.274-5.506-12.274-12.274s5.506-12.274,12.274-12.274
				s12.274,5.506,12.274,12.274S263.216,713.237,256.448,713.237z M256.448,689.688c-6.217,0-11.274,5.058-11.274,11.274
				s5.058,11.274,11.274,11.274s11.274-5.058,11.274-11.274S262.665,689.688,256.448,689.688z"/>
		</g>
	</g>
	<g>
		<g>
			<g>
				<g>
					<path style="fill:#323333;" d="M255.103,694.388c0,0.734,0.595,1.328,1.328,1.328c0.734,0,1.328-0.595,1.328-1.328
						c0-0.734-0.595-1.328-1.328-1.328C255.698,693.06,255.103,693.655,255.103,694.388L255.103,694.388z M255.103,694.388"/>
				</g>
			</g>
			<g>
				<g>
					<path style="fill:#323333;" d="M259.294,697.476c0,0,0.075-1.484-1.49-1.484h-2.714c-1.51,0-1.498,1.37-1.499,1.484l0.001,4.21
						c0.025,0.227,0.249,0.486,0.527,0.486c0.277,0,0.48-0.251,0.505-0.478l0.471,6.704c0.035,0.341,0.276,0.468,0.572,0.468
						c0.296,0,0.536-0.127,0.571-0.468h0.419c0.036,0.341,0.276,0.468,0.571,0.468c0.297,0,0.537-0.127,0.573-0.468l0.485-6.708
						c0,0.228,0.221,0.484,0.498,0.484c0.277,0,0.499-0.26,0.523-0.487L259.294,697.476z M259.294,697.476"/>
				</g>
			</g>
		</g>
	</g>
</g>
<g>
	<g>
		<g>
			<circle style="fill:#FFFFFF;" cx="574.498" cy="79.179" r="11.774"/>
		</g>
		<g>
			<path style="fill:#323333;" d="M574.498,91.454c-6.768,0-12.274-5.506-12.274-12.274s5.506-12.274,12.274-12.274
				s12.274,5.506,12.274,12.274S581.266,91.454,574.498,91.454z M574.498,67.905c-6.217,0-11.274,5.058-11.274,11.274
				s5.058,11.274,11.274,11.274s11.274-5.058,11.274-11.274S580.715,67.905,574.498,67.905z"/>
		</g>
	</g>
	<g>
		<g>
			<g>
				<g>
					<path style="fill:#323333;" d="M573.153,72.605c0,0.734,0.595,1.328,1.328,1.328s1.328-0.595,1.328-1.328
						c0-0.734-0.595-1.328-1.328-1.328S573.153,71.871,573.153,72.605L573.153,72.605z M573.153,72.605"/>
				</g>
			</g>
			<g>
				<g>
					<path style="fill:#323333;" d="M577.344,75.693c0,0,0.075-1.483-1.49-1.483h-2.714c-1.51,0-1.498,1.37-1.5,1.483l0.001,4.21
						c0.025,0.227,0.249,0.486,0.527,0.486c0.277,0,0.48-0.251,0.505-0.478l0.471,6.704c0.035,0.341,0.276,0.468,0.572,0.468
						c0.296,0,0.536-0.127,0.571-0.468h0.419c0.036,0.341,0.276,0.468,0.571,0.468c0.297,0,0.537-0.127,0.573-0.468l0.485-6.708
						c0,0.228,0.221,0.484,0.498,0.484c0.277,0,0.499-0.26,0.523-0.487L577.344,75.693z M577.344,75.693"/>
				</g>
			</g>
		</g>
	</g>
</g>
<g>
	<g>
		<g>
			<circle style="fill:#FFFFFF;" cx="229.998" cy="700.963" r="11.774"/>
		</g>
		<g>
			<path style="fill:#323333;" d="M229.998,713.237c-6.769,0-12.274-5.506-12.274-12.274s5.506-12.274,12.274-12.274
				s12.274,5.506,12.274,12.274S236.767,713.237,229.998,713.237z M229.998,689.688c-6.217,0-11.274,5.058-11.274,11.274
				s5.058,11.274,11.274,11.274s11.274-5.058,11.274-11.274S236.215,689.688,229.998,689.688z"/>
		</g>
	</g>
	<g>
		<g>
			<g id="XMLID_60_">
				<g>
					<circle style="fill:#323333;" cx="229.916" cy="694.387" r="1.782"/>
				</g>
			</g>
			<g id="XMLID_59_">
				<g>
					<path style="fill:#323333;" d="M228.134,698.005c0,0,1.836-2.052,3.564,0l0.648,2.268h1.836c0.298,0,0.54,0.242,0.54,0.54l0,0
						c0,0.298-0.242,0.54-0.54,0.54l-2.145-0.094c-0.376-0.016-0.703-0.261-0.825-0.617l-0.365-1.152c0,0-0.891-0.381-0.486,0.591
						c0.405,0.972,0.526,1.758,0.526,1.758s0.648,1.053,1.539,1.053c0.891,0,2.349-0.567,2.916,0.891
						c0.376,0.966,0.893,2.145,1.2,2.831c0.146,0.327,0.02,0.708-0.29,0.888l-0.278,0.161c-0.374,0.216-0.852,0.046-1.005-0.358
						l-1.085-2.873l-3.969-0.324c0,0-1.49,0.025-1.782-1.522C227.81,700.866,228.134,698.005,228.134,698.005z"/>
				</g>
			</g>
			<g id="XMLID_58_">
				<g>
					<path style="fill:#323333;" d="M228.218,709.445c-2.444,0-4.434-1.972-4.434-4.395s1.989-4.395,4.434-4.395
						s4.433,1.972,4.433,4.395S230.662,709.445,228.218,709.445z M228.218,702.155c-1.617,0-2.934,1.299-2.934,2.895
						s1.316,2.895,2.934,2.895s2.933-1.299,2.933-2.895S229.835,702.155,228.218,702.155z"/>
				</g>
			</g>
		</g>
	</g>
</g>
<g>
	<g>
		<g>
			<circle style="fill:#FFFFFF;" cx="601.498" cy="79.179" r="11.774"/>
		</g>
		<g>
			<path style="fill:#323333;" d="M601.498,91.454c-6.769,0-12.274-5.506-12.274-12.274s5.506-12.274,12.274-12.274
				s12.274,5.506,12.274,12.274S608.267,91.454,601.498,91.454z M601.498,67.905c-6.217,0-11.274,5.058-11.274,11.274
				s5.058,11.274,11.274,11.274s11.274-5.058,11.274-11.274S607.715,67.905,601.498,67.905z"/>
		</g>
	</g>
	<g>
		<g>
			<g id="XMLID_57_">
				<g>
					<circle style="fill:#323333;" cx="601.416" cy="72.604" r="1.782"/>
				</g>
			</g>
			<g id="XMLID_56_">
				<g>
					<path style="fill:#323333;" d="M599.634,76.221c0,0,1.836-2.052,3.564,0l0.648,2.268h1.836c0.298,0,0.54,0.242,0.54,0.54l0,0
						c0,0.298-0.242,0.54-0.54,0.54l-2.145-0.094c-0.376-0.016-0.703-0.261-0.825-0.617l-0.365-1.152c0,0-0.891-0.381-0.486,0.591
						c0.405,0.972,0.526,1.758,0.526,1.758s0.648,1.053,1.539,1.053s2.349-0.567,2.916,0.891c0.376,0.966,0.893,2.145,1.2,2.831
						c0.146,0.327,0.02,0.708-0.29,0.888l-0.278,0.161c-0.374,0.216-0.852,0.046-1.005-0.358l-1.085-2.873l-3.969-0.324
						c0,0-1.49,0.025-1.782-1.522C599.31,79.083,599.634,76.221,599.634,76.221z"/>
				</g>
			</g>
			<g id="XMLID_55_">
				<g>
					<path style="fill:#323333;" d="M599.718,87.662c-2.444,0-4.434-1.972-4.434-4.395s1.989-4.395,4.434-4.395
						s4.433,1.972,4.433,4.395S602.162,87.662,599.718,87.662z M599.718,80.372c-1.617,0-2.934,1.299-2.934,2.895
						s1.316,2.895,2.934,2.895s2.933-1.299,2.933-2.895S601.335,80.372,599.718,80.372z"/>
				</g>
			</g>
		</g>
	</g>
</g>
<g>
	<g>
		<g>
			<circle style="fill:#FFFFFF;" cx="316.887" cy="674.731" r="11.774"/>
		</g>
		<g>
			<path style="fill:#323333;" d="M316.887,687.006c-6.769,0-12.274-5.506-12.274-12.274s5.506-12.274,12.274-12.274
				s12.274,5.506,12.274,12.274S323.656,687.006,316.887,687.006z M316.887,663.457c-6.217,0-11.274,5.058-11.274,11.274
				s5.058,11.274,11.274,11.274s11.274-5.058,11.274-11.274S323.104,663.457,316.887,663.457z"/>
		</g>
	</g>
	<g>
		<g>
			<g>
				<g>
					<circle style="fill:#323333;" cx="317.307" cy="669.077" r="1.858"/>
				</g>
			</g>
			<g>
				<g>
					<path style="fill:#323333;" d="M322.348,674.906l-2.964-2.808c-0.14-0.133-0.326-0.207-0.519-0.207h-2.659
						c-0.179,0-0.352,0.064-0.488,0.179l-3.335,2.832c-0.313,0.266-0.356,0.734-0.095,1.052l0.061,0.074
						c0.266,0.325,0.747,0.37,1.069,0.1l1.679-1.41c0.239-0.201,0.606-0.059,0.648,0.251l0.097,0.716
						c0.051,0.374,0.37,0.653,0.747,0.653h1.898c0.386,0,0.71-0.291,0.75-0.675l0.074-0.7c0.042-0.395,0.535-0.548,0.793-0.246
						l1.096,1.283c0.286,0.334,0.796,0.354,1.107,0.043l0.058-0.058C322.663,675.687,322.656,675.198,322.348,674.906z"/>
				</g>
			</g>
			<g>
				<g>
					<path style="fill:#323333;" d="M315.907,680.003c-0.299-0.275-0.338-0.732-0.09-1.053l0.464-0.601
						c0.231-0.299,0.215-0.722-0.039-1.002c-0.345-0.382-0.959-0.331-1.238,0.102l-1.134,1.767c-0.192,0.3-0.158,0.691,0.084,0.953
						l1.531,1.658c0.309,0.334,0.837,0.335,1.147,0.002l0.046-0.049c0.295-0.317,0.275-0.814-0.044-1.108L315.907,680.003z"/>
				</g>
			</g>
			<g>
				<g>
					<path style="fill:#323333;" d="M319.879,677.614c-0.278-0.434-0.892-0.484-1.238-0.102c-0.254,0.281-0.27,0.703-0.039,1.002
						l0.464,0.601c0.248,0.321,0.209,0.779-0.09,1.053l-0.728,0.669c-0.319,0.293-0.339,0.79-0.044,1.108l0.046,0.049
						c0.31,0.333,0.838,0.333,1.147-0.002l1.531-1.658c0.241-0.261,0.276-0.653,0.084-0.952L319.879,677.614z"/>
				</g>
			</g>
		</g>
	</g>
</g>
<g>
	<g>
		<g>
			<circle style="fill:#FFFFFF;" cx="694.137" cy="454.731" r="11.774"/>
		</g>
		<g>
			<path style="fill:#323333;" d="M694.137,467.006c-6.768,0-12.274-5.506-12.274-12.274s5.506-12.274,12.274-12.274
				s12.274,5.506,12.274,12.274S700.905,467.006,694.137,467.006z M694.137,443.457c-6.217,0-11.274,5.058-11.274,11.274
				s5.058,11.274,11.274,11.274s11.274-5.058,11.274-11.274S700.354,443.457,694.137,443.457z"/>
		</g>
	</g>
	<g>
		<g id="XMLID_46_">
			<g>
				<path style="fill:#323333;" d="M698.072,451.712h-0.544c0-1.89-1.532-3.422-3.422-3.422c-1.89,0-3.422,1.532-3.422,3.422h-0.481
					c-0.435,0-0.788,0.353-0.788,0.788v7.938c0,0.435,0.353,0.788,0.788,0.788h7.869c0.435,0,0.788-0.353,0.788-0.788V452.5
					C698.86,452.065,698.507,451.712,698.072,451.712z M694.106,449.315c1.324,0,2.397,1.073,2.397,2.397h-4.793
					C691.709,450.388,692.782,449.315,694.106,449.315z"/>
			</g>
		</g>
	</g>
</g>
<g>
	<g>
		<g>
			<circle style="fill:#FFFFFF;" cx="792.637" cy="631.172" r="11.774"/>
		</g>
		<g>
			<path style="fill:#323333;" d="M792.637,643.447c-6.768,0-12.274-5.506-12.274-12.274s5.506-12.274,12.274-12.274
				s12.275,5.506,12.275,12.274S799.405,643.447,792.637,643.447z M792.637,619.898c-6.217,0-11.274,5.058-11.274,11.274
				s5.058,11.274,11.274,11.274c6.217,0,11.275-5.058,11.275-11.274S798.854,619.898,792.637,619.898z"/>
		</g>
	</g>
	<g>
		<g>
			<g>
				<g>
					<path style="fill:#323333;" d="M792.52,626.496h0.233c0.737,0,1.334-0.597,1.334-1.334c0-0.737-0.597-1.334-1.334-1.334h-0.233
						c-0.737,0-1.334,0.597-1.334,1.334C791.186,625.898,791.783,626.496,792.52,626.496z"/>
				</g>
			</g>
			<g>
				<g>
					<path style="fill:#323333;" d="M792.751,627.973h-0.228c-0.738,0-1.337,0.599-1.337,1.337v7.87
						c0,0.738,0.599,1.337,1.337,1.337h0.228c0.738,0,1.337-0.599,1.337-1.337v-7.87
						C794.088,628.571,793.489,627.973,792.751,627.973z"/>
				</g>
			</g>
		</g>
	</g>
</g>
<g>
	<g>
		<g>
			<circle style="fill:#FFFFFF;" cx="342.998" cy="674.731" r="11.774"/>
		</g>
		<g>
			<path style="fill:#323333;" d="M342.998,687.006c-6.769,0-12.274-5.506-12.274-12.274s5.506-12.274,12.274-12.274
				s12.274,5.506,12.274,12.274S349.767,687.006,342.998,687.006z M342.998,663.457c-6.217,0-11.274,5.058-11.274,11.274
				s5.058,11.274,11.274,11.274s11.274-5.058,11.274-11.274S349.215,663.457,342.998,663.457z"/>
		</g>
	</g>
	<g>
		<g>
			<g>
				<g>
					<path style="fill:#323333;" d="M343.712,677.575c-0.234-0.234-0.602-0.266-0.873-0.076l-2.158,1.433v-9.854
						c0-0.377-0.305-0.682-0.682-0.682c-0.002,0-0.003,0.001-0.004,0.001c-0.002,0-0.003-0.001-0.004-0.001
						c-0.377,0-0.682,0.305-0.682,0.682v9.854l-2.158-1.433c-0.271-0.19-0.639-0.158-0.873,0.076l-0.126,0.126
						c-0.266,0.266-0.266,0.698,0,0.964l3.29,2.201c0.159,0.159,0.361,0.217,0.552,0.196c0.001,0,0.001,0,0.002,0
						c0.001,0,0.001,0,0.002,0c0.191,0.021,0.392-0.037,0.552-0.196l3.29-2.201c0.266-0.266,0.266-0.698,0-0.964L343.712,677.575z"
						/>
				</g>
			</g>
			<g>
				<g>
					<path style="fill:#323333;" d="M351.207,670.798l-3.29-2.201c-0.159-0.159-0.361-0.217-0.552-0.196c-0.001,0-0.001,0-0.002,0
						c-0.001,0-0.001,0-0.002,0c-0.191-0.021-0.392,0.037-0.552,0.196l-3.29,2.201c-0.266,0.266-0.266,0.698,0,0.964l0.126,0.126
						c0.234,0.234,0.602,0.266,0.873,0.076l2.158-1.433v9.854c0,0.377,0.305,0.682,0.682,0.682c0.002,0,0.003-0.001,0.004-0.001
						s0.003,0.001,0.004,0.001c0.377,0,0.682-0.305,0.682-0.682v-9.854l2.158,1.433c0.271,0.19,0.639,0.158,0.873-0.076l0.126-0.126
						C351.474,671.496,351.474,671.064,351.207,670.798z"/>
				</g>
			</g>
		</g>
	</g>
</g>
<g>
	<g>
		<g>
			<circle style="fill:#FFFFFF;" cx="343.321" cy="370.779" r="11.774"/>
		</g>
		<g>
			<path style="fill:#323333;" d="M343.321,383.054c-6.769,0-12.274-5.506-12.274-12.274s5.506-12.274,12.274-12.274
				s12.274,5.506,12.274,12.274S350.089,383.054,343.321,383.054z M343.321,359.505c-6.217,0-11.274,5.058-11.274,11.274
				s5.058,11.274,11.274,11.274s11.274-5.058,11.274-11.274S349.538,359.505,343.321,359.505z"/>
		</g>
	</g>
	<g>
		<g>
			<g>
				<g>
					<path style="fill:#323333;" d="M344.035,373.623c-0.234-0.234-0.602-0.266-0.873-0.076l-2.158,1.433v-9.854
						c0-0.377-0.305-0.682-0.682-0.682c-0.002,0-0.003,0.001-0.004,0.001c-0.002,0-0.003-0.001-0.004-0.001
						c-0.377,0-0.682,0.305-0.682,0.682v9.854l-2.158-1.433c-0.271-0.19-0.639-0.158-0.873,0.076l-0.126,0.126
						c-0.266,0.266-0.266,0.698,0,0.964l3.29,2.201c0.159,0.159,0.361,0.217,0.552,0.196c0.001,0,0.001,0,0.002,0
						c0.001,0,0.001,0,0.002,0c0.191,0.021,0.392-0.037,0.552-0.196l3.29-2.201c0.266-0.266,0.266-0.698,0-0.964L344.035,373.623z"
						/>
				</g>
			</g>
			<g>
				<g>
					<path style="fill:#323333;" d="M351.53,366.846l-3.29-2.201c-0.159-0.159-0.361-0.217-0.552-0.196c-0.001,0-0.001,0-0.002,0
						c-0.001,0-0.001,0-0.002,0c-0.191-0.021-0.392,0.037-0.552,0.196l-3.29,2.201c-0.266,0.266-0.266,0.698,0,0.964l0.126,0.126
						c0.234,0.234,0.602,0.266,0.873,0.076l2.158-1.433v9.854c0,0.377,0.305,0.682,0.682,0.682c0.002,0,0.003-0.001,0.004-0.001
						s0.003,0.001,0.004,0.001c0.377,0,0.682-0.305,0.682-0.682v-9.854l2.158,1.433c0.271,0.19,0.639,0.158,0.873-0.076l0.126-0.126
						C351.797,367.544,351.797,367.112,351.53,366.846z"/>
				</g>
			</g>
		</g>
	</g>
</g>
<g>
	<g>
		<g>
			<circle style="fill:#FFFFFF;" cx="518.637" cy="258.231" r="11.774"/>
		</g>
		<g>
			<path style="fill:#323333;" d="M518.637,270.506c-6.769,0-12.274-5.506-12.274-12.274s5.506-12.274,12.274-12.274
				c6.769,0,12.274,5.506,12.274,12.274S525.406,270.506,518.637,270.506z M518.637,246.957c-6.217,0-11.274,5.058-11.274,11.274
				s5.058,11.274,11.274,11.274s11.274-5.058,11.274-11.274S524.854,246.957,518.637,246.957z"/>
		</g>
	</g>
	<g>
		<g>
			<g>
				<g>
					<path style="fill:#323333;" d="M519.351,261.075c-0.234-0.234-0.602-0.266-0.873-0.076l-2.158,1.433v-9.854
						c0-0.377-0.305-0.682-0.682-0.682c-0.002,0-0.003,0.001-0.004,0.001s-0.003-0.001-0.004-0.001
						c-0.377,0-0.682,0.305-0.682,0.682v9.854l-2.158-1.433c-0.271-0.19-0.639-0.158-0.873,0.076l-0.126,0.126
						c-0.266,0.266-0.266,0.698,0,0.964l3.29,2.201c0.159,0.159,0.361,0.217,0.552,0.196c0.001,0,0.001,0,0.001,0
						c0.001,0,0.002,0,0.002,0c0.191,0.021,0.393-0.037,0.552-0.197l3.29-2.201c0.266-0.266,0.266-0.698,0-0.964L519.351,261.075z"
						/>
				</g>
			</g>
			<g>
				<g>
					<path style="fill:#323333;" d="M526.846,254.298l-3.29-2.201c-0.159-0.159-0.361-0.217-0.552-0.196c-0.001,0-0.001,0-0.002,0
						c-0.001,0-0.001,0-0.002,0c-0.19-0.021-0.392,0.037-0.552,0.196l-3.29,2.201c-0.266,0.266-0.266,0.698,0,0.964l0.126,0.126
						c0.234,0.234,0.602,0.266,0.873,0.076l2.158-1.433v9.854c0,0.377,0.305,0.682,0.682,0.682c0.002,0,0.003-0.001,0.004-0.001
						c0.002,0,0.003,0.001,0.004,0.001c0.377,0,0.682-0.305,0.682-0.682v-9.854l2.158,1.433c0.271,0.19,0.639,0.158,0.873-0.076
						l0.126-0.126C527.113,254.996,527.113,254.564,526.846,254.298z"/>
				</g>
			</g>
		</g>
	</g>
</g>
<g>
	<g>
		<g>
			<circle style="fill:#FFFFFF;" cx="539.248" cy="100.678" r="11.774"/>
		</g>
		<g>
			<path style="fill:#323333;" d="M539.248,112.953c-6.769,0-12.274-5.506-12.274-12.274s5.506-12.274,12.274-12.274
				s12.274,5.506,12.274,12.274S546.017,112.953,539.248,112.953z M539.248,89.404c-6.217,0-11.274,5.058-11.274,11.274
				s5.058,11.274,11.274,11.274s11.274-5.058,11.274-11.274S545.465,89.404,539.248,89.404z"/>
		</g>
	</g>
	<g>
		<g>
			<g>
				<g>
					<path style="fill:#323333;" d="M539.962,103.522c-0.234-0.234-0.602-0.266-0.873-0.076l-2.158,1.433v-9.854
						c0-0.377-0.305-0.682-0.682-0.682c-0.002,0-0.003,0.001-0.004,0.001c-0.002,0-0.003-0.001-0.004-0.001
						c-0.377,0-0.682,0.305-0.682,0.682v9.854l-2.158-1.433c-0.271-0.19-0.639-0.158-0.873,0.076l-0.126,0.126
						c-0.266,0.266-0.266,0.698,0,0.964l3.29,2.201c0.159,0.159,0.361,0.217,0.552,0.196c0.001,0,0.001,0,0.001,0
						c0.001,0,0.002,0,0.002,0c0.191,0.021,0.393-0.037,0.552-0.197l3.29-2.201c0.266-0.266,0.266-0.698,0-0.964L539.962,103.522z"
						/>
				</g>
			</g>
			<g>
				<g>
					<path style="fill:#323333;" d="M547.457,96.744l-3.29-2.201c-0.159-0.159-0.361-0.217-0.552-0.196c-0.001,0-0.001,0-0.002,0
						c-0.001,0-0.001,0-0.002,0c-0.19-0.021-0.392,0.037-0.552,0.196l-3.29,2.201c-0.266,0.266-0.266,0.698,0,0.964l0.126,0.126
						c0.234,0.234,0.602,0.266,0.873,0.076l2.158-1.433v9.854c0,0.377,0.305,0.682,0.682,0.682c0.002,0,0.003-0.001,0.004-0.001
						c0.002,0,0.003,0.001,0.004,0.001c0.377,0,0.682-0.305,0.682-0.682v-9.854l2.158,1.433c0.271,0.19,0.639,0.158,0.873-0.076
						l0.126-0.126C547.724,97.442,547.724,97.011,547.457,96.744z"/>
				</g>
			</g>
		</g>
	</g>
</g>
<g>
	<g>
		<g>
			<circle style="fill:#FFFFFF;" cx="723.998" cy="420.731" r="11.774"/>
		</g>
		<g>
			<path style="fill:#323333;" d="M723.998,433.006c-6.769,0-12.274-5.506-12.274-12.274s5.506-12.274,12.274-12.274
				s12.274,5.506,12.274,12.274S730.767,433.006,723.998,433.006z M723.998,409.457c-6.217,0-11.274,5.058-11.274,11.274
				s5.058,11.274,11.274,11.274s11.274-5.058,11.274-11.274S730.215,409.457,723.998,409.457z"/>
		</g>
	</g>
	<g>
		<g>
			<g>
				<g>
					<path style="fill:#323333;" d="M724.712,423.575c-0.234-0.234-0.602-0.266-0.873-0.076l-2.158,1.433v-9.854
						c0-0.377-0.305-0.682-0.682-0.682c-0.002,0-0.003,0.001-0.004,0.001c-0.002,0-0.003-0.001-0.004-0.001
						c-0.377,0-0.682,0.305-0.682,0.682v9.854l-2.158-1.433c-0.271-0.19-0.639-0.158-0.873,0.076l-0.126,0.126
						c-0.266,0.266-0.266,0.698,0,0.964l3.29,2.201c0.159,0.159,0.361,0.217,0.552,0.196c0.001,0,0.001,0,0.001,0
						c0.001,0,0.002,0,0.002,0c0.191,0.021,0.393-0.037,0.552-0.197l3.29-2.201c0.266-0.266,0.266-0.698,0-0.964L724.712,423.575z"
						/>
				</g>
			</g>
			<g>
				<g>
					<path style="fill:#323333;" d="M732.207,416.798l-3.29-2.201c-0.159-0.159-0.361-0.217-0.552-0.196c-0.001,0-0.001,0-0.002,0
						c-0.001,0-0.001,0-0.002,0c-0.19-0.021-0.392,0.037-0.552,0.196l-3.29,2.201c-0.266,0.266-0.266,0.698,0,0.964l0.126,0.126
						c0.234,0.234,0.602,0.266,0.873,0.076l2.158-1.433v9.854c0,0.377,0.305,0.682,0.682,0.682c0.002,0,0.003-0.001,0.004-0.001
						c0.002,0,0.003,0.001,0.004,0.001c0.377,0,0.682-0.305,0.682-0.682v-9.854l2.158,1.433c0.271,0.19,0.639,0.158,0.873-0.076
						l0.126-0.126C732.474,417.496,732.474,417.064,732.207,416.798z"/>
				</g>
			</g>
		</g>
	</g>
</g>
<g>
	<g>
		<g>
			<circle style="fill:#FFFFFF;" cx="839.498" cy="493.731" r="11.774"/>
		</g>
		<g>
			<path style="fill:#323333;" d="M839.498,506.006c-6.769,0-12.274-5.506-12.274-12.274s5.506-12.274,12.274-12.274
				s12.274,5.506,12.274,12.274S846.267,506.006,839.498,506.006z M839.498,482.457c-6.217,0-11.274,5.058-11.274,11.274
				s5.058,11.274,11.274,11.274s11.274-5.058,11.274-11.274S845.715,482.457,839.498,482.457z"/>
		</g>
	</g>
	<g>
		<g>
			<g>
				<g>
					<path style="fill:#323333;" d="M840.212,496.575c-0.234-0.234-0.602-0.266-0.873-0.076l-2.158,1.433v-9.854
						c0-0.377-0.305-0.682-0.682-0.682c-0.002,0-0.003,0.001-0.004,0.001c-0.002,0-0.003-0.001-0.004-0.001
						c-0.377,0-0.682,0.305-0.682,0.682v9.854l-2.158-1.433c-0.271-0.19-0.639-0.158-0.873,0.076l-0.126,0.126
						c-0.266,0.266-0.266,0.698,0,0.964l3.29,2.201c0.159,0.159,0.361,0.217,0.552,0.196c0.001,0,0.001,0,0.001,0
						c0.001,0,0.002,0,0.002,0c0.191,0.021,0.393-0.037,0.552-0.197l3.29-2.201c0.266-0.266,0.266-0.698,0-0.964L840.212,496.575z"
						/>
				</g>
			</g>
			<g>
				<g>
					<path style="fill:#323333;" d="M847.707,489.798l-3.29-2.201c-0.159-0.159-0.361-0.217-0.552-0.196c-0.001,0-0.001,0-0.002,0
						c-0.001,0-0.001,0-0.002,0c-0.19-0.021-0.392,0.037-0.552,0.196l-3.29,2.201c-0.266,0.266-0.266,0.698,0,0.964l0.126,0.126
						c0.234,0.234,0.602,0.266,0.873,0.076l2.158-1.433v9.854c0,0.377,0.305,0.682,0.682,0.682c0.002,0,0.003-0.001,0.004-0.001
						c0.002,0,0.003,0.001,0.004,0.001c0.377,0,0.682-0.305,0.682-0.682v-9.854l2.158,1.433c0.271,0.19,0.639,0.158,0.873-0.076
						l0.126-0.126C847.974,490.496,847.974,490.064,847.707,489.798z"/>
				</g>
			</g>
		</g>
	</g>
</g>
<g>
	<g>
		<g>
			<circle style="fill:#FFFFFF;" cx="312.117" cy="417.963" r="11.774"/>
		</g>
		<g>
			<path style="fill:#323333;" d="M312.117,430.237c-6.768,0-12.274-5.506-12.274-12.274s5.506-12.274,12.274-12.274
				s12.274,5.506,12.274,12.274S318.886,430.237,312.117,430.237z M312.117,406.688c-6.217,0-11.274,5.058-11.274,11.274
				c0,6.216,5.058,11.274,11.274,11.274s11.274-5.058,11.274-11.274C323.392,411.746,318.334,406.688,312.117,406.688z"/>
		</g>
	</g>
	<path style="fill:#323333;" d="M318.541,416.923c-0.348-3.167-3.039-5.639-6.297-5.639c-3.258,0-5.949,2.472-6.297,5.639
		c-1.101,0.067-1.921,0.445-1.921,2.478c0,2.372,1.116,3.128,2.491,3.128c1.376,0,2.491-0.756,2.491-3.128
		c0-2.372-1.114-2.491-2.491-2.491c-0.011,0,0.642,0.019,0.631,0.019c0.352-2.867,2.135-5.114,5.096-5.114
		c2.961,0,4.727,2.247,5.079,5.114c-0.011,0,0.66-0.019,0.648-0.019c-1.376,0-2.491,0.12-2.491,2.491
		c0,2.371,1.114,3.128,2.491,3.128c1.377,0,2.491-0.756,2.491-3.128C320.463,417.368,319.642,416.99,318.541,416.923
		L318.541,416.923z M318.541,416.923"/>
</g>
<g>
	<g>
		<g>
			<circle style="fill:#FFFFFF;" cx="765.772" cy="631.172" r="11.774"/>
		</g>
		<g>
			<path style="fill:#323333;" d="M765.772,643.446c-6.768,0-12.274-5.506-12.274-12.274s5.506-12.274,12.274-12.274
				s12.274,5.506,12.274,12.274S772.54,643.446,765.772,643.446z M765.772,619.898c-6.217,0-11.274,5.058-11.274,11.274
				c0,6.216,5.058,11.274,11.274,11.274s11.274-5.058,11.274-11.274C777.047,624.956,771.989,619.898,765.772,619.898z"/>
		</g>
	</g>
	<path style="fill:#323333;" d="M772.196,630.133c-0.348-3.167-3.039-5.639-6.297-5.639c-3.258,0-5.949,2.472-6.297,5.639
		c-1.101,0.067-1.921,0.445-1.921,2.478c0,2.372,1.116,3.128,2.491,3.128s2.491-0.756,2.491-3.128c0-2.372-1.114-2.491-2.491-2.491
		c-0.011,0,0.642,0.019,0.631,0.019c0.352-2.867,2.135-5.114,5.096-5.114c2.961,0,4.727,2.247,5.079,5.114
		c-0.011,0,0.66-0.019,0.648-0.019c-1.376,0-2.491,0.12-2.491,2.491c0,2.371,1.114,3.128,2.491,3.128s2.491-0.756,2.491-3.128
		C774.118,630.577,773.297,630.2,772.196,630.133L772.196,630.133z M772.196,630.133"/>
</g>
<path style="fill:none;stroke:#58A543;stroke-width:10;stroke-linecap:round;stroke-linejoin:round;stroke-miterlimit:10;stroke-dasharray:0,16;" d="
	M780.362,546.601c0,0,17.971-115.54-6.245-129.678c-19.209-11.215-130.592,0.602-144.481-11.234
	C609,388.101,625.5,267.101,614,245.101s-58.996-34-181.5-34c-36.167,0-23.333-64.758-6.167-77
	c14.808-10.56,127.557-6.333,142.333,6c17.972,15,4.607,55,21.97,64.5c17.363,9.5,38.363,32.5,40.863,48.5s5.571,39,22.934,39.5
	s369.066-10.361,393.566,18c23.745,27.488,22.563,187.767,9,202.5c-19.333,21-80,12.5-80,12.5"/>
</svg>
