<?xml version="1.0" encoding="utf-8"?>
<!-- Generator: Adobe Illustrator 21.1.0, SVG Export Plug-In . SVG Version: 6.00 Build 0)  -->
<svg version="1.1" id="图层_1" xmlns="http://www.w3.org/2000/svg" xmlns:xlink="http://www.w3.org/1999/xlink" x="0px" y="0px"
	 width="960.782px" height="762.726px" viewBox="0 0 960.782 762.726" style="enable-background:new 0 0 960.782 762.726;"
	 xml:space="preserve">
<polyline style="fill:#FEF8DE;stroke:#EFCF84;stroke-miterlimit:10;" points="428.564,50.62 428.564,6.12 531.564,6.12 
	531.564,50.62 "/>
<polyline style="fill:#FEF8DE;stroke:#EFCF84;stroke-miterlimit:10;" points="540.564,498.62 540.564,617.12 577.564,617.12 
	577.564,560.12 870.564,560.12 870.564,544.12 952.564,544.12 952.564,19.12 757.564,19.12 757.564,33.12 522.564,33.12 
	522.564,41.12 437.564,41.12 437.564,34.12 202.564,34.12 202.564,16.12 5.564,16.12 5.564,40.62 5.564,542.12 86.564,542.12 
	86.564,564.62 385.064,564.12 385.564,616.12 420.564,616.12 420.564,498.62 "/>
<polyline style="fill:none;stroke:#EFCF84;stroke-miterlimit:10;" points="385.064,564.12 382.064,564.12 86.564,564.12 
	86.564,542.12 5.564,542.12 5.564,100.62 "/>
<line style="fill:none;stroke:#EFCF84;stroke-miterlimit:10;" x1="5.064" y1="122.12" x2="69.064" y2="122.12"/>
<line style="fill:none;stroke:#EFCF84;stroke-miterlimit:10;" x1="952.064" y1="122.12" x2="911.064" y2="122.12"/>
<line style="fill:none;stroke:#EFCF84;stroke-miterlimit:10;" x1="5.064" y1="439.12" x2="80.064" y2="439.12"/>
<polyline style="fill:none;stroke:#EFCF84;stroke-miterlimit:10;" points="155.064,439.12 109.564,439.12 109.564,454.62 "/>
<line style="fill:none;stroke:#EFCF84;stroke-miterlimit:10;" x1="109.564" y1="477.62" x2="109.564" y2="564.62"/>
<line style="fill:none;stroke:#EFCF84;stroke-miterlimit:10;" x1="86.064" y1="542.12" x2="109.064" y2="542.12"/>
<polyline style="fill:none;stroke:#EFCF84;stroke-miterlimit:10;" points="181.064,439.12 385.564,439.12 385.564,454.62 "/>
<polyline style="fill:none;stroke:#EFCF84;stroke-miterlimit:10;" points="419.564,498.62 419.564,616.12 385.564,616.12 
	385.564,481.62 "/>
<line style="fill:none;stroke:#EFCF84;stroke-miterlimit:10;" x1="577.564" y1="560.62" x2="577.564" y2="481.62"/>
<polyline style="fill:none;stroke:#EFCF84;stroke-miterlimit:10;" points="806.064,439.12 847.564,439.12 847.564,451.62 "/>
<line style="fill:none;stroke:#EFCF84;stroke-miterlimit:10;" x1="848.564" y1="560.62" x2="848.564" y2="477.62"/>
<line style="fill:none;stroke:#EFCF84;stroke-miterlimit:10;" x1="877.064" y1="439.12" x2="952.064" y2="439.12"/>
<line style="fill:none;stroke:#EFCF84;stroke-miterlimit:10;" x1="189.564" y1="357.62" x2="189.564" y2="417.62"/>
<line style="fill:none;stroke:#EFCF84;stroke-miterlimit:10;" x1="347.564" y1="357.62" x2="347.564" y2="417.62"/>
<line style="fill:none;stroke:#EFCF84;stroke-miterlimit:10;" x1="361.064" y1="406.12" x2="347.064" y2="406.12"/>
<line style="fill:none;stroke:#EFCF84;stroke-miterlimit:10;" x1="366.064" y1="406.12" x2="376.064" y2="406.12"/>
<line style="fill:none;stroke:#EFCF84;stroke-miterlimit:10;" x1="385.064" y1="498.12" x2="431.064" y2="498.12"/>
<line style="fill:none;stroke:#EFCF84;stroke-miterlimit:10;" x1="452.064" y1="498.12" x2="508.064" y2="498.12"/>
<line style="fill:none;stroke:#EFCF84;stroke-miterlimit:10;" x1="528.064" y1="498.12" x2="577.064" y2="498.12"/>
<path style="fill:none;stroke:#EFCF84;stroke-miterlimit:10;" d="M110.564,16.12c0.5,3.75,0,80,0,80"/>
<line style="fill:none;stroke:#EFCF84;stroke-miterlimit:10;" x1="155.564" y1="16.62" x2="155.564" y2="63.62"/>
<polyline style="fill:none;stroke:#EFCF84;stroke-miterlimit:10;" points="202.564,34.62 202.564,69.12 187.064,69.12 "/>
<line style="fill:none;stroke:#EFCF84;stroke-miterlimit:10;" x1="165.064" y1="64.12" x2="146.064" y2="64.12"/>
<line style="fill:none;stroke:#EFCF84;stroke-miterlimit:10;" x1="124.064" y1="64.12" x2="110.064" y2="64.12"/>
<line style="fill:none;stroke:#EFCF84;stroke-miterlimit:10;" x1="437.564" y1="41.62" x2="437.564" y2="69.62"/>
<line style="fill:none;stroke:#EFCF84;stroke-miterlimit:10;" x1="522.564" y1="41.62" x2="522.564" y2="69.62"/>
<line style="fill:none;stroke:#EFCF84;stroke-miterlimit:10;" x1="407.564" y1="94.62" x2="407.564" y2="58.62"/>
<line style="fill:none;stroke:#EFCF84;stroke-miterlimit:10;" x1="552.564" y1="94.62" x2="552.564" y2="58.62"/>
<polyline style="fill:none;stroke:#EFCF84;stroke-miterlimit:10;" points="757.564,33.62 757.564,70.12 773.064,70.12 "/>
<line style="fill:none;stroke:#EFCF84;stroke-miterlimit:10;" x1="795.064" y1="70.12" x2="813.064" y2="70.12"/>
<line style="fill:none;stroke:#EFCF84;stroke-miterlimit:10;" x1="803.564" y1="19.62" x2="803.564" y2="70.62"/>
<path style="fill:none;stroke:#EFCF84;stroke-miterlimit:10;" d="M851.064,19.12c0.5,2.25,0,75.5,0,75.5"/>
<line style="fill:none;stroke:#EFCF84;stroke-miterlimit:10;" x1="837.064" y1="70.12" x2="851.064" y2="70.12"/>
<line style="fill:none;stroke:#EFCF84;stroke-miterlimit:10;" x1="870.064" y1="544.12" x2="848.064" y2="544.12"/>
<rect x="132.314" y="381.12" style="fill:none;stroke:#EFCF84;stroke-miterlimit:10;" width="37.25" height="36.5"/>
<rect x="791.064" y="381.12" style="fill:none;stroke:#EFCF84;stroke-miterlimit:10;" width="35.75" height="36.5"/>
<g>
	<line style="fill:none;stroke:#EFCF84;stroke-miterlimit:10;" x1="148.564" y1="357.62" x2="148.564" y2="381.62"/>
	<line style="fill:none;stroke:#EFCF84;stroke-miterlimit:10;" x1="154.564" y1="357.62" x2="154.564" y2="381.62"/>
	<line style="fill:none;stroke:#EFCF84;stroke-miterlimit:10;" x1="160.564" y1="357.62" x2="160.564" y2="381.62"/>
	<line style="fill:none;stroke:#EFCF84;stroke-miterlimit:10;" x1="166.564" y1="357.62" x2="166.564" y2="381.62"/>
</g>
<g>
	<line style="fill:none;stroke:#EFCF84;stroke-miterlimit:10;" x1="189.064" y1="385.12" x2="169.064" y2="385.12"/>
	<line style="fill:none;stroke:#EFCF84;stroke-miterlimit:10;" x1="189.064" y1="391.12" x2="169.064" y2="391.12"/>
	<line style="fill:none;stroke:#EFCF84;stroke-miterlimit:10;" x1="190.064" y1="397.12" x2="170.064" y2="397.12"/>
	<line style="fill:none;stroke:#EFCF84;stroke-miterlimit:10;" x1="190.064" y1="403.12" x2="170.064" y2="403.12"/>
</g>
<g>
	<line style="fill:none;stroke:#EFCF84;stroke-miterlimit:10;" x1="792.564" y1="361.62" x2="792.564" y2="381.62"/>
	<line style="fill:none;stroke:#EFCF84;stroke-miterlimit:10;" x1="798.564" y1="361.62" x2="798.564" y2="381.62"/>
	<line style="fill:none;stroke:#EFCF84;stroke-miterlimit:10;" x1="804.564" y1="361.62" x2="804.564" y2="381.62"/>
	<line style="fill:none;stroke:#EFCF84;stroke-miterlimit:10;" x1="810.564" y1="361.62" x2="810.564" y2="381.62"/>
</g>
<g>
	<line style="fill:none;stroke:#EFCF84;stroke-miterlimit:10;" x1="791.064" y1="385.12" x2="770.064" y2="385.12"/>
	<line style="fill:none;stroke:#EFCF84;stroke-miterlimit:10;" x1="791.064" y1="391.12" x2="770.064" y2="391.12"/>
	<line style="fill:none;stroke:#EFCF84;stroke-miterlimit:10;" x1="791.064" y1="397.12" x2="770.064" y2="397.12"/>
	<line style="fill:none;stroke:#EFCF84;stroke-miterlimit:10;" x1="791.064" y1="403.12" x2="770.064" y2="403.12"/>
</g>
<line style="fill:none;stroke:#EFCF84;stroke-miterlimit:10;" x1="566.064" y1="323.12" x2="392.064" y2="323.12"/>
<rect x="449.731" y="348.287" style="fill:none;stroke:#EFCF84;stroke-miterlimit:10;" width="61" height="98.583"/>
<line style="fill:none;stroke:#EFCF84;stroke-miterlimit:10;" x1="510.731" y1="385.12" x2="449.731" y2="446.87"/>
<line style="fill:none;stroke:#EFCF84;stroke-miterlimit:10;" x1="450.064" y1="356.12" x2="511.064" y2="356.12"/>
<line style="fill:none;stroke:#EFCF84;stroke-miterlimit:10;" x1="450.064" y1="364.12" x2="511.064" y2="363.12"/>
<line style="fill:none;stroke:#EFCF84;stroke-miterlimit:10;" x1="450.064" y1="373.12" x2="511.064" y2="373.12"/>
<line style="fill:none;stroke:#EFCF84;stroke-miterlimit:10;" x1="450.064" y1="381.12" x2="511.064" y2="380.12"/>
<line style="fill:none;stroke:#EFCF84;stroke-miterlimit:10;" x1="450.064" y1="408.12" x2="488.064" y2="408.12"/>
<line style="fill:none;stroke:#EFCF84;stroke-miterlimit:10;" x1="450.064" y1="416.12" x2="480.064" y2="416.12"/>
<line style="fill:none;stroke:#EFCF84;stroke-miterlimit:10;" x1="450.064" y1="423.12" x2="473.064" y2="423.12"/>
<line style="fill:none;stroke:#EFCF84;stroke-miterlimit:10;" x1="450.064" y1="431.12" x2="465.064" y2="431.12"/>
<line style="fill:none;stroke:#EFCF84;stroke-miterlimit:10;" x1="450.064" y1="437.12" x2="459.064" y2="437.12"/>
<polyline style="fill:none;stroke:#EFCF84;stroke-miterlimit:10;" points="385.064,528.12 401.564,528.12 401.564,616.62 "/>
<polyline style="fill:none;stroke:#EFCF84;stroke-miterlimit:10;" points="577.064,527.12 557.564,527.12 557.564,617.62 "/>
<polyline style="fill:none;stroke:#EFCF84;stroke-miterlimit:10;" points="437.564,616.62 437.564,579.12 540.064,579.12 "/>
<line style="fill:none;stroke:#EFCF84;stroke-miterlimit:10;" x1="419.064" y1="515.12" x2="540.064" y2="515.12"/>
<line style="fill:none;stroke:#EFCF84;stroke-miterlimit:10;" x1="419.064" y1="521.12" x2="540.064" y2="521.12"/>
<line style="fill:none;stroke:#EFCF84;stroke-miterlimit:10;" x1="419.064" y1="561.12" x2="431.064" y2="561.12"/>
<line style="fill:none;stroke:#EFCF84;stroke-miterlimit:10;" x1="452.064" y1="561.12" x2="473.064" y2="561.12"/>
<line style="fill:none;stroke:#EFCF84;stroke-miterlimit:10;" x1="487.064" y1="561.12" x2="508.064" y2="561.12"/>
<line style="fill:none;stroke:#EFCF84;stroke-miterlimit:10;" x1="528.064" y1="561.12" x2="540.064" y2="561.12"/>
<line style="fill:none;stroke:#EFCF84;stroke-miterlimit:10;" x1="437.064" y1="586.12" x2="540.064" y2="586.12"/>
<line style="fill:none;stroke:#EFCF84;stroke-miterlimit:10;" x1="437.064" y1="593.12" x2="540.064" y2="593.12"/>
<line style="fill:none;stroke:#EFCF84;stroke-miterlimit:10;" x1="437.064" y1="598.12" x2="540.064" y2="598.12"/>
<path style="fill:#E6E4DA;stroke:#C7C5BC;stroke-miterlimit:10;" d="M431.064,675.12h-55.5v66.5c0,0,1.75,16,17.5,16
	s16.5-16.5,16.5-16.5v-65.5"/>
<line style="fill:none;stroke:#EFCF84;stroke-miterlimit:10;" x1="452.064" y1="675.12" x2="473.064" y2="675.12"/>
<line style="fill:none;stroke:#EFCF84;stroke-miterlimit:10;" x1="487.064" y1="675.12" x2="508.064" y2="675.12"/>
<line style="fill:none;stroke:#EFCF84;stroke-miterlimit:10;" x1="528.064" y1="675.12" x2="584.064" y2="675.12"/>
<line style="fill:none;stroke:#EFCF84;stroke-miterlimit:10;" x1="349.564" y1="695.62" x2="349.564" y2="740.62"/>
<line style="fill:none;stroke:#EFCF84;stroke-miterlimit:10;" x1="336.064" y1="741.12" x2="376.064" y2="741.12"/>
<line style="fill:none;stroke:#EFCF84;stroke-miterlimit:10;" x1="349.064" y1="704.12" x2="375.064" y2="704.12"/>
<line style="fill:none;stroke:#EFCF84;stroke-miterlimit:10;" x1="349.064" y1="714.12" x2="375.064" y2="714.12"/>
<line style="fill:none;stroke:#EFCF84;stroke-miterlimit:10;" x1="349.064" y1="723.12" x2="375.064" y2="723.12"/>
<line style="fill:none;stroke:#EFCF84;stroke-miterlimit:10;" x1="349.064" y1="732.12" x2="375.064" y2="732.12"/>
<line style="fill:none;stroke:#EFCF84;stroke-miterlimit:10;" x1="410.064" y1="704.12" x2="550.064" y2="704.12"/>
<line style="fill:none;stroke:#EFCF84;stroke-miterlimit:10;" x1="410.064" y1="714.12" x2="550.064" y2="714.12"/>
<line style="fill:none;stroke:#EFCF84;stroke-miterlimit:10;" x1="410.064" y1="723.12" x2="550.064" y2="723.12"/>
<line style="fill:none;stroke:#EFCF84;stroke-miterlimit:10;" x1="410.064" y1="732.12" x2="550.064" y2="732.12"/>
<path style="fill:none;stroke:#EFCF84;stroke-miterlimit:10;" d="M375.064,675.12h-43c0,0-29.667,1.833-29,65.5"/>
<circle style="fill:none;stroke:#EFCF84;stroke-miterlimit:10;" cx="319.71" cy="740.224" r="16.604"/>
<circle style="fill:none;stroke:#EFCF84;stroke-miterlimit:10;" cx="220.71" cy="638.224" r="16.604"/>
<path style="fill:#E6E4DA;stroke:#C7C5BC;stroke-miterlimit:10;" d="M529.064,675.12h55.5v66.5c0,0-1.75,16-17.5,16
	s-16.5-16.5-16.5-16.5v-65.5"/>
<line style="fill:none;stroke:#EFCF84;stroke-miterlimit:10;" x1="610.564" y1="695.62" x2="610.564" y2="740.62"/>
<line style="fill:none;stroke:#EFCF84;stroke-miterlimit:10;" x1="624.064" y1="741.12" x2="584.064" y2="741.12"/>
<line style="fill:none;stroke:#EFCF84;stroke-miterlimit:10;" x1="611.064" y1="704.12" x2="585.064" y2="704.12"/>
<line style="fill:none;stroke:#EFCF84;stroke-miterlimit:10;" x1="611.064" y1="714.12" x2="585.064" y2="714.12"/>
<line style="fill:none;stroke:#EFCF84;stroke-miterlimit:10;" x1="611.064" y1="723.12" x2="585.064" y2="723.12"/>
<line style="fill:none;stroke:#EFCF84;stroke-miterlimit:10;" x1="611.064" y1="732.12" x2="585.064" y2="732.12"/>
<path style="fill:none;stroke:#EFCF84;stroke-miterlimit:10;" d="M585.064,675.12h42.989c0,0,29.672,1.833,29.006,65.5"/>
<circle style="fill:none;stroke:#EFCF84;stroke-miterlimit:10;" cx="640.407" cy="740.224" r="16.604"/>
<polyline style="fill:none;stroke:#EFCF84;stroke-miterlimit:10;" points="385.064,616.12 328.064,617.12 256.064,655.12 
	220.064,655.12 "/>
<circle style="fill:none;stroke:#EFCF84;stroke-miterlimit:10;" cx="741.46" cy="638.224" r="16.604"/>
<polyline style="fill:none;stroke:#EFCF84;stroke-miterlimit:10;" points="577.064,617.12 634.106,617.12 706.106,655.12 
	742.064,655.12 "/>
<polygon style="fill:#E6E4DA;stroke:#C7C5BC;stroke-miterlimit:10;" points="764.564,94.62 764.564,125.12 847.564,125.12 
	847.564,358.12 566.564,358.12 566.564,200.12 392.564,200.12 392.564,358.12 109.064,358.12 111.064,123.12 197.564,123.12 
	197.564,92.62 "/>
<rect x="609.564" y="359.12" style="fill:#E6E4DA;stroke:#C7C5BC;stroke-miterlimit:10;" width="160" height="81"/>
<polyline style="fill:none;stroke:#EFCF84;stroke-miterlimit:10;" points="392.564,358.62 392.564,407.12 382.064,407.12 "/>
<polyline style="fill:none;stroke:#EFCF84;stroke-miterlimit:10;" points="566.564,358.62 566.564,406.12 610.064,406.12 "/>
<polyline style="fill:none;stroke:#EFCF84;stroke-miterlimit:10;" points="610.064,440.12 575.564,440.12 575.564,457.62 "/>
<line style="fill:none;stroke:#EFCF84;stroke-miterlimit:10;" x1="108.564" y1="358.62" x2="108.564" y2="419.62"/>
<line style="fill:none;stroke:#EFCF84;stroke-miterlimit:10;" x1="847.564" y1="358.62" x2="847.564" y2="413.62"/>
<line style="fill:none;stroke:#EFCF84;stroke-miterlimit:10;" x1="770.064" y1="440.12" x2="779.064" y2="440.12"/>
<line style="fill:none;stroke:#EFCF84;stroke-miterlimit:10;" x1="847.064" y1="125.12" x2="884.064" y2="125.12"/>
<line style="fill:none;stroke:#EFCF84;stroke-miterlimit:10;" x1="111.064" y1="123.12" x2="93.064" y2="123.12"/>
<g>
	<g>
		<g>
			<circle style="fill:#FFFFFF;" cx="766.064" cy="43.458" r="11.774"/>
		</g>
		<g>
			<path style="fill:#323333;" d="M766.064,55.732c-6.768,0-12.274-5.506-12.274-12.274s5.506-12.274,12.274-12.274
				s12.274,5.506,12.274,12.274S772.832,55.732,766.064,55.732z M766.064,32.183c-6.217,0-11.274,5.058-11.274,11.274
				s5.058,11.274,11.274,11.274s11.274-5.058,11.274-11.274S772.281,32.183,766.064,32.183z"/>
		</g>
	</g>
	<g>
		<g>
			<g>
				<path style="fill:#323333;" d="M765.245,36.906c0,0.731,0.582,1.323,1.299,1.323s1.299-0.592,1.299-1.323
					s-0.582-1.323-1.299-1.323S765.245,36.176,765.245,36.906L765.245,36.906z"/>
			</g>
		</g>
		<g>
			<g>
				<path style="fill:#323333;" d="M769.403,41.872c0.115-0.493-0.554-2.521-0.554-2.521c-0.075-0.191-0.431-0.777-1.433-0.783
					l-1.957,0.006c-0.971-0.054-1.329,0.502-1.419,0.795c0,0-0.65,2.043-0.542,2.503c0.072,0.302,0.612,0.673,1.18,0.944
					l-1.193,3.638l1.746-0.005l0.005,4.414c0.034,0.34,0.27,0.464,0.56,0.464c0.289,0,0.526-0.114,0.559-0.454h0.18
					c0.034,0.34,0.269,0.46,0.559,0.46c0.29,0,0.525-0.128,0.56-0.467l0.005-4.417l1.861,0.002l-1.135-3.714
					C768.889,42.476,769.338,42.145,769.403,41.872L769.403,41.872z"/>
			</g>
		</g>
	</g>
</g>
<g>
	<g>
		<g>
			<circle style="fill:#FFFFFF;" cx="195.106" cy="43.839" r="11.774"/>
		</g>
		<g>
			<path style="fill:#323333;" d="M195.106,56.113c-6.768,0-12.274-5.506-12.274-12.274s5.506-12.274,12.274-12.274
				s12.274,5.506,12.274,12.274S201.874,56.113,195.106,56.113z M195.106,32.564c-6.217,0-11.274,5.058-11.274,11.274
				s5.058,11.274,11.274,11.274s11.274-5.058,11.274-11.274S201.322,32.564,195.106,32.564z"/>
		</g>
	</g>
	<g>
		<g>
			<g>
				<g>
					<path style="fill:#323333;" d="M193.761,37.264c0,0.734,0.595,1.328,1.328,1.328s1.328-0.595,1.328-1.328
						c0-0.734-0.595-1.328-1.328-1.328S193.761,36.531,193.761,37.264L193.761,37.264z"/>
				</g>
			</g>
			<g>
				<g>
					<path style="fill:#323333;" d="M197.951,40.352c0,0,0.075-1.483-1.49-1.483h-2.714c-1.51,0-1.498,1.37-1.5,1.483l0.001,4.21
						c0.025,0.227,0.249,0.486,0.527,0.486c0.277,0,0.48-0.251,0.505-0.478l0.471,6.704c0.035,0.341,0.276,0.468,0.572,0.468
						s0.536-0.127,0.571-0.468h0.419c0.036,0.341,0.276,0.468,0.571,0.468c0.297,0,0.537-0.127,0.573-0.468l0.485-6.708
						c0,0.228,0.221,0.484,0.498,0.484s0.499-0.26,0.523-0.487L197.951,40.352z"/>
				</g>
			</g>
		</g>
	</g>
</g>
<g>
	<g>
		<g>
			<circle style="fill:#FFFFFF;" cx="420.064" cy="343.644" r="11.774"/>
		</g>
		<g>
			<path style="fill:#323333;" d="M420.064,355.919c-6.768,0-12.274-5.506-12.274-12.274s5.506-12.274,12.274-12.274
				s12.275,5.506,12.275,12.274S426.832,355.919,420.064,355.919z M420.064,332.37c-6.217,0-11.274,5.058-11.274,11.274
				s5.058,11.274,11.274,11.274c6.217,0,11.275-5.058,11.275-11.274S426.281,332.37,420.064,332.37z"/>
		</g>
	</g>
	<g>
		<g>
			<g>
				<g>
					<path style="fill:#323333;" d="M419.947,338.968h0.233c0.737,0,1.334-0.597,1.334-1.334s-0.597-1.334-1.334-1.334h-0.233
						c-0.737,0-1.334,0.597-1.334,1.334C418.613,338.37,419.21,338.968,419.947,338.968z"/>
				</g>
			</g>
			<g>
				<g>
					<path style="fill:#323333;" d="M420.178,340.445h-0.228c-0.738,0-1.337,0.599-1.337,1.337v7.87
						c0,0.738,0.599,1.337,1.337,1.337h0.228c0.738,0,1.337-0.599,1.337-1.337v-7.87
						C421.515,341.043,420.916,340.445,420.178,340.445z"/>
				</g>
			</g>
		</g>
	</g>
</g>
<g>
	<g>
		<g>
			<circle style="fill:#FFFFFF;" cx="373.064" cy="385.804" r="11.774"/>
		</g>
		<g>
			<path style="fill:#323333;" d="M373.064,398.078c-6.769,0-12.274-5.506-12.274-12.274s5.506-12.274,12.274-12.274
				s12.274,5.506,12.274,12.274S379.833,398.078,373.064,398.078z M373.064,374.53c-6.217,0-11.274,5.058-11.274,11.274
				s5.058,11.274,11.274,11.274s11.274-5.058,11.274-11.274S379.281,374.53,373.064,374.53z"/>
		</g>
	</g>
	<g>
		<g>
			<g>
				<g>
					<path style="fill:#323333;" d="M373.778,388.648c-0.234-0.234-0.602-0.266-0.873-0.076l-2.158,1.433v-9.854
						c0-0.377-0.305-0.682-0.682-0.682c-0.002,0-0.003,0.001-0.004,0.001c-0.002,0-0.003-0.001-0.004-0.001
						c-0.377,0-0.682,0.305-0.682,0.682v9.854l-2.158-1.433c-0.271-0.19-0.639-0.157-0.873,0.076l-0.126,0.126
						c-0.266,0.266-0.266,0.698,0,0.964l3.29,2.201c0.159,0.159,0.361,0.217,0.552,0.196c0.001,0,0.001,0,0.001,0
						c0.001,0,0.002,0,0.002,0c0.191,0.021,0.393-0.037,0.552-0.197l3.29-2.201c0.266-0.266,0.266-0.698,0-0.964L373.778,388.648z"
						/>
				</g>
			</g>
			<g>
				<g>
					<path style="fill:#323333;" d="M381.273,381.87l-3.29-2.201c-0.159-0.159-0.361-0.217-0.552-0.196c-0.001,0-0.001,0-0.002,0
						c-0.001,0-0.001,0-0.002,0c-0.19-0.021-0.392,0.037-0.552,0.196l-3.29,2.201c-0.266,0.266-0.266,0.698,0,0.964l0.126,0.126
						c0.234,0.234,0.602,0.266,0.873,0.076l2.158-1.433v9.854c0,0.377,0.305,0.682,0.682,0.682c0.002,0,0.003-0.001,0.004-0.001
						c0.002,0,0.003,0.001,0.004,0.001c0.377,0,0.682-0.305,0.682-0.682v-9.854l2.158,1.433c0.271,0.19,0.639,0.158,0.873-0.076
						l0.126-0.126C381.54,382.568,381.54,382.136,381.273,381.87z"/>
				</g>
			</g>
		</g>
	</g>
</g>
<g>
	<g>
		<circle style="fill:#FFFFFF;" cx="133.564" cy="42.062" r="11.774"/>
		<path style="fill:#323333;" d="M133.564,54.337c-6.769,0-12.274-5.506-12.274-12.274s5.506-12.274,12.274-12.274
			s12.274,5.506,12.274,12.274S140.333,54.337,133.564,54.337z M133.564,30.788c-6.217,0-11.274,5.058-11.274,11.274
			s5.058,11.274,11.274,11.274s11.274-5.058,11.274-11.274S139.781,30.788,133.564,30.788z"/>
	</g>
	<g>
		<g>
			<g id="XMLID_20_">
				<circle style="fill:#323333;" cx="133.482" cy="35.487" r="1.782"/>
			</g>
			<g id="XMLID_19_">
				<path style="fill:#323333;" d="M131.7,39.104c0,0,1.836-2.052,3.564,0l0.648,2.268h1.836c0.298,0,0.54,0.242,0.54,0.54l0,0
					c0,0.298-0.242,0.54-0.54,0.54l-2.145-0.094c-0.376-0.016-0.703-0.261-0.825-0.617l-0.365-1.152c0,0-0.891-0.381-0.486,0.591
					c0.405,0.972,0.526,1.758,0.526,1.758s0.648,1.053,1.539,1.053s2.349-0.567,2.916,0.891c0.376,0.966,0.893,2.145,1.2,2.831
					c0.146,0.327,0.02,0.708-0.29,0.888l-0.278,0.161c-0.374,0.216-0.852,0.046-1.005-0.358l-1.085-2.873l-3.969-0.324
					c0,0-1.49,0.025-1.782-1.522C131.376,41.966,131.7,39.104,131.7,39.104z"/>
			</g>
			<g id="XMLID_18_">
				<path style="fill:#323333;" d="M131.784,50.545c-2.444,0-4.434-1.972-4.434-4.395s1.989-4.395,4.434-4.395
					s4.433,1.972,4.433,4.395S134.228,50.545,131.784,50.545z M131.784,43.255c-1.617,0-2.934,1.299-2.934,2.895
					s1.316,2.895,2.934,2.895s2.933-1.299,2.933-2.895S133.401,43.255,131.784,43.255z"/>
			</g>
		</g>
	</g>
</g>
<g>
	<g>
		<circle style="fill:#FFFFFF;" cx="419.564" cy="397.578" r="11.774"/>
		<path style="fill:#323333;" d="M419.564,409.853c-6.769,0-12.274-5.506-12.274-12.274s5.506-12.274,12.274-12.274
			s12.274,5.506,12.274,12.274S426.333,409.853,419.564,409.853z M419.564,386.304c-6.217,0-11.274,5.058-11.274,11.274
			s5.058,11.274,11.274,11.274s11.274-5.058,11.274-11.274S425.781,386.304,419.564,386.304z"/>
	</g>
	<g>
		<g>
			<g id="XMLID_23_">
				<circle style="fill:#323333;" cx="419.482" cy="391.003" r="1.782"/>
			</g>
			<g id="XMLID_22_">
				<path style="fill:#323333;" d="M417.7,394.62c0,0,1.836-2.052,3.564,0l0.648,2.268h1.836c0.298,0,0.54,0.242,0.54,0.54l0,0
					c0,0.298-0.242,0.54-0.54,0.54l-2.145-0.094c-0.376-0.016-0.703-0.261-0.825-0.617l-0.365-1.152c0,0-0.891-0.381-0.486,0.591
					s0.526,1.758,0.526,1.758s0.648,1.053,1.539,1.053s2.349-0.567,2.916,0.891c0.376,0.966,0.893,2.145,1.2,2.831
					c0.146,0.327,0.02,0.708-0.29,0.888l-0.278,0.161c-0.374,0.216-0.852,0.046-1.005-0.358l-1.085-2.873l-3.969-0.324
					c0,0-1.49,0.025-1.782-1.522C417.376,397.482,417.7,394.62,417.7,394.62z"/>
			</g>
			<g id="XMLID_21_">
				<path style="fill:#323333;" d="M417.784,406.061c-2.444,0-4.434-1.972-4.434-4.395s1.989-4.395,4.434-4.395
					s4.433,1.972,4.433,4.395S420.228,406.061,417.784,406.061z M417.784,398.771c-1.617,0-2.934,1.299-2.934,2.895
					s1.316,2.895,2.934,2.895s2.933-1.299,2.933-2.895S419.401,398.771,417.784,398.771z"/>
			</g>
		</g>
	</g>
</g>
<g>
	<g>
		<circle style="fill:#FFFFFF;" cx="828.064" cy="42.062" r="11.774"/>
		<path style="fill:#323333;" d="M828.064,54.337c-6.769,0-12.274-5.506-12.274-12.274s5.506-12.274,12.274-12.274
			s12.274,5.506,12.274,12.274S834.833,54.337,828.064,54.337z M828.064,30.788c-6.217,0-11.274,5.058-11.274,11.274
			s5.058,11.274,11.274,11.274s11.274-5.058,11.274-11.274S834.281,30.788,828.064,30.788z"/>
	</g>
	<g>
		<g>
			<g id="XMLID_17_">
				<circle style="fill:#323333;" cx="827.982" cy="35.487" r="1.782"/>
			</g>
			<g id="XMLID_3_">
				<path style="fill:#323333;" d="M826.2,39.104c0,0,1.836-2.052,3.564,0l0.648,2.268h1.836c0.298,0,0.54,0.242,0.54,0.54l0,0
					c0,0.298-0.242,0.54-0.54,0.54l-2.145-0.094c-0.376-0.016-0.703-0.261-0.825-0.617l-0.365-1.152c0,0-0.891-0.381-0.486,0.591
					c0.405,0.972,0.526,1.758,0.526,1.758s0.648,1.053,1.539,1.053s2.349-0.567,2.916,0.891c0.376,0.966,0.893,2.145,1.2,2.831
					c0.146,0.327,0.02,0.708-0.29,0.888l-0.278,0.161c-0.374,0.216-0.852,0.046-1.005-0.358l-1.085-2.873l-3.969-0.324
					c0,0-1.49,0.025-1.782-1.522C825.876,41.966,826.2,39.104,826.2,39.104z"/>
			</g>
			<g id="XMLID_2_">
				<path style="fill:#323333;" d="M826.284,50.545c-2.444,0-4.434-1.972-4.434-4.395s1.989-4.395,4.434-4.395
					s4.433,1.972,4.433,4.395S828.728,50.545,826.284,50.545z M826.284,43.255c-1.617,0-2.934,1.299-2.934,2.895
					s1.316,2.895,2.934,2.895s2.933-1.299,2.933-2.895S827.901,43.255,826.284,43.255z"/>
			</g>
		</g>
	</g>
</g>
<g>
	<g>
		<g>
			<circle style="fill:#FFFFFF;" cx="480.064" cy="56.732" r="11.774"/>
		</g>
		<g>
			<path style="fill:#323333;" d="M480.064,69.007c-6.768,0-12.274-5.506-12.274-12.274s5.506-12.274,12.274-12.274
				s12.274,5.506,12.274,12.274S486.832,69.007,480.064,69.007z M480.064,45.458c-6.217,0-11.274,5.058-11.274,11.274
				s5.058,11.274,11.274,11.274s11.274-5.058,11.274-11.274S486.281,45.458,480.064,45.458z"/>
		</g>
	</g>
	<g>
		<g>
			<path style="fill:#323333;" d="M480.534,50.759c0,0.663,0.528,1.2,1.178,1.2c0.651,0,1.178-0.537,1.178-1.2
				c0-0.663-0.527-1.2-1.178-1.2C481.062,49.558,480.534,50.096,480.534,50.759L480.534,50.759z"/>
		</g>
	</g>
	<g>
		<path style="fill:#323333;" d="M480.495,52.521l0.9,4.917c0,0,0.225,1.085,1.2,1.085s2.1,0,2.1,0s0.6-0.3,0.9,0.975
			s1.05,3.188,1.05,3.188h1.275l-0.9-5.082c0,0,0.075-1.181-1.575-1.181c-1.65,0-1.8-2.25-1.8-2.25S482.67,51.771,480.495,52.521z"
			/>
	</g>
	<g>
		<g>
			<path style="fill:#323333;" d="M479.823,50.759c0-0.663-0.528-1.2-1.178-1.2c-0.651,0-1.178,0.537-1.178,1.2
				c0,0.663,0.528,1.2,1.178,1.2C479.295,51.959,479.823,51.422,479.823,50.759L479.823,50.759z"/>
		</g>
	</g>
	<g>
		<path style="fill:#323333;" d="M479.862,52.521l-0.9,4.917c0,0-0.225,1.085-1.2,1.085s-2.1,0-2.1,0s-0.6-0.3-0.9,0.975
			s-1.05,3.188-1.05,3.188h-1.275l0.9-5.082c0,0-0.075-1.181,1.575-1.181c1.65,0,1.8-2.25,1.8-2.25S477.687,51.771,479.862,52.521z"
			/>
	</g>
	<g>
		<rect x="475.269" y="58.523" style="fill:#323333;" width="9.597" height="1.313"/>
	</g>
</g>
<g>
	<g>
		<g>
			<circle style="fill:#FFFFFF;" cx="791.064" cy="43.524" r="11.774"/>
		</g>
		<g>
			<path style="fill:#323333;" d="M791.064,55.799c-6.768,0-12.274-5.506-12.274-12.274s5.506-12.274,12.274-12.274
				s12.274,5.506,12.274,12.274S797.832,55.799,791.064,55.799z M791.064,32.25c-6.217,0-11.274,5.058-11.274,11.274
				s5.058,11.274,11.274,11.274s11.274-5.058,11.274-11.274S797.281,32.25,791.064,32.25z"/>
		</g>
	</g>
	<g>
		<path style="fill:#323333;" d="M793.457,42.895l0.32,1.817c0.058,0.406-0.257,0.77-0.668,0.77l-1.968,0.25
			c-0.372,0-0.674,0.302-0.674,0.674l0.115,4.182c0,0.178,0.448,0.553,0.814,0.56c0.44,0.008,0.722-0.289,0.722-0.484v-2.557
			c0-0.543,0.44-0.983,0.983-0.983h2.578c0.819,0,1.463-0.701,1.394-1.517l-0.491-5.765c-0.025-0.289-0.134-0.565-0.325-0.785
			c-0.416-0.48-1.264-1.082-2.466-0.103c-1.147,0.935-1.768,1.741-2.062,2.188c-0.157,0.239-0.413,0.39-0.699,0.41l-1.453,0.104
			c-0.283,0.02-0.502,0.255-0.502,0.539l0,0c0,0.298,0.242,0.54,0.54,0.54h2.255c0.157,0,0.306-0.068,0.408-0.186l0,0
			C792.659,42.111,793.376,42.322,793.457,42.895z"/>
	</g>
	<g>
		<path style="fill:#323333;" d="M797.333,47.036h-5.047c0,0-0.354,0.565,0,0.739s2.005,0.217,1.875,3.607h3.563v-4.345h-0.391
			V47.036z"/>
	</g>
	<g>
		<path style="fill:#323333;" d="M788.925,47.412h-4.84c-0.276,0-0.5-0.224-0.5-0.5v-5.41c0-0.276,0.224-0.5,0.5-0.5
			s0.5,0.224,0.5,0.5v4.91h4.34c0.276,0,0.5,0.224,0.5,0.5S789.202,47.412,788.925,47.412z"/>
	</g>
	<g>
		<circle style="fill:#323333;" cx="793.774" cy="36.646" r="1.646"/>
	</g>
	<g>
		<circle style="fill:#323333;" cx="786.236" cy="39.872" r="1.157"/>
	</g>
	<g>
		<path style="fill:#323333;" d="M785.95,41.368c-0.113-0.01-0.224,0.011-0.326,0.06c-0.337,0.161-1.043,0.596-0.968,1.393
			c0.085,0.908,0.018,2.534-0.001,2.938c-0.004,0.086,0.007,0.17,0.042,0.249c0.105,0.238,0.447,0.668,1.539,0.692
			c0.845,0.018,1.584,0.016,2.072,0.011c0.343-0.004,0.617-0.282,0.617-0.625v-0.245c0-0.325-0.249-0.596-0.572-0.623l-0.791-0.067
			c-0.095-0.008-0.168-0.088-0.168-0.183v-1.452c0-0.333,0.261-0.608,0.594-0.625l0.099-0.005c0.339-0.017,0.603-0.301,0.594-0.641
			l-0.002-0.085c-0.008-0.318-0.255-0.58-0.572-0.607L785.95,41.368z"/>
	</g>
</g>
<g>
	<g>
		<g>
			<circle style="fill:#FFFFFF;" cx="169.339" cy="43.524" r="11.774"/>
		</g>
		<g>
			<path style="fill:#323333;" d="M169.338,55.799c-6.768,0-12.274-5.506-12.274-12.274s5.506-12.274,12.274-12.274
				s12.274,5.506,12.274,12.274S176.106,55.799,169.338,55.799z M169.338,32.25c-6.217,0-11.274,5.058-11.274,11.274
				s5.058,11.274,11.274,11.274s11.274-5.058,11.274-11.274S175.555,32.25,169.338,32.25z"/>
		</g>
	</g>
	<g>
		<path style="fill:#323333;" d="M171.732,42.895l0.32,1.817c0.058,0.406-0.257,0.77-0.668,0.77l-1.968,0.25
			c-0.372,0-0.674,0.302-0.674,0.674l0.115,4.182c0,0.178,0.448,0.553,0.814,0.56c0.44,0.008,0.722-0.289,0.722-0.484v-2.557
			c0-0.543,0.44-0.983,0.983-0.983h2.578c0.819,0,1.463-0.701,1.394-1.517l-0.491-5.765c-0.025-0.289-0.134-0.565-0.325-0.785
			c-0.416-0.48-1.264-1.082-2.466-0.103c-1.147,0.935-1.768,1.741-2.062,2.188c-0.157,0.239-0.413,0.39-0.699,0.41l-1.453,0.104
			c-0.283,0.02-0.502,0.255-0.502,0.539l0,0c0,0.298,0.242,0.54,0.54,0.54h2.255c0.157,0,0.306-0.068,0.408-0.186l0,0
			C170.933,42.111,171.65,42.322,171.732,42.895z"/>
	</g>
	<g>
		<path style="fill:#323333;" d="M175.607,47.036h-5.047c0,0-0.354,0.565,0,0.739s2.005,0.217,1.875,3.607h3.563v-4.345h-0.391
			V47.036z"/>
	</g>
	<g>
		<path style="fill:#323333;" d="M167.2,47.412h-4.84c-0.276,0-0.5-0.224-0.5-0.5v-5.41c0-0.276,0.224-0.5,0.5-0.5
			s0.5,0.224,0.5,0.5v4.91h4.34c0.276,0,0.5,0.224,0.5,0.5S167.476,47.412,167.2,47.412z"/>
	</g>
	<g>
		<circle style="fill:#323333;" cx="172.048" cy="36.646" r="1.646"/>
	</g>
	<g>
		<circle style="fill:#323333;" cx="164.51" cy="39.872" r="1.157"/>
	</g>
	<g>
		<path style="fill:#323333;" d="M164.225,41.368c-0.113-0.01-0.224,0.011-0.326,0.06c-0.337,0.161-1.043,0.596-0.968,1.393
			c0.085,0.908,0.018,2.534-0.001,2.938c-0.004,0.086,0.007,0.17,0.042,0.249c0.105,0.238,0.447,0.668,1.539,0.692
			c0.845,0.018,1.584,0.016,2.072,0.011c0.343-0.004,0.617-0.282,0.617-0.625v-0.245c0-0.325-0.249-0.596-0.572-0.623l-0.791-0.067
			c-0.095-0.008-0.168-0.088-0.168-0.183v-1.452c0-0.333,0.261-0.608,0.594-0.625l0.1-0.005c0.339-0.017,0.603-0.301,0.594-0.641
			l-0.002-0.085c-0.008-0.318-0.255-0.58-0.572-0.607L164.225,41.368z"/>
	</g>
</g>
<g>
	<g>
		<g>
			<circle style="fill:#FFFFFF;" cx="481.064" cy="480.839" r="11.774"/>
		</g>
		<g>
			<path style="fill:#323333;" d="M481.064,493.113c-6.768,0-12.274-5.506-12.274-12.274s5.506-12.274,12.274-12.274
				s12.274,5.506,12.274,12.274S487.832,493.113,481.064,493.113z M481.064,469.564c-6.217,0-11.274,5.058-11.274,11.274
				s5.058,11.274,11.274,11.274s11.274-5.058,11.274-11.274S487.281,469.564,481.064,469.564z"/>
		</g>
	</g>
	<g>
		<path style="fill:#323333;" d="M481.473,481.707c1.425,0,2.742,0.57,3.678,1.534l-1.221,1.221
			c-0.638-0.638-1.493-1.018-2.457-1.018s-1.819,0.38-2.456,1.018l-1.222-1.221C478.732,482.277,480.048,481.707,481.473,481.707
			L481.473,481.707z M475.325,480.771c1.656-1.629,3.814-2.538,6.148-2.538s4.492,0.909,6.148,2.538l-1.235,1.235
			c-1.303-1.303-3.067-2.036-4.913-2.036s-3.61,0.733-4.913,2.036L475.325,480.771z M486.21,475.709
			c1.452,0.611,2.741,1.506,3.868,2.606l-1.235,1.235c-1.968-1.968-4.587-3.054-7.369-3.054s-5.401,1.086-7.369,3.054l-1.235-1.235
			c1.126-1.099,2.416-1.995,3.868-2.606c1.506-0.611,3.081-0.95,4.736-0.95S484.704,475.098,486.21,475.709L486.21,475.709z
			 M480.605,486.05c0-0.489,0.38-0.869,0.869-0.869s0.869,0.38,0.869,0.869s-0.38,0.869-0.869,0.869S480.605,486.539,480.605,486.05
			L480.605,486.05z"/>
	</g>
</g>
<g>
	<g>
		<g>
			<g>
				<circle style="fill:#FFFFFF;" cx="354.064" cy="477.62" r="11.774"/>
			</g>
		</g>
		<g>
			<g>
				<path style="fill:#323333;" d="M354.064,489.894c-6.769,0-12.274-5.506-12.274-12.274s5.506-12.274,12.274-12.274
					s12.274,5.506,12.274,12.274S360.833,489.894,354.064,489.894z M354.064,466.346c-6.217,0-11.274,5.058-11.274,11.274
					s5.058,11.274,11.274,11.274s11.274-5.058,11.274-11.274S360.281,466.346,354.064,466.346z"/>
			</g>
		</g>
	</g>
	<g>
		<path style="fill:#323333;" d="M347.968,480.839v-3.594h5.003v7.188h-5.003V480.839z M355.156,480.839v-3.594h5.003v7.188h-5.003
			V480.839z M347.193,475.412v-1.057h5.778v2.114h-5.778V475.412z M355.156,475.412v-1.057h5.778v2.114h-5.778V475.412z
			 M351.593,474.216c-0.573-0.081-1.555-0.318-1.877-0.454c-0.324-0.136-0.734-0.49-0.867-0.748
			c-0.529-1.023,0.018-2.105,1.151-2.279c0.651-0.1,1.174,0.197,2.275,1.292c1.095,1.089,1.445,1.807,1.017,2.087
			C353.082,474.251,352.213,474.303,351.593,474.216L351.593,474.216z M352.142,473.228c-0.027-0.235-0.567-0.777-1.202-1.203
			c-0.425-0.286-0.572-0.347-0.828-0.347c-0.79,0-0.891,0.906-0.14,1.258c0.558,0.262,1.461,0.5,1.838,0.483
			C352.14,473.405,352.16,473.393,352.142,473.228L352.142,473.228z M355.104,474.221c-0.507-0.131-0.572-0.443-0.219-1.063
			c0.291-0.511,1.741-1.943,2.246-2.218c0.668-0.363,1.478-0.245,1.985,0.292c0.255,0.27,0.34,0.52,0.338,0.998
			c-0.004,1.03-0.611,1.525-2.303,1.877C356.52,474.237,355.409,474.3,355.104,474.221L355.104,474.221z M357.227,473.263
			c0.883-0.256,1.233-0.438,1.362-0.708c0.217-0.456-0.058-0.878-0.574-0.878c-0.256,0-0.404,0.062-0.831,0.348
			c-0.546,0.365-1.254,1.055-1.254,1.222c0,0.054,0.021,0.119,0.047,0.145C356.077,473.491,356.644,473.432,357.227,473.263
			L357.227,473.263z"/>
	</g>
</g>
<g>
	<g>
		<g>
			<g>
				<circle style="fill:#FFFFFF;" cx="431.838" cy="423.12" r="11.774"/>
			</g>
		</g>
		<g>
			<g>
				<path style="fill:#323333;" d="M431.838,435.394c-6.769,0-12.274-5.506-12.274-12.274s5.506-12.274,12.274-12.274
					s12.274,5.506,12.274,12.274S438.607,435.394,431.838,435.394z M431.838,411.846c-6.217,0-11.274,5.058-11.274,11.274
					s5.058,11.274,11.274,11.274s11.274-5.058,11.274-11.274C443.113,416.903,438.055,411.846,431.838,411.846z"/>
			</g>
		</g>
	</g>
	<g>
		<path style="fill:#323333;" d="M437.248,419.937h-1.807v-1.804c0-0.992-0.806-1.799-1.801-1.799h-3.603
			c-1.002,0-1.801,0.805-1.801,1.799v1.804h-1.807c-0.99,0-1.796,0.806-1.796,1.801v6.305c0,1.002,0.804,1.801,1.796,1.801h10.818
			c0.99,0,1.796-0.806,1.796-1.801v-6.305C439.043,420.735,438.239,419.937,437.248,419.937L437.248,419.937z M429.136,428.943
			h-0.901v-8.106h0.901V428.943z M429.136,418.133c0-0.496,0.408-0.899,0.898-0.899h3.608c0.496,0,0.898,0.402,0.898,0.899v1.803
			h-5.404L429.136,418.133L429.136,418.133z M435.441,428.943h-0.901v-8.106h0.901V428.943z"/>
	</g>
</g>
<g>
	<g>
		<g>
			<g>
				<circle style="fill:#FFFFFF;" cx="510.731" cy="332.37" r="11.774"/>
			</g>
		</g>
		<g>
			<g>
				<path style="fill:#323333;" d="M510.731,344.644c-6.769,0-12.274-5.506-12.274-12.274s5.506-12.274,12.274-12.274
					c6.768,0,12.274,5.506,12.274,12.274S517.499,344.644,510.731,344.644z M510.731,321.096c-6.217,0-11.274,5.058-11.274,11.274
					s5.058,11.274,11.274,11.274c6.216,0,11.274-5.058,11.274-11.274C522.005,326.153,516.947,321.096,510.731,321.096z"/>
			</g>
		</g>
	</g>
	<g>
		<path style="fill:#323333;" d="M516.14,329.187h-1.807v-1.804c0-0.992-0.806-1.799-1.801-1.799h-3.603
			c-1.002,0-1.801,0.805-1.801,1.799v1.804h-1.807c-0.99,0-1.796,0.806-1.796,1.801v6.305c0,1.002,0.804,1.801,1.796,1.801h10.818
			c0.99,0,1.796-0.806,1.796-1.801v-6.305C517.936,329.985,517.132,329.187,516.14,329.187L516.14,329.187z M508.029,338.193h-0.901
			v-8.106h0.901V338.193z M508.029,327.383c0-0.496,0.408-0.899,0.898-0.899h3.608c0.496,0,0.898,0.402,0.898,0.899v1.803h-5.404
			L508.029,327.383L508.029,327.383z M514.333,338.193h-0.901v-8.106h0.901V338.193z"/>
	</g>
</g>
<g>
	<g>
		<g>
			<g>
				<circle style="fill:#FFFFFF;" cx="419.064" cy="369.62" r="11.774"/>
			</g>
		</g>
		<g>
			<g>
				<path style="fill:#323333;" d="M419.064,381.894c-6.769,0-12.274-5.506-12.274-12.274s5.506-12.274,12.274-12.274
					s12.274,5.506,12.274,12.274S425.833,381.894,419.064,381.894z M419.064,358.346c-6.217,0-11.274,5.058-11.274,11.274
					s5.058,11.274,11.274,11.274s11.274-5.058,11.274-11.274S425.281,358.346,419.064,358.346z"/>
			</g>
		</g>
	</g>
	<g>
		<path style="fill:#323333;" d="M418.833,378.301c-0.147-0.147-0.322-0.411-0.319-0.834c0.01-1.736,3.435-5.444,6.306-8.25
			c0.153-0.15,0.155-0.323,0.143-0.413c-0.022-0.163-0.121-0.302-0.271-0.382c-2.009-1.088-3.958-3.457-5.24-5.253
			c-0.101-0.142-0.28-0.205-0.431-0.212c-0.165,0.006-0.31,0.089-0.395,0.229c-3.312,5.432-6.391,5.779-6.52,5.792l-0.094-0.996
			l0.047,0.498l-0.052-0.497c0.027-0.003,2.747-0.369,5.765-5.317c0.26-0.425,0.713-0.69,1.212-0.708
			c0.507-0.011,0.985,0.217,1.281,0.631c0.999,1.4,2.965,3.905,4.902,4.955c0.431,0.233,0.717,0.643,0.784,1.123
			c0.066,0.471-0.092,0.933-0.434,1.267c-3.698,3.613-5.999,6.502-6.005,7.54c0,0.035,0.003,0.097,0.026,0.121L418.833,378.301z"/>
	</g>
	<g>
		<g>
			<g>
				<path style="fill:#323333;" d="M422.349,368.339l-2.628-2.116c-0.127-0.153-0.289-0.209-0.441-0.189c-0.001,0-0.001,0-0.002,0
					c0,0-0.001,0-0.002,0c-0.152-0.02-0.313,0.036-0.441,0.189l-2.628,2.116c-0.213,0.256-0.213,0.671,0,0.927l0.1,0.121
					c0.187,0.225,0.481,0.256,0.698,0.073l1.724-1.378v9.472c0,0.362,0.244,0.655,0.545,0.655c0.001,0,0.002-0.001,0.004-0.001
					s0.002,0.001,0.004,0.001c0.301,0,0.545-0.293,0.545-0.655v-9.472l1.724,1.378c0.217,0.182,0.511,0.151,0.698-0.073l0.101-0.121
					C422.562,369.01,422.562,368.595,422.349,368.339z"/>
			</g>
		</g>
	</g>
</g>
<path style="fill:none;stroke:#58A543;stroke-width:10;stroke-linecap:round;stroke-linejoin:round;stroke-miterlimit:10;stroke-dasharray:0,17;" d="
	M522.005,484.462c26.059-17.842,374.059,8.755,387.059,2.457c13-6.299-57-13.382-39-89.84s39-109.459,39-109.459"/>
</svg>
