<?xml version="1.0" encoding="utf-8"?>
<!-- Generator: Adobe Illustrator 21.1.0,  SVG Export Plug-In . SVG Version: 6.00 Build 0)  -->
<svg version="1.1" id="图层_1" xmlns="http://www.w3.org/2000/svg" xmlns:xlink="http://www.w3.org/1999/xlink" x="0px" y="0px"
	 width="1201.359px" height="1014.101px" viewBox="0 0 1201.359 1014.101" style="enable-background:new 0 0 1201.359 1014.101;"
	 xml:space="preserve">
<polygon style="fill:#E6E4DA;stroke:#C7C5BC;stroke-miterlimit:10;" points="1087.498,322.981 1087.498,312.981 1076.498,322.981 
	"/>
<polygon style="fill:#FFEADD;stroke:#EFCF84;stroke-miterlimit:10;" points="288.998,768.731 304.998,768.731 304.998,804.731 
	327.998,804.731 328.165,860.148 317.998,860.731 291.998,887.731 277.998,898.731 266.998,902.731 271.039,931.897 
	226.998,939.509 226.998,842.731 274.998,842.731 274.998,782.731 288.998,782.731 "/>
<line style="fill:none;stroke:#EFCF84;stroke-miterlimit:10;" x1="1065.498" y1="323.731" x2="1078.498" y2="323.731"/>
<line style="fill:none;stroke:#EFCF84;stroke-miterlimit:10;" x1="202.998" y1="816.231" x2="202.998" y2="841.231"/>
<line style="fill:none;stroke:#EFCF84;stroke-miterlimit:10;" x1="202.998" y1="852.231" x2="202.998" y2="884.231"/>
<line style="fill:none;stroke:#EFCF84;stroke-miterlimit:10;" x1="176.498" y1="884.731" x2="208.498" y2="884.731"/>
<line style="fill:none;stroke:#EFCF84;stroke-miterlimit:10;" x1="164.498" y1="831.731" x2="175.498" y2="831.731"/>
<line style="fill:none;stroke:#EFCF84;stroke-miterlimit:10;" x1="184.498" y1="831.731" x2="202.498" y2="831.731"/>
<line style="fill:none;stroke:#EFCF84;stroke-miterlimit:10;" x1="314.998" y1="805.231" x2="314.998" y2="843.231"/>
<line style="fill:none;stroke:#EFCF84;stroke-miterlimit:10;" x1="327.998" y1="788.231" x2="327.998" y2="806.231"/>
<g>
	<path style="fill:#FEF8DE;stroke:#EFCF84;stroke-miterlimit:10;" d="M343.525,566.909l-25.527,39.822l-8,6l-26,15l-83,14l-30-137
		v-165h198v51h18c0,0,2-18,23-18c0,0,24,1,26,24h20v-64h-16v-66l10-8v-26h-46l-1-169h41v-15h129v14h20v37h21v95l37-1v66h96v-49h83
		v49l259-1l11,12v202h27v70h-69v29h-34v-9h-161v13h-55v-42h-41v42h-57v-12l-159,1v7l-34-1v-27h-73v-68h12v-68h-20c0,0,2,24-25,24
		c0,0-21,4-24-20h-19v117l-4.823,7.524"/>
	<rect x="170.998" y="339.731" style="fill:#E6E4DA;stroke:#C7C5BC;stroke-miterlimit:10;" width="110" height="11"/>
	<polygon style="fill:#E6E4DA;stroke:#C7C5BC;stroke-miterlimit:10;" points="306.498,339.231 306.498,350.231 310.498,350.231 
		310.498,377.231 338.498,377.231 338.498,358.231 368.498,358.231 368.498,350.231 368.498,344.231 368.498,339.231 	"/>
	<polygon style="fill:#E6E4DA;stroke:#C7C5BC;stroke-miterlimit:10;" points="191.498,600.231 224.498,600.231 224.498,611.231 
		312.498,611.231 283.498,629.231 200.498,642.231 	"/>
	<rect x="403.498" y="100.231" style="fill:#E6E4DA;stroke:#C7C5BC;stroke-miterlimit:10;" width="84" height="10"/>
	<rect x="529.498" y="100.231" style="fill:#E6E4DA;stroke:#C7C5BC;stroke-miterlimit:10;" width="84" height="10"/>
	<rect x="474.498" y="282.231" style="fill:#E7E3D9;stroke:#EFCF84;stroke-miterlimit:10;" width="13" height="15"/>
	<rect x="474.498" y="318.231" style="fill:#E7E3D9;stroke:#EFCF84;stroke-miterlimit:10;" width="7" height="13"/>
	<path style="fill:#E6E4DA;stroke:#C7C5BC;stroke-miterlimit:10;" d="M513.498,259.231c1,0,39,0,39,0l-6,14h-7v10h-12l-14-14
		V259.231z"/>
	<polygon style="fill:#E6E4DA;stroke:#C7C5BC;stroke-miterlimit:10;" points="592.498,260.231 610.498,260.231 605.498,273.231 
		598.498,273.231 	"/>
	<polygon style="fill:#E6E4DA;stroke:#C7C5BC;stroke-miterlimit:10;" points="650.498,260.231 668.498,260.231 663.498,273.231 
		656.498,273.231 	"/>
	<polygon style="fill:#E6E4DA;stroke:#C7C5BC;stroke-miterlimit:10;" points="668.498,320.231 650.498,320.231 655.498,303.231 
		662.498,303.231 	"/>
	<polygon style="fill:#E6E4DA;stroke:#C7C5BC;stroke-miterlimit:10;" points="611.498,320.231 593.498,320.231 598.498,303.231 
		605.498,303.231 	"/>
	<polygon style="fill:#E6E4DA;stroke:#C7C5BC;stroke-miterlimit:10;" points="708.498,260.231 714.498,273.231 721.498,273.231 
		722.498,270.631 722.498,260.231 	"/>
	<polygon style="fill:#E6E4DA;stroke:#C7C5BC;stroke-miterlimit:10;" points="720.498,303.231 713.498,303.231 708.498,320.231 
		722.498,320.231 722.498,308.898 	"/>
	<polygon style="fill:#E6E4DA;stroke:#C7C5BC;stroke-miterlimit:10;" points="493.498,313.231 493.498,331.231 519.498,331.231 
		519.498,395.231 534.498,395.231 534.498,377.231 606.498,377.231 606.498,320.231 552.498,320.231 547.498,303.231 
		539.498,303.231 539.498,295.231 526.498,295.231 515.498,308.231 498.498,308.231 	"/>
	<g>
		<polygon style="fill:#E6E4DA;stroke:#C7C5BC;stroke-miterlimit:10;" points="606.498,377.231 622.498,377.231 606.498,393.231 		
			"/>
		<polygon style="fill:#E6E4DA;stroke:#C7C5BC;stroke-miterlimit:10;" points="656.498,377.231 656.498,393.231 640.498,377.231 		
			"/>
	</g>
	<g>
		<polygon style="fill:#E6E4DA;stroke:#C7C5BC;stroke-miterlimit:10;" points="656.498,427.231 640.498,427.231 656.498,411.231 		
			"/>
		<polygon style="fill:#E6E4DA;stroke:#C7C5BC;stroke-miterlimit:10;" points="606.498,427.231 606.498,411.231 622.498,427.231 		
			"/>
	</g>
	<polygon style="fill:#E6E4DA;stroke:#C7C5BC;stroke-miterlimit:10;" points="920.498,321.231 822.498,321.231 822.498,378.231 
		909.498,378.231 920.498,367.231 	"/>
	<polygon style="fill:#E6E4DA;stroke:#C7C5BC;stroke-miterlimit:10;" points="606.498,427.231 534.498,427.231 534.498,408.231 
		518.498,408.231 518.498,475.231 530.498,475.231 530.498,518.231 551.498,518.231 551.498,485.231 606.498,485.231 	"/>
	<polygon style="fill:#FFEADD;stroke:#EFCF84;stroke-miterlimit:10;" points="852.498,321.231 656.498,321.231 656.498,341.231 
		656.498,349.231 656.498,377.231 754.498,377.231 754.498,349.231 852.498,349.231 	"/>
	<polygon style="fill:#E6E4DA;stroke:#C7C5BC;stroke-miterlimit:10;" points="969.498,321.231 969.498,367.231 980.498,378.231 
		1035.498,378.231 1035.498,321.231 	"/>
	<polygon style="fill:#E6E4DA;stroke:#C7C5BC;stroke-miterlimit:10;" points="1035.498,259.231 1035.498,269.231 1046.498,259.231 	
		"/>
	<polygon style="fill:#E6E4DA;stroke:#C7C5BC;stroke-miterlimit:10;" points="1035.498,320.481 1045.498,320.481 1035.498,309.481 	
		"/>
	<polygon style="fill:#E6E4DA;stroke:#C7C5BC;stroke-miterlimit:10;" points="1035.498,473.231 1035.498,427.231 980.498,427.231 
		969.498,438.231 969.498,484.231 1035.498,484.231 1043.498,484.231 1043.498,473.231 	"/>
	<rect x="842.498" y="517.231" style="fill:#E6E4DA;stroke:#C7C5BC;stroke-miterlimit:10;" width="21" height="16"/>
	<rect x="710.498" y="485.231" style="fill:#E6E4DA;stroke:#C7C5BC;stroke-miterlimit:10;" width="19" height="17"/>
	<rect x="711.498" y="516.231" style="fill:#E6E4DA;stroke:#C7C5BC;stroke-miterlimit:10;" width="19" height="17"/>
	<rect x="656.498" y="427.231" style="fill:#FFEADD;stroke:#EFCF84;stroke-miterlimit:10;" width="97" height="57"/>
	<rect x="746.498" y="411.231" style="fill:#E6E4DA;stroke:#C7C5BC;stroke-miterlimit:10;" width="7" height="16"/>
	<rect x="711.498" y="534.231" style="fill:#FFEADD;stroke:#EFCF84;stroke-miterlimit:10;" width="56" height="41"/>
	<polygon style="fill:#FEF8DE;stroke:#EFCF84;stroke-miterlimit:10;" points="825.998,664.731 825.998,649.731 865.998,649.731 
		865.998,609.731 807.998,609.731 807.998,592.731 766.998,592.731 766.998,609.731 710.998,609.731 710.998,649.731 
		749.998,649.731 749.998,664.731 686.998,664.731 686.998,697.731 889.998,697.731 889.998,664.731 	"/>
	<polygon style="fill:#E6E4DA;stroke:#C7C5BC;stroke-miterlimit:10;" points="783.998,647.731 760.998,647.731 760.998,648.731 
		760.998,651.731 760.998,664.731 768.998,664.731 768.998,651.731 783.998,651.731 	"/>
	<polygon style="fill:#E6E4DA;stroke:#C7C5BC;stroke-miterlimit:10;" points="791.998,647.731 814.998,647.731 814.998,648.731 
		814.998,651.731 814.998,664.731 806.998,664.731 806.998,651.731 791.998,651.731 	"/>
	<polygon style="fill:#E6E4DA;stroke:#C7C5BC;stroke-miterlimit:10;" points="834.998,677.731 834.998,689.731 741.998,689.731 
		741.998,677.731 711.998,677.731 711.998,689.731 711.998,692.731 711.998,695.731 864.998,695.731 864.998,692.731 
		864.998,689.731 864.998,677.731 	"/>
	<polygon style="fill:#FEF8DE;stroke:#EFCF84;stroke-miterlimit:10;" points="170.998,658.731 367.998,658.731 367.998,827.731 
		316.998,907.731 283.082,928.253 201.998,942.731 169.998,804.731 	"/>
	<polygon style="fill:#E6E4DA;stroke:#C7C5BC;stroke-miterlimit:10;" points="270.998,659.731 270.998,673.731 307.998,673.731 
		307.998,690.731 314.998,690.731 325.998,681.731 325.998,673.731 325.998,669.731 325.998,659.731 	"/>
	<rect x="170.998" y="658.731" style="fill:#FEF8DE;stroke:#EFCF84;stroke-miterlimit:10;" width="103" height="60"/>
	<g>
		<path style="fill:#E6E4DA;stroke:#C7C5BC;stroke-miterlimit:10;" d="M285.998,779.731h14v-14h-5v-11h-28v-6h-23c0,0-1,13-16,13
			v154l-32,4l5,23l37-6.222v-96.778h48V779.731z"/>
		<polygon style="fill:#E6E4DA;stroke:#C7C5BC;stroke-miterlimit:10;" points="325.748,858.731 313.748,855.731 272.748,881.731 
			261.748,906.731 282.748,928.731 316.748,907.731 349.016,857.508 		"/>
	</g>
	<line style="fill:#FEFAEC;stroke:#EFCF84;stroke-miterlimit:10;" x1="221.998" y1="350.731" x2="221.998" y2="374.731"/>
	<line style="fill:#FEFAEC;stroke:#EFCF84;stroke-miterlimit:10;" x1="221.998" y1="403.231" x2="221.998" y2="467.231"/>
	<line style="fill:#FEFAEC;stroke:#EFCF84;stroke-miterlimit:10;" x1="273.998" y1="409.231" x2="273.998" y2="467.231"/>
	<line style="fill:#FEFAEC;stroke:#EFCF84;stroke-miterlimit:10;" x1="273.998" y1="351.231" x2="273.998" y2="381.231"/>
	<line style="fill:#FEFAEC;stroke:#EFCF84;stroke-miterlimit:10;" x1="299.498" y1="350.731" x2="283.498" y2="350.731"/>
	<line style="fill:#FEFAEC;stroke:#EFCF84;stroke-miterlimit:10;" x1="221.998" y1="484.231" x2="221.998" y2="552.231"/>
	<line style="fill:#FEFAEC;stroke:#EFCF84;stroke-miterlimit:10;" x1="222.998" y1="565.231" x2="222.998" y2="600.231"/>
	<line style="fill:#FEFAEC;stroke:#EFCF84;stroke-miterlimit:10;" x1="273.998" y1="484.231" x2="273.998" y2="552.231"/>
	<line style="fill:#FEFAEC;stroke:#EFCF84;stroke-miterlimit:10;" x1="336.998" y1="421.231" x2="336.998" y2="576.231"/>
	<line style="fill:#FEFAEC;stroke:#EFCF84;stroke-miterlimit:10;" x1="273.998" y1="565.231" x2="273.998" y2="611.231"/>
	<line style="fill:none;stroke:#EFCF84;stroke-miterlimit:10;" x1="170.998" y1="410.731" x2="198.998" y2="410.731"/>
	<line style="fill:none;stroke:#EFCF84;stroke-miterlimit:10;" x1="211.998" y1="410.731" x2="222.498" y2="410.731"/>
	<line style="fill:none;stroke:#EFCF84;stroke-miterlimit:10;" x1="222.498" y1="421.731" x2="236.498" y2="421.731"/>
	<line style="fill:none;stroke:#EFCF84;stroke-miterlimit:10;" x1="260.498" y1="421.731" x2="284.998" y2="421.731"/>
	<line style="fill:none;stroke:#EFCF84;stroke-miterlimit:10;" x1="397.498" y1="390.731" x2="419.998" y2="390.731"/>
	<line style="fill:none;stroke:#EFCF84;stroke-miterlimit:10;" x1="397.498" y1="414.731" x2="419.998" y2="414.731"/>
	<line style="fill:none;stroke:#EFCF84;stroke-miterlimit:10;" x1="454.498" y1="475.731" x2="480.998" y2="475.731"/>
	<line style="fill:none;stroke:#EFCF84;stroke-miterlimit:10;" x1="490.498" y1="475.731" x2="519.498" y2="475.731"/>
	<line style="fill:none;stroke:#EFCF84;stroke-miterlimit:10;" x1="604.998" y1="564.731" x2="604.998" y2="531.231"/>
	<line style="fill:none;stroke:#EFCF84;stroke-miterlimit:10;" x1="653.998" y1="564.731" x2="653.998" y2="531.231"/>
	<line style="fill:none;stroke:#EFCF84;stroke-miterlimit:10;" x1="656.998" y1="516.731" x2="656.998" y2="483.231"/>
	<line style="fill:none;stroke:#EFCF84;stroke-miterlimit:10;" x1="605.998" y1="518.731" x2="605.998" y2="485.231"/>
	<line style="fill:none;stroke:#EFCF84;stroke-miterlimit:10;" x1="606.248" y1="484.981" x2="623.998" y2="484.981"/>
	<line style="fill:none;stroke:#EFCF84;stroke-miterlimit:10;" x1="634.998" y1="484.981" x2="656.998" y2="484.981"/>
	<line style="fill:none;stroke:#EFCF84;stroke-miterlimit:10;" x1="548.998" y1="532.231" x2="548.998" y2="568.731"/>
	<line style="fill:none;stroke:#EFCF84;stroke-miterlimit:10;" x1="273.998" y1="454.731" x2="284.998" y2="454.731"/>
	<line style="fill:none;stroke:#EFCF84;stroke-miterlimit:10;" x1="199.998" y1="456.731" x2="221.498" y2="456.731"/>
	<line style="fill:none;stroke:#EFCF84;stroke-miterlimit:10;" x1="170.998" y1="456.731" x2="187.998" y2="456.731"/>
	<line style="fill:none;stroke:#EFCF84;stroke-miterlimit:10;" x1="172.498" y1="511.731" x2="198.998" y2="511.731"/>
	<line style="fill:none;stroke:#EFCF84;stroke-miterlimit:10;" x1="211.998" y1="511.731" x2="221.998" y2="511.731"/>
	<line style="fill:none;stroke:#EFCF84;stroke-miterlimit:10;" x1="222.498" y1="496.731" x2="235.998" y2="496.731"/>
	<line style="fill:none;stroke:#EFCF84;stroke-miterlimit:10;" x1="260.498" y1="496.731" x2="315.998" y2="496.731"/>
	<line style="fill:none;stroke:#EFCF84;stroke-miterlimit:10;" x1="260.498" y1="537.731" x2="305.998" y2="537.731"/>
	<line style="fill:none;stroke:#EFCF84;stroke-miterlimit:10;" x1="318.498" y1="537.731" x2="336.998" y2="537.731"/>
	<line style="fill:none;stroke:#EFCF84;stroke-miterlimit:10;" x1="296.498" y1="579.731" x2="334.998" y2="579.731"/>
	<line style="fill:none;stroke:#EFCF84;stroke-miterlimit:10;" x1="273.498" y1="579.731" x2="283.998" y2="579.731"/>
	<line style="fill:none;stroke:#EFCF84;stroke-miterlimit:10;" x1="212.498" y1="572.731" x2="222.998" y2="572.731"/>
	<line style="fill:none;stroke:#EFCF84;stroke-miterlimit:10;" x1="185.498" y1="572.731" x2="198.998" y2="572.731"/>
	<line style="fill:none;stroke:#EFCF84;stroke-miterlimit:10;" x1="212.498" y1="537.731" x2="235.998" y2="537.731"/>
	<line style="fill:none;stroke:#EFCF84;stroke-miterlimit:10;" x1="178.498" y1="537.731" x2="187.998" y2="537.731"/>
	<line style="fill:none;stroke:#EFCF84;stroke-miterlimit:10;" x1="328.998" y1="496.731" x2="336.998" y2="496.731"/>
	<line style="fill:none;stroke:#EFCF84;stroke-miterlimit:10;" x1="297.998" y1="454.731" x2="336.498" y2="454.731"/>
	<line style="fill:none;stroke:#EFCF84;stroke-miterlimit:10;" x1="297.998" y1="421.731" x2="336.998" y2="421.731"/>
	<line style="fill:#FEF8DE;stroke:#EFCF84;stroke-miterlimit:10;" x1="403.498" y1="152.731" x2="416.498" y2="152.731"/>
	<path style="fill:#FEF8DE;stroke:#EFCF84;stroke-miterlimit:10;" d="M428.665,152.731"/>
	<line style="fill:#FEF8DE;stroke:#EFCF84;stroke-miterlimit:10;" x1="484.498" y1="152.731" x2="428.498" y2="152.731"/>
	<line style="fill:#FEF8DE;stroke:#EFCF84;stroke-miterlimit:10;" x1="403.498" y1="193.731" x2="416.498" y2="193.731"/>
	<line style="fill:#FEF8DE;stroke:#EFCF84;stroke-miterlimit:10;" x1="428.498" y1="193.731" x2="483.498" y2="193.731"/>
	<line style="fill:#FEF8DE;stroke:#EFCF84;stroke-miterlimit:10;" x1="483.998" y1="137.231" x2="483.998" y2="208.231"/>
	<line style="fill:#FEF8DE;stroke:#EFCF84;stroke-miterlimit:10;" x1="483.998" y1="220.231" x2="483.998" y2="233.231"/>
	<line style="fill:#FEF8DE;stroke:#EFCF84;stroke-miterlimit:10;" x1="449.498" y1="232.731" x2="500.498" y2="232.731"/>
	<line style="fill:#FEF8DE;stroke:#EFCF84;stroke-miterlimit:10;" x1="511.498" y1="233.731" x2="624.498" y2="233.731"/>
	<line style="fill:#FEF8DE;stroke:#EFCF84;stroke-miterlimit:10;" x1="526.998" y1="220.231" x2="526.998" y2="238.231"/>
	<line style="fill:#FEF8DE;stroke:#EFCF84;stroke-miterlimit:10;" x1="632.498" y1="233.731" x2="650.498" y2="233.731"/>
	<polyline style="fill:#FEF8DE;stroke:#EFCF84;stroke-miterlimit:10;" points="526.998,137.231 526.998,193.731 526.998,208.231 	
		"/>
	<line style="fill:#FEF8DE;stroke:#EFCF84;stroke-miterlimit:10;" x1="583.498" y1="193.731" x2="526.498" y2="193.731"/>
	<line style="fill:#FEF8DE;stroke:#EFCF84;stroke-miterlimit:10;" x1="597.498" y1="193.731" x2="613.498" y2="193.731"/>
	<line style="fill:#FEF8DE;stroke:#EFCF84;stroke-miterlimit:10;" x1="526.498" y1="152.731" x2="584.498" y2="152.731"/>
	<line style="fill:#FEF8DE;stroke:#EFCF84;stroke-miterlimit:10;" x1="597.498" y1="152.731" x2="613.498" y2="152.731"/>
	<path style="fill:#FEF8DE;" d="M487.498,110.231"/>
	<line style="fill:#FEF8DE;stroke:#EFCF84;stroke-miterlimit:10;" x1="487.998" y1="110.231" x2="487.998" y2="125.231"/>
	<line style="fill:#FEF8DE;stroke:#EFCF84;stroke-miterlimit:10;" x1="529.998" y1="110.231" x2="529.998" y2="124.231"/>
	<line style="fill:#FEF8DE;stroke:#EFCF84;stroke-miterlimit:10;" x1="443.998" y1="64.231" x2="443.998" y2="88.231"/>
	<line style="fill:#FEF8DE;stroke:#EFCF84;stroke-miterlimit:10;" x1="456.498" y1="85.731" x2="537.498" y2="85.731"/>
	<line style="fill:#FEF8DE;stroke:#EFCF84;stroke-miterlimit:10;" x1="487.998" y1="49.231" x2="487.998" y2="86.231"/>
	<polyline style="fill:none;stroke:#EFCF84;stroke-miterlimit:10;" points="527.998,86.231 527.998,64.731 557.998,64.731 
		557.998,70.231 	"/>
	<line style="fill:none;stroke:#EFCF84;stroke-miterlimit:10;" x1="563.498" y1="91.731" x2="592.498" y2="91.731"/>
	<line style="fill:none;stroke:#EFCF84;stroke-miterlimit:10;" x1="487.498" y1="100.731" x2="501.498" y2="100.731"/>
	<line style="fill:none;stroke:#EFCF84;stroke-miterlimit:10;" x1="514.498" y1="100.731" x2="529.498" y2="100.731"/>
	<line style="fill:none;stroke:#EFCF84;stroke-miterlimit:10;" x1="496.498" y1="110.731" x2="519.498" y2="110.731"/>
	<polyline style="fill:none;stroke:#EFCF84;stroke-miterlimit:10;" points="470.998,233.231 470.998,259.731 499.998,259.731 
		499.998,268.231 495.748,272.481 	"/>
	<line style="fill:none;stroke:#EFCF84;stroke-miterlimit:10;" x1="473.998" y1="272.231" x2="473.998" y2="305.231"/>
	<line style="fill:none;stroke:#EFCF84;stroke-miterlimit:10;" x1="462.498" y1="289.731" x2="472.498" y2="289.731"/>
	<line style="fill:none;stroke:#EFCF84;stroke-miterlimit:10;" x1="449.498" y1="289.731" x2="439.498" y2="289.731"/>
	<line style="fill:none;stroke:#EFCF84;stroke-miterlimit:10;" x1="613.998" y1="195.231" x2="613.998" y2="208.231"/>
	<line style="fill:none;stroke:#EFCF84;stroke-miterlimit:10;" x1="613.998" y1="220.231" x2="613.998" y2="242.231"/>
	<line style="fill:none;stroke:#EFCF84;stroke-miterlimit:10;" x1="612.998" y1="252.231" x2="612.998" y2="259.231"/>
	<line style="fill:none;stroke:#EFCF84;stroke-miterlimit:10;" x1="552.498" y1="259.731" x2="625.498" y2="259.731"/>
	<line style="fill:none;stroke:#EFCF84;stroke-miterlimit:10;" x1="635.498" y1="259.731" x2="652.498" y2="259.731"/>
	<line style="fill:none;stroke:#EFCF84;stroke-miterlimit:10;" x1="570.998" y1="234.231" x2="570.998" y2="242.231"/>
	<line style="fill:none;stroke:#EFCF84;stroke-miterlimit:10;" x1="570.998" y1="252.231" x2="570.998" y2="259.231"/>
	<line style="fill:none;stroke:#EFCF84;stroke-miterlimit:10;" x1="746.498" y1="259.731" x2="782.498" y2="259.731"/>
	<line style="fill:none;stroke:#EFCF84;stroke-miterlimit:10;" x1="793.498" y1="259.731" x2="831.498" y2="259.731"/>
	<line style="fill:none;stroke:#EFCF84;stroke-miterlimit:10;" x1="851.998" y1="260.231" x2="851.998" y2="285.231"/>
	<line style="fill:none;stroke:#EFCF84;stroke-miterlimit:10;" x1="851.998" y1="295.231" x2="851.998" y2="320.231"/>
	<line style="fill:none;stroke:#EFCF84;stroke-miterlimit:10;" x1="721.998" y1="270.231" x2="721.998" y2="285.231"/>
	<line style="fill:none;stroke:#EFCF84;stroke-miterlimit:10;" x1="721.998" y1="295.231" x2="721.998" y2="309.231"/>
	<line style="fill:none;stroke:#EFCF84;stroke-miterlimit:10;" x1="611.498" y1="320.731" x2="625.498" y2="320.731"/>
	<line style="fill:none;stroke:#EFCF84;stroke-miterlimit:10;" x1="635.498" y1="320.731" x2="650.498" y2="320.731"/>
	<line style="fill:none;stroke:#EFCF84;stroke-miterlimit:10;" x1="721.998" y1="377.231" x2="721.998" y2="396.231"/>
	<line style="fill:none;stroke:#EFCF84;stroke-miterlimit:10;" x1="753.998" y1="377.231" x2="753.998" y2="396.231"/>
	<line style="fill:none;stroke:#EFCF84;stroke-miterlimit:10;" x1="753.498" y1="451.731" x2="770.498" y2="451.731"/>
	<line style="fill:none;stroke:#EFCF84;stroke-miterlimit:10;" x1="805.498" y1="451.731" x2="822.498" y2="451.731"/>
	<line style="fill:none;stroke:#EFCF84;stroke-miterlimit:10;" x1="822.998" y1="378.231" x2="822.998" y2="397.231"/>
	<line style="fill:none;stroke:#EFCF84;stroke-miterlimit:10;" x1="821.998" y1="408.231" x2="821.998" y2="462.231"/>
	<line style="fill:none;stroke:#EFCF84;stroke-miterlimit:10;" x1="821.998" y1="474.231" x2="821.998" y2="484.231"/>
	<line style="fill:none;stroke:#EFCF84;stroke-miterlimit:10;" x1="753.498" y1="484.731" x2="827.498" y2="484.731"/>
	<polyline style="fill:none;stroke:#EFCF84;stroke-miterlimit:10;" points="768.998,485.231 768.998,500.731 753.498,500.731 	"/>
	<polyline style="fill:none;stroke:#EFCF84;stroke-miterlimit:10;" points="753.498,518.731 767.998,518.731 767.998,534.231 	"/>
	<polyline style="fill:none;stroke:#EFCF84;stroke-miterlimit:10;" points="807.998,485.231 807.998,500.731 823.498,500.731 	"/>
	<polyline style="fill:none;stroke:#EFCF84;stroke-miterlimit:10;" points="807.998,534.231 807.998,519.731 823.498,519.731 	"/>
	<line style="fill:none;stroke:#EFCF84;stroke-miterlimit:10;" x1="806.498" y1="533.731" x2="826.498" y2="533.731"/>
	<line style="fill:none;stroke:#EFCF84;stroke-miterlimit:10;" x1="835.498" y1="533.731" x2="842.498" y2="533.731"/>
	<line style="fill:none;stroke:#EFCF84;stroke-miterlimit:10;" x1="862.998" y1="533.231" x2="862.998" y2="541.231"/>
	<line style="fill:none;stroke:#EFCF84;stroke-miterlimit:10;" x1="862.998" y1="551.231" x2="862.998" y2="563.231"/>
	<line style="fill:none;stroke:#EFCF84;stroke-miterlimit:10;" x1="851.998" y1="378.231" x2="851.998" y2="396.231"/>
	<line style="fill:none;stroke:#EFCF84;stroke-miterlimit:10;" x1="851.998" y1="408.231" x2="851.998" y2="427.231"/>
	<polyline style="fill:none;stroke:#EFCF84;stroke-miterlimit:10;" points="822.498,427.731 909.498,427.731 918.998,437.065 
		918.998,516.231 	"/>
	<line style="fill:none;stroke:#EFCF84;stroke-miterlimit:10;" x1="918.998" y1="532.231" x2="918.998" y2="563.231"/>
	<path style="fill:none;stroke:#EFCF84;stroke-miterlimit:10;" d="M893.498,443.731h-51.5v26h3.5c0,0,0.333-8.667,9-8.333
		c8.667,0.333,8.5,8.333,8.5,8.333v17h75.5"/>
	<polyline style="fill:none;stroke:#EFCF84;stroke-miterlimit:10;" points="950.498,484.731 969.998,484.731 969.998,516.231 	"/>
	<line style="fill:none;stroke:#EFCF84;stroke-miterlimit:10;" x1="969.998" y1="532.231" x2="969.998" y2="562.231"/>
	<line style="fill:none;stroke:#EFCF84;stroke-miterlimit:10;" x1="1024.998" y1="485.231" x2="1024.998" y2="517.231"/>
	<line style="fill:none;stroke:#EFCF84;stroke-miterlimit:10;" x1="1042.998" y1="484.231" x2="1042.998" y2="517.231"/>
	<line style="fill:none;stroke:#EFCF84;stroke-miterlimit:10;" x1="1024.998" y1="530.231" x2="1024.998" y2="572.231"/>
	<line style="fill:none;stroke:#EFCF84;stroke-miterlimit:10;" x1="1044.998" y1="530.231" x2="1044.998" y2="542.231"/>
	<line style="fill:none;stroke:#EFCF84;stroke-miterlimit:10;" x1="1034.498" y1="543.731" x2="1048.498" y2="543.731"/>
	<line style="fill:none;stroke:#EFCF84;stroke-miterlimit:10;" x1="1043.498" y1="473.731" x2="1061.498" y2="473.731"/>
	<line style="fill:none;stroke:#EFCF84;stroke-miterlimit:10;" x1="1073.498" y1="472.731" x2="1101.498" y2="472.731"/>
	<line style="fill:none;stroke:#EFCF84;stroke-miterlimit:10;" x1="1034.998" y1="378.231" x2="1034.998" y2="397.231"/>
	<line style="fill:none;stroke:#EFCF84;stroke-miterlimit:10;" x1="1034.998" y1="408.231" x2="1034.998" y2="427.231"/>
	<line style="fill:none;stroke:#EFCF84;stroke-miterlimit:10;" x1="908.998" y1="378.231" x2="908.998" y2="384.231"/>
	<path style="fill:none;stroke:#EFCF84;stroke-miterlimit:10;" d="M908.998,419.898c0.5,0.5,0,7.833,0,7.833"/>
	<line style="fill:none;stroke:#EFCF84;stroke-miterlimit:10;" x1="918.498" y1="436.731" x2="927.498" y2="436.731"/>
	<path style="fill:none;stroke:#EFCF84;stroke-miterlimit:10;" d="M960.248,436.731c0.083-0.167,9.25,0,9.25,0"/>
	<line style="fill:none;stroke:#EFCF84;stroke-miterlimit:10;" x1="978.998" y1="420.231" x2="978.998" y2="427.231"/>
	<line style="fill:none;stroke:#EFCF84;stroke-miterlimit:10;" x1="979.998" y1="385.231" x2="979.998" y2="378.231"/>
	<line style="fill:none;stroke:#EFCF84;stroke-miterlimit:10;" x1="968.498" y1="367.731" x2="961.498" y2="367.731"/>
	<line style="fill:none;stroke:#EFCF84;stroke-miterlimit:10;" x1="920.498" y1="367.731" x2="927.498" y2="367.731"/>
	<circle style="fill:none;stroke:#EFCF84;stroke-miterlimit:10;" cx="944.665" cy="403.398" r="30"/>
	<line style="fill:none;stroke:#EFCF84;stroke-miterlimit:10;" x1="920.498" y1="321.731" x2="928.498" y2="321.731"/>
	<line style="fill:none;stroke:#EFCF84;stroke-miterlimit:10;" x1="961.498" y1="320.731" x2="969.498" y2="320.731"/>
	<line style="fill:none;stroke:#EFCF84;stroke-miterlimit:10;" x1="1034.998" y1="269.231" x2="1034.998" y2="285.231"/>
	<line style="fill:none;stroke:#EFCF84;stroke-miterlimit:10;" x1="1034.998" y1="297.231" x2="1034.998" y2="309.231"/>
	<line style="fill:none;stroke:#EFCF84;stroke-miterlimit:10;" x1="1046.498" y1="320.731" x2="1059.498" y2="320.731"/>
	<polyline style="fill:none;stroke:#EFCF84;stroke-miterlimit:10;" points="529.998,531.231 529.998,542.731 541.498,542.731 	"/>
	<path style="fill:none;stroke:#EFCF84;stroke-miterlimit:10;" d="M170.498,737.731h98c0,0,29.25-1.5,45.25,12.25"/>
	<polyline style="fill:none;stroke:#EFCF84;stroke-miterlimit:10;" points="273.998,719.231 273.998,725.731 314.998,725.731 
		314.998,733.231 	"/>
	<line style="fill:none;stroke:#EFCF84;stroke-miterlimit:10;" x1="228.998" y1="719.231" x2="228.998" y2="738.231"/>
	<line style="fill:none;stroke:#EFCF84;stroke-miterlimit:10;" x1="170.498" y1="762.731" x2="204.498" y2="762.731"/>
	<line style="fill:none;stroke:#EFCF84;stroke-miterlimit:10;" x1="213.998" y1="763.231" x2="213.998" y2="803.231"/>
	<polyline style="fill:none;stroke:#EFCF84;stroke-miterlimit:10;" points="367.498,723.731 337.998,723.731 337.998,763.231 	"/>
	<path style="fill:none;stroke:#EFCF84;stroke-miterlimit:10;" d="M315.748,697.731c0,0,5.5-10.5,17.75-11.5"/>
	<g>
		<rect x="472.346" y="235.223" style="fill:#FFFFFF;stroke:#333333;stroke-miterlimit:10;" width="23.402" height="23.402"/>
		<polyline style="fill:none;stroke:#000333;stroke-width:2;stroke-miterlimit:10;" points="492.498,240.231 488.498,240.231 
			488.498,244.231 484.498,244.231 484.498,249.231 479.498,249.231 479.498,254.231 475.498,254.231 		"/>
	</g>
	<g>
		<rect x="550.346" y="49.223" style="fill:#FFFFFF;stroke:#333333;stroke-miterlimit:10;" width="23.402" height="23.402"/>
		<polyline style="fill:none;stroke:#000333;stroke-width:2;stroke-miterlimit:10;" points="570.498,54.231 566.498,54.231 
			566.498,58.231 562.498,58.231 562.498,63.231 557.498,63.231 557.498,68.231 553.498,68.231 		"/>
	</g>
	<g>
		<rect x="727.346" y="379.223" style="fill:#FFFFFF;stroke:#333333;stroke-miterlimit:10;" width="23.402" height="23.402"/>
		<polyline style="fill:none;stroke:#000333;stroke-width:2;stroke-miterlimit:10;" points="747.498,384.231 743.498,384.231 
			743.498,388.231 739.498,388.231 739.498,393.231 734.498,393.231 734.498,398.231 730.498,398.231 		"/>
	</g>
	<g>
		<g>
			
				<line style="fill:none;stroke:#58A543;stroke-width:8;stroke-linecap:round;stroke-linejoin:round;" x1="355.866" y1="541.956" x2="355.862" y2="541.906"/>
			
				<path style="fill:none;stroke:#58A543;stroke-width:8;stroke-linecap:round;stroke-linejoin:round;stroke-dasharray:0.0999,12.9931;" d="
				M354.994,528.942l-6.163-92.044c-0.281-6.418-5-22.167-12.333-28.667c-10.438-9.251-25.823-13.505-40,6.5
				c-20.5,28.927,41.392,131.236,21.739,137.323c-19.652,6.088-19.849-69.592-33.25-73c-10.908-2.774-59.714,1.618-77.494,3.348"/>
			<path style="fill:none;stroke:#58A543;stroke-width:8;stroke-linecap:round;stroke-linejoin:round;" d="M201.032,483.05
				c-0.03,0.003-0.045,0.005-0.045,0.005c-0.001,0.016-0.003,0.031-0.006,0.045"/>
			
				<path style="fill:none;stroke:#58A543;stroke-width:8;stroke-linecap:round;stroke-linejoin:round;stroke-dasharray:0.0996,12.9453;" d="
				M195.608,472.522c0.459-2.104,2.005-4.083,5.379-5.467c11.335-4.649,82.5,4,81-15.5s-7.5-55.5,13.5-61s46.5-2,88,7.5
				s304.5,4.394,304.5,4.394l205.616-4.173c6.418-0.13,12.403-3.206,16.272-8.327c6.741-8.924,19.414-22.064,35.779-22.393
				c18.626-0.375,31.72,15.283,37.102,23.134c2.506,3.655,6.06,6.484,10.241,7.949c10.644,3.731,33.603,7.881,75.128-1.133"/>
			<path style="fill:none;stroke:#58A543;stroke-width:8;stroke-linecap:round;stroke-linejoin:round;" d="M1074.446,396.065
				c0.014-0.003,0.028-0.007,0.041-0.01"/>
		</g>
	</g>
</g>
<g>
</g>
<g>
</g>
<g>
</g>
<g>
</g>
<g>
</g>
<g>
</g>
<g>
</g>
<g>
</g>
<g>
</g>
<g>
</g>
<g>
</g>
<g>
</g>
<g>
</g>
<g>
</g>
<g>
</g>
</svg>
