<?xml version="1.0" encoding="UTF-8" standalone="no"?>
<!-- Generator: Adobe Illustrator 21.1.0, SVG Export Plug-In . SVG Version: 6.00 Build 0)  -->

<svg
   xmlns:dc="http://purl.org/dc/elements/1.1/"
   xmlns:cc="http://creativecommons.org/ns#"
   xmlns:rdf="http://www.w3.org/1999/02/22-rdf-syntax-ns#"
   xmlns:svg="http://www.w3.org/2000/svg"
   xmlns="http://www.w3.org/2000/svg"
   xmlns:sodipodi="http://sodipodi.sourceforge.net/DTD/sodipodi-0.dtd"
   xmlns:inkscape="http://www.inkscape.org/namespaces/inkscape"
   version="1.1"
   id="图层_1"
   x="0px"
   y="0px"
   width="434px"
   height="505px"
   viewBox="0 0 434 505"
   enable-background="new 0 0 434 505"
   xml:space="preserve"
   sodipodi:docname="svg_2222.svg"
   inkscape:version="0.92.2 5c3e80d, 2017-08-06"><metadata
     id="metadata83"><rdf:RDF><cc:Work
         rdf:about=""><dc:format>image/svg+xml</dc:format><dc:type
           rdf:resource="http://purl.org/dc/dcmitype/StillImage" /></cc:Work></rdf:RDF></metadata><defs
     id="defs81" /><sodipodi:namedview
     pagecolor="#ffffff"
     bordercolor="#666666"
     borderopacity="1"
     objecttolerance="10"
     gridtolerance="10"
     guidetolerance="10"
     inkscape:pageopacity="0"
     inkscape:pageshadow="2"
     inkscape:window-width="1080"
     inkscape:window-height="1891"
     id="namedview79"
     showgrid="false"
     inkscape:zoom="1.3217996"
     inkscape:cx="52.203667"
     inkscape:cy="313.3754"
     inkscape:window-x="1578"
     inkscape:window-y="0"
     inkscape:window-maximized="1"
     inkscape:current-layer="图层_1" /><g
     id="g44"><polygon
       fill="#FEF8DE"
       stroke="#EFCF84"
       stroke-miterlimit="10"
       points="16.5,12.5 213.5,12.5 213.5,181.5 162.5,261.5    128.5843,282.0215 47.5,296.5 15.5,158.5  "
       id="polygon2" /><polygon
       fill="#E6E4DA"
       stroke="#C7C5BC"
       stroke-miterlimit="10"
       points="116.5,13.5 116.5,27.5 153.5,27.5 153.5,44.5 160.5,44.5    171.5,35.5 171.5,27.5 171.5,23.5 171.5,13.5  "
       id="polygon4" /><rect
       x="16.5"
       y="12.5"
       fill="#FEF8DE"
       stroke="#EFCF84"
       stroke-miterlimit="10"
       width="103"
       height="60"
       id="rect6" /><g
       id="g12"><path
         fill="#E6E4DA"
         stroke="#C7C5BC"
         stroke-miterlimit="10"
         d="M131.5,133.5h14v-14h-5v-11h-28v-6h-23c0,0-1,13-16,13v154l-32,4    l5,23l37-6.2222V193.5h48V133.5z"
         id="path8" /><polygon
         fill="#E6E4DA"
         stroke="#C7C5BC"
         stroke-miterlimit="10"
         points="171.25,212.5 159.25,209.5 118.25,235.5 107.25,260.5     128.25,282.5 162.25,261.5 194.5176,211.2763   "
         id="polygon10" /></g><polygon
       fill="#FFEADD"
       stroke="#EFCF84"
       stroke-miterlimit="10"
       points="145.5,119.5 161.5,119.5 161.5,155.5 184.5,155.5    184.6667,210.9167 174.5,211.5 148.5,238.5 134.5,249.5 123.5,253.5 127.5412,282.6657 83.5,290.2778 83.5,193.5 131.5,193.5    131.5,133.5 145.5,133.5  "
       id="polygon14" /><path
       fill="none"
       stroke="#EFCF84"
       stroke-miterlimit="10"
       d="M16,91.5h98c0,0,29.25-1.5,45.25,12.25"
       id="path16" /><polyline
       fill="none"
       stroke="#EFCF84"
       stroke-miterlimit="10"
       points="119.5,73 119.5,79.5 160.5,79.5 160.5,87  "
       id="polyline18" /><line
       fill="none"
       stroke="#EFCF84"
       stroke-miterlimit="10"
       x1="74.5"
       y1="73"
       x2="74.5"
       y2="92"
       id="line20" /><line
       fill="none"
       stroke="#EFCF84"
       stroke-miterlimit="10"
       x1="16"
       y1="116.5"
       x2="50"
       y2="116.5"
       id="line22" /><line
       fill="none"
       stroke="#EFCF84"
       stroke-miterlimit="10"
       x1="59.5"
       y1="117"
       x2="59.5"
       y2="157"
       id="line24" /><line
       fill="none"
       stroke="#EFCF84"
       stroke-miterlimit="10"
       x1="59.5"
       y1="167"
       x2="59.5"
       y2="192"
       id="line26" /><line
       fill="none"
       stroke="#EFCF84"
       stroke-miterlimit="10"
       x1="59.5"
       y1="203"
       x2="59.5"
       y2="235"
       id="line28" /><line
       fill="none"
       stroke="#EFCF84"
       stroke-miterlimit="10"
       x1="33"
       y1="235.5"
       x2="65"
       y2="235.5"
       id="line30" /><line
       fill="none"
       stroke="#EFCF84"
       stroke-miterlimit="10"
       x1="21"
       y1="182.5"
       x2="32"
       y2="182.5"
       id="line32" /><line
       fill="none"
       stroke="#EFCF84"
       stroke-miterlimit="10"
       x1="41"
       y1="182.5"
       x2="59"
       y2="182.5"
       id="line34" /><line
       fill="none"
       stroke="#EFCF84"
       stroke-miterlimit="10"
       x1="171.5"
       y1="156"
       x2="171.5"
       y2="194"
       id="line36" /><polyline
       fill="none"
       stroke="#EFCF84"
       stroke-miterlimit="10"
       points="213,77.5 183.5,77.5 183.5,117  "
       id="polyline38" /><line
       fill="none"
       stroke="#EFCF84"
       stroke-miterlimit="10"
       x1="184.5"
       y1="139"
       x2="184.5"
       y2="157"
       id="line40" /><path
       fill="none"
       stroke="#EFCF84"
       stroke-miterlimit="10"
       d="M161.25,51.5c0,0,5.5-10.5,17.75-11.5"
       id="path42" /></g><g
     id="g46" /><g
     id="g48" /><g
     id="g50" /><g
     id="g52" /><g
     id="g54" /><g
     id="g56" /><g
     id="g58" /><g
     id="g60" /><g
     id="g62" /><g
     id="g64" /><g
     id="g66" /><g
     id="g68" /><g
     id="g70" /><g
     id="g72" /><g
     id="g74" /><g
     id="_x31_-298-起点"><rect
       x="59.509998"
       y="252.351"
       style="fill:#333333;stroke:#000000;stroke-miterlimit:10"
       width="1"
       height="1"
       id="rect630" /></g>
<g
     id="_x32_-298-点"><rect
       x="59.509998"
       y="52.351"
       style="fill:#333333;stroke:#000000;stroke-miterlimit:10"
       width="1"
       height="1"
       id="rect630" /></g></svg>