<?xml version="1.0" encoding="utf-8"?>
<!-- Generator: Adobe Illustrator 21.1.0, SVG Export Plug-In . SVG Version: 6.00 Build 0)  -->
<svg version="1.1" id="图层_1" xmlns="http://www.w3.org/2000/svg" xmlns:xlink="http://www.w3.org/1999/xlink" x="0px" y="0px"
	 width="434px" height="505px" viewBox="0 0 434 505" enable-background="new 0 0 434 505" xml:space="preserve">
<g>
	<polygon fill="#FEF8DE" stroke="#EFCF84" stroke-miterlimit="10" points="16.5,12.5 213.5,12.5 213.5,181.5 162.5,261.5 
		128.5843,282.0215 47.5,296.5 15.5,158.5 	"/>
	<polygon fill="#E6E4DA" stroke="#C7C5BC" stroke-miterlimit="10" points="116.5,13.5 116.5,27.5 153.5,27.5 153.5,44.5 160.5,44.5 
		171.5,35.5 171.5,27.5 171.5,23.5 171.5,13.5 	"/>
	<rect x="16.5" y="12.5" fill="#FEF8DE" stroke="#EFCF84" stroke-miterlimit="10" width="103" height="60"/>
	<g>
		<path fill="#E6E4DA" stroke="#C7C5BC" stroke-miterlimit="10" d="M131.5,133.5h14v-14h-5v-11h-28v-6h-23c0,0-1,13-16,13v154l-32,4
			l5,23l37-6.2222V193.5h48V133.5z"/>
		<polygon fill="#E6E4DA" stroke="#C7C5BC" stroke-miterlimit="10" points="171.25,212.5 159.25,209.5 118.25,235.5 107.25,260.5 
			128.25,282.5 162.25,261.5 194.5176,211.2763 		"/>
	</g>
	<polygon fill="#FFEADD" stroke="#EFCF84" stroke-miterlimit="10" points="145.5,119.5 161.5,119.5 161.5,155.5 184.5,155.5 
		184.6667,210.9167 174.5,211.5 148.5,238.5 134.5,249.5 123.5,253.5 127.5412,282.6657 83.5,290.2778 83.5,193.5 131.5,193.5 
		131.5,133.5 145.5,133.5 	"/>
	<path fill="none" stroke="#EFCF84" stroke-miterlimit="10" d="M16,91.5h98c0,0,29.25-1.5,45.25,12.25"/>
	<polyline fill="none" stroke="#EFCF84" stroke-miterlimit="10" points="119.5,73 119.5,79.5 160.5,79.5 160.5,87 	"/>
	<line fill="none" stroke="#EFCF84" stroke-miterlimit="10" x1="74.5" y1="73" x2="74.5" y2="92"/>
	<line fill="none" stroke="#EFCF84" stroke-miterlimit="10" x1="16" y1="116.5" x2="50" y2="116.5"/>
	<line fill="none" stroke="#EFCF84" stroke-miterlimit="10" x1="59.5" y1="117" x2="59.5" y2="157"/>
	<line fill="none" stroke="#EFCF84" stroke-miterlimit="10" x1="59.5" y1="167" x2="59.5" y2="192"/>
	<line fill="none" stroke="#EFCF84" stroke-miterlimit="10" x1="59.5" y1="203" x2="59.5" y2="235"/>
	<line fill="none" stroke="#EFCF84" stroke-miterlimit="10" x1="33" y1="235.5" x2="65" y2="235.5"/>
	<line fill="none" stroke="#EFCF84" stroke-miterlimit="10" x1="21" y1="182.5" x2="32" y2="182.5"/>
	<line fill="none" stroke="#EFCF84" stroke-miterlimit="10" x1="41" y1="182.5" x2="59" y2="182.5"/>
	<line fill="none" stroke="#EFCF84" stroke-miterlimit="10" x1="171.5" y1="156" x2="171.5" y2="194"/>
	<polyline fill="none" stroke="#EFCF84" stroke-miterlimit="10" points="213,77.5 183.5,77.5 183.5,117 	"/>
	<line fill="none" stroke="#EFCF84" stroke-miterlimit="10" x1="184.5" y1="139" x2="184.5" y2="157"/>
	<path fill="none" stroke="#EFCF84" stroke-miterlimit="10" d="M161.25,51.5c0,0,5.5-10.5,17.75-11.5"/>
</g>
<g>
</g>
<g>
</g>
<g>
</g>
<g>
</g>
<g>
</g>
<g>
</g>
<g>
</g>
<g>
</g>
<g>
</g>
<g>
</g>
<g>
</g>
<g>
</g>
<g>
</g>
<g>
</g>
<g>
</g>
</svg>
