<?xml version="1.0" encoding="UTF-8" standalone="no"?>
<!-- Generator: Adobe Illustrator 21.1.0, SVG Export Plug-In . SVG Version: 6.00 Build 0)  -->

<svg
   xmlns:dc="http://purl.org/dc/elements/1.1/"
   xmlns:cc="http://creativecommons.org/ns#"
   xmlns:rdf="http://www.w3.org/1999/02/22-rdf-syntax-ns#"
   xmlns:svg="http://www.w3.org/2000/svg"
   xmlns="http://www.w3.org/2000/svg"
   xmlns:sodipodi="http://sodipodi.sourceforge.net/DTD/sodipodi-0.dtd"
   xmlns:inkscape="http://www.inkscape.org/namespaces/inkscape"
   version="1.1"
   id="图层_1"
   x="0px"
   y="0px"
   width="2208px"
   height="1242px"
   viewBox="0 0 2208 1242"
   style="enable-background:new 0 0 2208 1242;"
   xml:space="preserve"
   sodipodi:docname="svg_1_g.svg"
   inkscape:version="0.92.2 5c3e80d, 2017-08-06"><metadata
     id="metadata644"><rdf:RDF><cc:Work
         rdf:about=""><dc:format>image/svg+xml</dc:format><dc:type
           rdf:resource="http://purl.org/dc/dcmitype/StillImage" /></cc:Work></rdf:RDF></metadata><defs
     id="defs642" /><sodipodi:namedview
     pagecolor="#ffffff"
     bordercolor="#666666"
     borderopacity="1"
     objecttolerance="10"
     gridtolerance="10"
     guidetolerance="10"
     inkscape:pageopacity="0"
     inkscape:pageshadow="2"
     inkscape:window-width="1440"
     inkscape:window-height="837"
     id="namedview640"
     showgrid="false"
     inkscape:zoom="0.5374467"
     inkscape:cx="599.52149"
     inkscape:cy="1087.7506"
     inkscape:window-x="0"
     inkscape:window-y="0"
     inkscape:window-maximized="1"
     inkscape:current-layer="图层_1" /><g
     id="g14"><path
       style="fill:#E6E4DA;stroke:#C7C5BC;stroke-miterlimit:10;"
       d="M1277.926,808.973l314.19,7.701c0,0,24.823-7.755,34.132-0.925   l32.097,15.464l188.257-241.062l16.994-4.556l-1.435,128.493l-13.247,6.087l-2.258,38.063l9.171-4.214l94.979,64.349   l213.665-179.631l-235.16-310.344l-16.997,0.611c0,0-24.103-9.481-19.249,14.513l-10.521,22.764l-0.549,84.758l-28.226,51.383   l-6.904,78.196l-182.292-52.875l-0.088-28.661l-99.321-0.526l-0.125,27.925l-229.629-1.858l1.093-28.327l-4.554-145.493   l3.315-106.121l-53.374-15.09l-44.159,65.659l-100.826,227.489l-115.656-2.335l-364.604-6.284l5.487-40.832l-399.17-0.43   l-1.648,21.378l-46.886,4.728l1.001,26.178l-13.644,280.308l90.26,14.81l319.706,2.424l19.878-0.394l1.51-9.433l169.224-10.25   l8.184-32.87L1277.926,808.973z"
       id="path2" /><path
       style="fill:#E6E4DA;stroke:#C7C5BC;stroke-miterlimit:10;"
       d="M87.112,547.933l-21.238-1.337l16.362,234.24l15.647,4.44   l6.751,89.867l-16.914,0.776l12.939,229.602l48.609,62.811c0,0,566.246,2.89,834.308-72.147l4.001-236.713l-318.837-8.008   l-15.158,6.965l-270.19-13.897l2.659-67.855l-172.845,1.659L87.112,547.933z"
       id="path4" /><polyline
       style="fill:#E6E4DA;stroke:#C7C5BC;stroke-miterlimit:10;"
       points="215.694,532.02 214.43,498.969 261.316,494.242    261.247,469.127 217.544,464.113 217.429,312.774 977.965,318.764 983.03,464.537 1021.25,520.41 1004.076,519.966    975.364,476.279 262.964,472.863  "
       id="polyline6" /><polygon
       style="fill:#E6E4DA;stroke:#C7C5BC;stroke-miterlimit:10;"
       points="1333.056,298.821 1343.658,296.083 1338.147,284.089    1503.641,283.892 1500.682,260.441 1447.176,259.49 1451.597,67.662 1756.716,68.267 1749.214,258.761 1732.268,259.486    1735.969,284.999 1859.258,291.435 1855.58,487.566 1837.53,506.032 1848.734,519.001 1790.871,517.299 1785.483,505.571    1732.501,501.735 1736.297,515.367 1675.943,511.935 1664.485,499.087 1531.642,498.383 1536.947,509.927 1512.344,512.789    1505.714,498.361 1489.152,495.891 1491.819,525.767 1419.048,528.103 1417.476,500.466 1367.914,497.5 1365.524,512.705    1347.236,511.457 1346.826,497.522 1329.74,495.499  "
       id="polygon8" /><polygon
       style="fill:#E6E4DA;stroke:#C7C5BC;stroke-miterlimit:10;"
       points="1520.073,260.561 1520.492,286.543 1715.797,288.998    1714.893,261.962  "
       id="polygon10" /><path
       style="fill:#E6E4DA;stroke:#C7C5BC;stroke-miterlimit:10;"
       d="M992.334,1021.195l-3.624,78.801l112.575-23.34l38.422-0.376   l525.251-79.666l85.757-22.125l184.808-149.093l-80.891-57.863l-45.737,64.212l-185.075-3.822l3.278,7.133l-331.823-4.274   l-0.787,176.849l-290.455-4.769C1004.031,1002.861,986.44,1006.007,992.334,1021.195z"
       id="path12" /></g><polygon
     style="fill:#FEF8DE;stroke:#EFCF84;stroke-miterlimit:10;"
     points="87.618,523.812 84.225,768.914 245.674,772.896   250.426,527.169 "
     id="polygon16" /><polygon
     style="fill:#FEF8DE;stroke:#EFCF84;stroke-miterlimit:10;"
     points="280.283,522.089 278.57,596.927 303.854,651.955   449.205,653.357 477.366,605.861 476.945,565.326 460.303,564.025 460.014,572.797 434.304,572.577 434.035,569.307   377.327,569.445 378.441,524.194 "
     id="polygon18" /><path
     style="fill:#FEF8DE;stroke:#EFCF84;stroke-miterlimit:10;"
     d="M409.705,523.406c0.293,0.637-0.275,23.576-0.275,23.576  l6.834,0.1l-0.44,17.172l10.758,0.919l0.248-7.519l28.361,1.624l1.236-1.339l20.432,0.485l0.988-16.652c0,0-5.006-4.179-0.486-8.108  l1.014-8.874L409.705,523.406z"
     id="path20" /><line
     style="fill:none;stroke:#EFCF84;stroke-miterlimit:10;"
     x1="377.327"
     y1="569.445"
     x2="376.104"
     y2="652.652"
     id="line22" /><line
     style="fill:none;stroke:#EFCF84;stroke-miterlimit:10;"
     x1="410.554"
     y1="569.364"
     x2="409.275"
     y2="652.971"
     id="line24" /><line
     style="fill:none;stroke:#EFCF84;stroke-miterlimit:10;"
     x1="426.298"
     y1="569.326"
     x2="425.681"
     y2="653.13"
     id="line26" /><line
     style="fill:none;stroke:#EFCF84;stroke-miterlimit:10;"
     x1="457.629"
     y1="524.372"
     x2="457.384"
     y2="557.961"
     id="line28" /><polygon
     style="fill:#FEF8DE;stroke:#EFCF84;stroke-miterlimit:10;"
     points="523.387,524.715 523.308,566.512 567.967,567.008   568.431,558.618 584.144,559.575 584.14,561.582 604.838,561.637 605.182,526.459 "
     id="polygon30" /><polygon
     style="fill:#FEF8DE;stroke:#EFCF84;stroke-miterlimit:10;"
     points="522.334,571.777 522.117,606.896 548.844,654.319   1059.069,662.035 1058.684,673.731 1097.821,673.85 1102.089,620.465 1041.075,619.291 1041.368,600.232 939.758,597.553   941.042,517.976 656.646,514.125 656.091,525.899 610.478,526.459 610.267,566.29 601.077,565.987 600.646,574.002 "
     id="polygon32" /><line
     style="fill:none;stroke:#EFCF84;stroke-miterlimit:10;"
     x1="574.868"
     y1="602.508"
     x2="522.148"
     y2="601.948"
     id="line34" /><line
     style="fill:none;stroke:#EFCF84;stroke-miterlimit:10;"
     x1="576.574"
     y1="573.318"
     x2="575.194"
     y2="617.991"
     id="line36" /><polyline
     style="fill:#FEF8DE;stroke:#EFCF84;stroke-miterlimit:10;"
     points="572.608,654.678 573.197,617.674 597.106,618.002   597.067,655.048 "
     id="polyline38" /><line
     style="fill:none;stroke:#EFCF84;stroke-miterlimit:10;"
     x1="584.058"
     y1="654.851"
     x2="585.306"
     y2="617.84"
     id="line40" /><line
     style="fill:none;stroke:#EFCF84;stroke-miterlimit:10;"
     x1="647.533"
     y1="526.004"
     x2="645.96"
     y2="655.787"
     id="line42" /><polyline
     style="fill:#FEF8DE;stroke:#EFCF84;stroke-miterlimit:10;"
     points="656.091,525.899 664.863,526.188 662.761,656.042 "
     id="polyline44" /><line
     style="fill:none;stroke:#EFCF84;stroke-miterlimit:10;"
     x1="707.981"
     y1="515.721"
     x2="706.487"
     y2="656.703"
     id="line46" /><line
     style="fill:none;stroke:#EFCF84;stroke-miterlimit:10;"
     x1="727.291"
     y1="515.082"
     x2="726.301"
     y2="657.003"
     id="line48" /><line
     style="fill:none;stroke:#EFCF84;stroke-miterlimit:10;"
     x1="747.347"
     y1="515.353"
     x2="746.687"
     y2="657.311"
     id="line50" /><line
     style="fill:none;stroke:#EFCF84;stroke-miterlimit:10;"
     x1="771.83"
     y1="515.685"
     x2="770.173"
     y2="657.666"
     id="line52" /><polyline
     style="fill:#FEF8DE;stroke:#EFCF84;stroke-miterlimit:10;"
     points="823.934,658.479 825.744,557.583 863.26,558.652 "
     id="polyline54" /><path
     style="fill:#FEF8DE;stroke:#EFCF84;stroke-miterlimit:10;"
     d="M863.037,516.92c0.296,6.525-0.398,142.145-0.398,142.145"
     id="path56" /><line
     style="fill:none;stroke:#EFCF84;stroke-miterlimit:10;"
     x1="939.758"
     y1="597.553"
     x2="939.211"
     y2="660.222"
     id="line58" /><line
     style="fill:none;stroke:#EFCF84;stroke-miterlimit:10;"
     x1="982.096"
     y1="598.669"
     x2="982.922"
     y2="660.883"
     id="line60" /><line
     style="fill:none;stroke:#EFCF84;stroke-miterlimit:10;"
     x1="1002.38"
     y1="599.988"
     x2="1001.233"
     y2="661.16"
     id="line62" /><path
     style="fill:#FEF8DE;stroke:#EFCF84;stroke-miterlimit:10;"
     d="M1022.15,599.725c-0.187,0.578-1.367,61.731-1.367,61.731"
     id="path64" /><line
     style="fill:none;stroke:#EFCF84;stroke-miterlimit:10;"
     x1="1041.075"
     y1="619.291"
     x2="1040.264"
     y2="661.751"
     id="line66" /><polygon
     style="fill:#FEF8DE;stroke:#EFCF84;stroke-miterlimit:10;"
     points="1045.013,594.958 1045.839,615.559 1104.758,616.873   1104.979,636.827 1137.127,639.642 1140.21,531.525 1007.599,529.647 1006.971,592.746 "
     id="polygon68" /><polygon
     style="fill:#FEF8DE;stroke:#EFCF84;stroke-miterlimit:10;"
     points="977.507,519.219 977.452,539.917 1003.259,541.018   1004.076,519.966 "
     id="polygon70" /><polygon
     style="fill:#FEF8DE;stroke:#EFCF84;stroke-miterlimit:10;"
     points="954.964,540.89 954.314,593.642 1002.641,594.736   1003,585.67 977.166,585.404 977.881,540.851 "
     id="polygon72" /><polygon
     style="fill:#FEF8DE;stroke:#EFCF84;stroke-miterlimit:10;"
     points="983.427,546.428 982.723,580.485 1002.982,581.153   1003.589,546.214 "
     id="polygon74" /><line
     style="fill:none;stroke:#EFCF84;stroke-miterlimit:10;"
     x1="954.811"
     y1="553.353"
     x2="977.663"
     y2="554.476"
     id="line76" /><line
     style="fill:none;stroke:#EFCF84;stroke-miterlimit:10;"
     x1="955.224"
     y1="568.54"
     x2="976.807"
     y2="568.73"
     id="line78" /><polyline
     style="fill:#FEF8DE;stroke:#EFCF84;stroke-miterlimit:10;"
     points="966.459,592.991 966.847,585.106 977.166,585.404 "
     id="polyline80" /><line
     style="fill:none;stroke:#EFCF84;stroke-miterlimit:10;"
     x1="982.989"
     y1="567.617"
     x2="1003.203"
     y2="568.401"
     id="line82" /><line
     style="fill:none;stroke:#EFCF84;stroke-miterlimit:10;"
     x1="983.208"
     y1="557.001"
     x2="1002.905"
     y2="557.842"
     id="line84" /><polyline
     style="fill:#FEF8DE;stroke:#EFCF84;stroke-miterlimit:10;"
     points="1007.385,551.153 1032.777,551.316 1033.057,530.008   "
     id="polyline86" /><line
     style="fill:none;stroke:#EFCF84;stroke-miterlimit:10;"
     x1="1023.387"
     y1="530.432"
     x2="1022.634"
     y2="550.731"
     id="line88" /><polyline
     style="fill:#FEF8DE;stroke:#EFCF84;stroke-miterlimit:10;"
     points="1045.013,594.958 1044.967,579.86 1138.783,581.57 "
     id="polyline90" /><polygon
     style="fill:#FEF8DE;stroke:#EFCF84;stroke-miterlimit:10;"
     points="1196.247,521.868 1194.001,676.35 1293.302,678.032   1294.193,661.168 1602.384,666.221 1612.96,657.453 1615.335,526.979 1394.864,524.816 1395.837,497.835 1367.914,497.5   1368.337,525.28 "
     id="polygon92" /><line
     style="fill:none;stroke:#EFCF84;stroke-miterlimit:10;"
     x1="1294.654"
     y1="523.819"
     x2="1294.193"
     y2="661.168"
     id="line94" /><polyline
     style="fill:#FEF8DE;stroke:#EFCF84;stroke-miterlimit:10;"
     points="1195.308,586.482 1262.399,587.944 1262.723,581.933   1274.882,582.208 1275.429,544.451 "
     id="polyline96" /><polyline
     style="fill:#FEF8DE;stroke:#EFCF84;stroke-miterlimit:10;"
     points="1195.672,561.413 1255.244,562.971 1256.125,548.101   1269.848,548.422 1270.151,543.037 1294.586,543.942 "
     id="polyline98" /><polyline
     style="fill:#FEF8DE;stroke:#EFCF84;stroke-miterlimit:10;"
     points="1349.506,525.656 1350.236,568.257 1353.396,575.136   1344.735,579.116 1342.887,661.966 "
     id="polyline100" /><polyline
     style="fill:#FEF8DE;stroke:#EFCF84;stroke-miterlimit:10;"
     points="1411.98,524.984 1412.15,570.046 1407.97,575.052   1353.396,575.136 "
     id="polyline102" /><polyline
     style="fill:#FEF8DE;stroke:#EFCF84;stroke-miterlimit:10;"
     points="1375.246,662.497 1376.683,607.015 1389.215,607.428   1389.109,575.081 "
     id="polyline104" /><line
     style="fill:none;stroke:#EFCF84;stroke-miterlimit:10;"
     x1="1391.794"
     y1="662.768"
     x2="1392.451"
     y2="575.076"
     id="line106" /><polyline
     style="fill:#FEF8DE;stroke:#EFCF84;stroke-miterlimit:10;"
     points="1412.066,547.725 1417.63,548.398 1416.95,663.18 "
     id="polyline108" /><polyline
     style="fill:#FEF8DE;stroke:#EFCF84;stroke-miterlimit:10;"
     points="1440.818,663.572 1442.7,537.599 1458.665,537.875   1458.582,542.172 1466.358,542.979 "
     id="polyline110" /><polyline
     style="fill:#FEF8DE;stroke:#EFCF84;stroke-miterlimit:10;"
     points="1467.156,526.362 1466.589,599.439 1471.679,599.774   1470.776,664.063 "
     id="polyline112" /><line
     style="fill:none;stroke:#EFCF84;stroke-miterlimit:10;"
     x1="1417.513"
     y1="568.141"
     x2="1442.237"
     y2="568.599"
     id="line114" /><path
     style="fill:#FEF8DE;stroke:#EFCF84;stroke-miterlimit:10;"
     d="M1466.748,578.877l26.477,1.535l-0.064,27.905  c0,0-3.695,2.414,0.01,4.209l0.028,37.218c0,0-3.792,3.388-0.271,5.678l-0.117,9.002"
     id="path116" /><polyline
     style="fill:#FEF8DE;stroke:#EFCF84;stroke-miterlimit:10;"
     points="1530.88,665.048 1531.926,576 1486.135,575.725   1485.861,579.985 "
     id="polyline118" /><polygon
     style="fill:#FEF8DE;stroke:#EFCF84;stroke-miterlimit:10;"
     points="302.478,689.921 278.146,743.063 266.516,741.927   266.2,778.172 350.381,778.06 352.348,692.359 "
     id="polygon120" /><polygon
     style="fill:#FEF8DE;stroke:#EFCF84;stroke-miterlimit:10;"
     points="360.281,690.822 360.123,703.236 356.03,703.06   355.8,769.708 474.539,771.613 475.901,730.259 449.433,692.128 "
     id="polygon122" /><line
     style="fill:none;stroke:#EFCF84;stroke-miterlimit:10;"
     x1="425.359"
     y1="726.022"
     x2="475.445"
     y2="729.602"
     id="line124" /><path
     style="fill:#FEF8DE;stroke:#EFCF84;stroke-miterlimit:10;"
     d="M440.406,691.996c0.273,1.224-0.173,35.089-0.173,35.089"
     id="path126" /><path
     style="fill:#FEF8DE;stroke:#EFCF84;stroke-miterlimit:10;"
     d="M425.105,691.772c0.597,10.489-0.403,79.042-0.403,79.042"
     id="path128" /><line
     style="fill:none;stroke:#EFCF84;stroke-miterlimit:10;"
     x1="400.524"
     y1="691.412"
     x2="399.682"
     y2="770.412"
     id="line130" /><polyline
     style="fill:#FEF8DE;stroke:#EFCF84;stroke-miterlimit:10;"
     points="376.323,691.057 375.509,729.335 355.944,728.127 "
     id="polyline132" /><polygon
     style="fill:#FEF8DE;stroke:#EFCF84;stroke-miterlimit:10;"
     points="547.729,693.862 520.226,740.439 520.506,771.936   632.9,774.134 634.083,694.449 "
     id="polygon134" /><line
     style="fill:none;stroke:#EFCF84;stroke-miterlimit:10;"
     x1="562.586"
     y1="755.069"
     x2="520.354"
     y2="754.884"
     id="line136" /><line
     style="fill:none;stroke:#EFCF84;stroke-miterlimit:10;"
     x1="564.65"
     y1="693.977"
     x2="563.076"
     y2="772.768"
     id="line138" /><line
     style="fill:none;stroke:#EFCF84;stroke-miterlimit:10;"
     x1="584.788"
     y1="694.114"
     x2="584.01"
     y2="773.178"
     id="line140" /><line
     style="fill:none;stroke:#EFCF84;stroke-miterlimit:10;"
     x1="601.649"
     y1="694.228"
     x2="600.371"
     y2="773.498"
     id="line142" /><line
     style="fill:none;stroke:#EFCF84;stroke-miterlimit:10;"
     x1="616.333"
     y1="694.328"
     x2="615.187"
     y2="773.787"
     id="line144" /><path
     style="fill:#FEF8DE;stroke:#EFCF84;stroke-miterlimit:10;"
     d="M639.622,695.76l-1.456,87.061l28.703-0.23l-2.129,54.459  l118.374,1.559l0.132-54.776l18.393,0.188l0.726,18.591c0,0,7.825-0.777,3.566-9.249l111.088,2.489c0,0-2.413,8.514,3.921,8.534  c6.335,0.021,116.195,1.069,116.195,1.069L1036.094,839l-38.274-0.927l-0.738,80.766l39.123,0.536l-1.725,62.501l237.4,3.516  l2.595-144.893h3.805l-0.531-38.971l-25.386-0.461l1.07-59.084l-4.896,0.105l0.953-30.822l-65.343-0.518l-9.739,10.031  l-1.562,72.146l-55.015,0.132l1.586-74.779l-21.073-21.017l-59.342,0.115l0.182,2.076L639.622,695.76z"
     id="path146" /><line
     style="fill:none;stroke:#EFCF84;stroke-miterlimit:10;"
     x1="704.346"
     y1="782.856"
     x2="705.839"
     y2="696.373"
     id="line148" /><line
     style="fill:none;stroke:#EFCF84;stroke-miterlimit:10;"
     x1="744.124"
     y1="783.297"
     x2="746.138"
     y2="696.745"
     id="line150" /><line
     style="fill:none;stroke:#EFCF84;stroke-miterlimit:10;"
     x1="763.536"
     y1="783.017"
     x2="764.886"
     y2="696.918"
     id="line152" /><line
     style="fill:none;stroke:#EFCF84;stroke-miterlimit:10;"
     x1="666.869"
     y1="782.592"
     x2="783.247"
     y2="783.834"
     id="line154" /><line
     style="fill:none;stroke:#EFCF84;stroke-miterlimit:10;"
     x1="801.64"
     y1="784.022"
     x2="803.646"
     y2="697.277"
     id="line156" /><line
     style="fill:none;stroke:#EFCF84;stroke-miterlimit:10;"
     x1="821.563"
     y1="793.713"
     x2="823.402"
     y2="697.459"
     id="line158" /><line
     style="fill:none;stroke:#EFCF84;stroke-miterlimit:10;"
     x1="842.074"
     y1="793.212"
     x2="843.626"
     y2="697.646"
     id="line160" /><line
     style="fill:none;stroke:#EFCF84;stroke-miterlimit:10;"
     x1="861.092"
     y1="794.599"
     x2="862.437"
     y2="697.82"
     id="line162" /><line
     style="fill:none;stroke:#EFCF84;stroke-miterlimit:10;"
     x1="880.82"
     y1="795.041"
     x2="883.098"
     y2="698.011"
     id="line164" /><line
     style="fill:none;stroke:#EFCF84;stroke-miterlimit:10;"
     x1="921.46"
     y1="698.366"
     x2="919.755"
     y2="804.263"
     id="line166" /><line
     style="fill:none;stroke:#EFCF84;stroke-miterlimit:10;"
     x1="980.738"
     y1="698.914"
     x2="979.009"
     y2="804.906"
     id="line168" /><polyline
     style="fill:#FEF8DE;stroke:#EFCF84;stroke-miterlimit:10;"
     points="960.669,698.728 960.497,728.977 980.243,729.243 "
     id="polyline170" /><line
     style="fill:none;stroke:#EFCF84;stroke-miterlimit:10;"
     x1="1000.002"
     y1="699.092"
     x2="998.512"
     y2="805.089"
     id="line172" /><line
     style="fill:none;stroke:#EFCF84;stroke-miterlimit:10;"
     x1="1038.06"
     y1="699.444"
     x2="1037.136"
     y2="805.455"
     id="line174" /><line
     style="fill:none;stroke:#EFCF84;stroke-miterlimit:10;"
     x1="1117.21"
     y1="785.324"
     x2="1037.321"
     y2="784.207"
     id="line176" /><line
     style="fill:none;stroke:#EFCF84;stroke-miterlimit:10;"
     x1="1118.521"
     y1="760.646"
     x2="1037.531"
     y2="760.19"
     id="line178" /><line
     style="fill:none;stroke:#EFCF84;stroke-miterlimit:10;"
     x1="1118.349"
     y1="731.732"
     x2="1037.786"
     y2="730.839"
     id="line180" /><polyline
     style="fill:#FEF8DE;stroke:#EFCF84;stroke-miterlimit:10;"
     points="1172.848,792.928 1172.789,800.206 1252.364,801.131   "
     id="polyline182" /><line
     style="fill:none;stroke:#EFCF84;stroke-miterlimit:10;"
     x1="1174.631"
     y1="740.068"
     x2="1248.538"
     y2="742.105"
     id="line184" /><polyline
     style="fill:#FEF8DE;stroke:#EFCF84;stroke-miterlimit:10;"
     points="1173.549,760.529 1200.668,761.478 1200.91,740.792   "
     id="polyline186" /><line
     style="fill:none;stroke:#EFCF84;stroke-miterlimit:10;"
     x1="425.016"
     y1="746.023"
     x2="475.348"
     y2="747.052"
     id="line188" /><path
     style="fill:#FEF8DE;stroke:#EFCF84;stroke-miterlimit:10;"
     d="M1273.322,347.815l-84.674,163.558l129.117,4.347l0.576-7.475  l18.66,0.991l0.014-8.028l-14.228-0.076l3.277-147.313l-3.528-2.082c0,0,0.464-3.915-4.448-2.07l-18.393-0.188  c0,0-2.58-2.929-4.191,0.28L1273.322,347.815z"
     id="path190" /><polygon
     style="fill:#FEF8DE;stroke:#EFCF84;stroke-miterlimit:10;"
     points="1095.74,508.383 1098.43,447.87 1089.516,449.009   1091.641,394.513 1099.158,394.742 1097.817,348.45 1053.492,349.065 1054.547,327.186 1100.468,329.534 1100.165,323.502   1151.31,324.685 1151.953,282.427 1198.479,284.087 1223.137,261.65 1223.936,244.586 1215.333,244.666 1208.388,237.161   1212.285,233.108 1199.212,221.219 1195.315,225.272 1189.191,218.213 1189.957,197.497 1194.277,198.392 1196.254,110.474   1190.562,110.621 1190.708,93.481 1219.962,63.584 1244.189,64.382 1243.875,61.236 1368.833,63.471 1370.394,66.868   1443.159,66.756 1441.588,246.434 1335.263,244.687 1307.864,243.7 1308.158,239.863 1289.962,238.761 1290.265,244.793   1277.265,243.361 1275.063,279.753 1261.723,278.477 1144.347,507.402 "
     id="polygon192" /><polyline
     style="fill:#FEF8DE;stroke:#EFCF84;stroke-miterlimit:10;"
     points="1259.56,374.398 1277.002,383.355 1325.391,384.073   "
     id="polyline194" /><line
     style="fill:none;stroke:#EFCF84;stroke-miterlimit:10;"
     x1="1246.736"
     y1="399.168"
     x2="1325.021"
     y2="400.7"
     id="line196" /><polyline
     style="fill:#FEF8DE;stroke:#EFCF84;stroke-miterlimit:10;"
     points="1222.08,446.794 1252.826,463.474 1323.604,464.428   "
     id="polyline198" /><polyline
     style="fill:#FEF8DE;stroke:#EFCF84;stroke-miterlimit:10;"
     points="1097.198,491.066 1141.5,491.692 1149.969,496.436 "
     id="polyline200" /><line
     style="fill:none;stroke:#EFCF84;stroke-miterlimit:10;"
     x1="1097.422"
     y1="470.542"
     x2="1162.63"
     y2="471.743"
     id="line202" /><line
     style="fill:none;stroke:#EFCF84;stroke-miterlimit:10;"
     x1="1098.43"
     y1="447.87"
     x2="1174.786"
     y2="448.034"
     id="line204" /><polyline
     style="fill:#FEF8DE;stroke:#EFCF84;stroke-miterlimit:10;"
     points="1089.834,440.859 1124.774,441.602 1125.762,422.019   1187.544,423.152 "
     id="polyline206" /><line
     style="fill:none;stroke:#EFCF84;stroke-miterlimit:10;"
     x1="1091.53"
     y1="397.368"
     x2="1200.175"
     y2="398.518"
     id="line208" /><polyline
     style="fill:#FEF8DE;stroke:#EFCF84;stroke-miterlimit:10;"
     points="1151.31,324.685 1151.064,333.719 1174.895,333.877   1175.316,330.598 1234.43,331.708 "
     id="polyline210" /><line
     style="fill:none;stroke:#EFCF84;stroke-miterlimit:10;"
     x1="1151.534"
     y1="309.96"
     x2="1245.004"
     y2="311.085"
     id="line212" /><path
     style="fill:#FEF8DE;stroke:#EFCF84;stroke-miterlimit:10;"
     d="M1198.479,284.087c0,0,7.062,5.857,16.581,4.414  s31.64-0.808,31.64-0.808l8.163,4.162"
     id="path214" /><line
     style="fill:none;stroke:#EFCF84;stroke-miterlimit:10;"
     x1="1277.265"
     y1="243.361"
     x2="1223.936"
     y2="244.586"
     id="line216" /><polygon
     style="fill:#FEF8DE;stroke:#EFCF84;stroke-miterlimit:10;"
     points="1633.857,774.56 1659.684,775.034 1658.336,831.192   1808.858,831.761 1810.164,754.024 1834.738,754.458 1836.086,652.636 1854.725,654.254 1856.411,606.889 1846.152,606.049   1848.299,529.469 1662.062,527.724 1661.553,550.79 1636.8,551.982 1635.549,700.349 1639.093,700.675 1638.737,706.392   1643.24,706.791 1642.362,720.771 1638.191,720.424 1638.042,723.681 1635.178,723.043 "
     id="polygon218" /><polygon
     style="fill:#E6E4DA;stroke:#C7C5BC;stroke-miterlimit:10;"
     points="1197.499,676.409 1197.003,699.448 1231.699,701.093   1232.056,692.469 1293.873,698.077 1295.265,709.836 1374.923,709.952 1376.1,697.069 1466.154,697.653 1466.65,682.615   1489.594,681.637 1490.763,712.263 1611.795,713.115 1615.629,680.498 1611.429,674.715 1318.358,671.456 1301.627,688.092   1249.125,684.626 1248.911,677.28 "
     id="polygon220" /><polygon
     style="fill:#E6E4DA;stroke:#C7C5BC;stroke-miterlimit:10;"
     points="1130.408,721.716 1129.359,763.081 1136.178,770.535   1155.647,771.273 1163.448,764.078 1162.992,721.452 1152.316,724.406 1151.526,728.058 1143.145,728.62 1143.091,725.145 "
     id="polygon222" /><polygon
     style="fill:#E6E4DA;stroke:#C7C5BC;stroke-miterlimit:10;"
     points="923.105,666.736 923.466,689.682 1033.881,692.944   1034.664,673.831 1046.672,674.108 1047.263,668.347 "
     id="polygon224" /><polygon
     style="fill:#E6E4DA;stroke:#C7C5BC;stroke-miterlimit:10;"
     points="795.356,666.04 796.285,688.571 911.55,690.608   913.048,667.009 "
     id="polygon226" /><polygon
     style="fill:#E6E4DA;stroke:#C7C5BC;stroke-miterlimit:10;"
     points="686.789,664.112 686.404,686.776 784.518,688.885   785.438,664.963 "
     id="polygon228" /><polygon
     style="fill:#E6E4DA;stroke:#C7C5BC;stroke-miterlimit:10;"
     points="632.468,665.417 632.337,684.606 664.994,685.172   665.795,664.755 "
     id="polygon230" /><polygon
     style="fill:#E6E4DA;stroke:#C7C5BC;stroke-miterlimit:10;"
     points="549.861,663.571 551.927,684.866 621.976,684.888   623.324,664.99 598.516,664.047 597.588,666.729 570.412,667.271 570.506,663.032 "
     id="polygon232" /><polygon
     style="fill:#E6E4DA;stroke:#C7C5BC;stroke-miterlimit:10;"
     points="386.906,661.772 387.044,681.919 445.983,683.143   447.229,663.829 "
     id="polygon234" /><polygon
     style="fill:#E6E4DA;stroke:#C7C5BC;stroke-miterlimit:10;"
     points="1151.442,523.737 1147.977,622.071 1185.632,623.217   1190.341,522.444 "
     id="polygon236" /><path
     style="fill:#E6E4DA;stroke:#C7C5BC;stroke-miterlimit:10;"
     d="M1196.375,432.332l-8.364,19.681l8.835,4.008  c0,0,6.997-9.842,13.106-9.975l11.353-19.387l-10.838-5.739C1210.468,420.92,1205.414,430.236,1196.375,432.332z"
     id="path238" /><path
     style="fill:#E6E4DA;stroke:#C7C5BC;stroke-miterlimit:10;"
     d="M1273.02,296.473l-9.04,20.649l9.597,7.232  c0,0,4.024-9.82,13.48-12.519l11.471-18.641l-11.367-6.09C1287.161,287.104,1282.77,295.276,1273.02,296.473z"
     id="path240" /><path
     style="fill:#E6E4DA;stroke:#C7C5BC;stroke-miterlimit:10;"
     d="M1232.647,360.396l-9.04,20.649l9.597,7.232  c0,0,4.024-9.82,13.48-12.519l11.471-18.641l-11.367-6.09C1246.788,351.027,1242.397,359.199,1232.647,360.396z"
     id="path242" /><path
     style="fill:#E6E4DA;stroke:#C7C5BC;stroke-miterlimit:10;"
     d="M486.805,530.044l0.536,58.994l23.593-0.269l2.606-56.61  c0,0-4.691-4.838-2.965-6.454l-17.312-0.968C493.263,524.737,490.798,529.444,486.805,530.044z"
     id="path244" /><polygon
     style="fill:#E6E4DA;stroke:#C7C5BC;stroke-miterlimit:10;"
     points="484.035,612.319 514.821,612.841 539.874,658.97   539.09,689.328 514.188,734.432 486.85,732.642 474.173,698.965 477.739,697.326 472.355,685.608 459.895,691.394 459.717,655.417   464.361,645.38 467.486,646.808 473.538,634.463 470.698,632.982 "
     id="polygon246" /><path
     style="fill:#E6E4DA;stroke:#C7C5BC;stroke-miterlimit:10;"
     d="M484.152,748.216c0,0-2.407,10.205-0.802,11.014  c1.606,0.809,26.711,0.383,26.711,0.383l-0.471-11.435L484.152,748.216z"
     id="path248" /><polygon
     style="fill:#E6E4DA;stroke:#C7C5BC;stroke-miterlimit:10;"
     points="307.953,660.876 307.938,680.316 377.952,682.702   379.617,660.297 "
     id="polygon250" /><polygon
     style="fill:#E6E4DA;stroke:#C7C5BC;stroke-miterlimit:10;"
     points="259.496,632.303 263.74,684.348 284.249,690.622   296.716,681.788 297.024,661.264 277.827,619.484 "
     id="polygon252" /><polygon
     style="fill:#E6E4DA;stroke:#C7C5BC;stroke-miterlimit:10;"
     points="275.227,471.034 275.935,513.288 494.695,513.974   494.325,471.874 "
     id="polygon254" /><polygon
     style="fill:#E6E4DA;stroke:#C7C5BC;stroke-miterlimit:10;"
     points="510.627,472.097 510.338,515.117 647.193,515.486   648.851,472.762 "
     id="polygon256" /><path
     style="fill:#E6E4DA;stroke:#C7C5BC;stroke-miterlimit:10;"
     d="M1111.396,651.465l-2.664,23.748c0,0,22.288-2.527,32.665,9.983  c0,0,27.887-1.085,43.441-16.256l1.516-24.903l-12.087-0.788l-1.147-7.96l-27.077,0.256l-0.218,12.285L1111.396,651.465z"
     id="path258" /><polygon
     style="fill:#FEF8DE;stroke:#EFCF84;stroke-miterlimit:10;"
     points="386.05,776.676 382.729,927.922 611.336,930.333   611.92,779.397 "
     id="polygon260" /><polygon
     style="fill:#E6E4DA;stroke:#C7C5BC;stroke-miterlimit:10;"
     points="250.082,535.931 264.495,536.749 267.304,542.863   268.228,598.593 249.376,607.256 "
     id="polygon262" /><g
     id="g284"><g
       id="g268"><circle
         style="fill:#FFFFFF;"
         cx="1080.644"
         cy="526.362"
         r="13.204"
         id="circle264" /><path
         style="fill:#323333;"
         d="M1080.644,540.127c-7.591,0-13.765-6.175-13.765-13.765s6.175-13.765,13.765-13.765    c7.591,0,13.765,6.175,13.765,13.765S1088.235,540.127,1080.644,540.127z M1080.644,513.718c-6.972,0-12.644,5.672-12.644,12.644    s5.672,12.644,12.644,12.644s12.644-5.672,12.644-12.644S1087.616,513.718,1080.644,513.718z"
         id="path266" /></g><g
       id="g282"><g
         id="g276"><g
           id="g274"><path
             style="fill:#323333;"
             d="M1077.287,528.498c0.046,0.471,0.169,0.871,0.368,1.2c0.2,0.329,0.457,0.596,0.771,0.803      c0.314,0.206,0.676,0.356,1.088,0.449c0.411,0.093,0.85,0.14,1.319,0.14c0.548,0,1.022-0.059,1.422-0.177      s0.725-0.277,0.976-0.479c0.251-0.201,0.437-0.435,0.557-0.7s0.18-0.545,0.18-0.839c0-0.412-0.109-0.746-0.325-1.002      c-0.217-0.255-0.5-0.464-0.848-0.626s-0.748-0.292-1.199-0.39c-0.451-0.098-0.914-0.194-1.387-0.287      c-0.474-0.093-0.936-0.204-1.388-0.331c-0.451-0.128-0.851-0.299-1.199-0.515c-0.349-0.216-0.631-0.493-0.848-0.832      s-0.326-0.768-0.326-1.289c0-0.363,0.089-0.717,0.266-1.06c0.177-0.344,0.439-0.648,0.788-0.913      c0.348-0.265,0.785-0.476,1.31-0.633s1.131-0.236,1.816-0.236c0.697,0,1.305,0.083,1.824,0.25      c0.519,0.167,0.951,0.395,1.293,0.685c0.343,0.29,0.599,0.626,0.771,1.009c0.171,0.383,0.257,0.79,0.257,1.222h-1.114      c0-0.402-0.083-0.751-0.248-1.046c-0.166-0.294-0.391-0.535-0.676-0.722c-0.286-0.187-0.611-0.324-0.976-0.412      c-0.366-0.088-0.743-0.133-1.131-0.133c-0.594,0-1.093,0.071-1.499,0.214c-0.405,0.142-0.728,0.326-0.968,0.552      s-0.405,0.476-0.497,0.751c-0.091,0.275-0.109,0.55-0.051,0.825c0.069,0.344,0.228,0.618,0.479,0.825      c0.251,0.206,0.56,0.376,0.925,0.508c0.365,0.133,0.768,0.24,1.207,0.324s0.888,0.172,1.345,0.265s0.899,0.204,1.328,0.331      c0.428,0.128,0.807,0.3,1.139,0.516c0.331,0.216,0.597,0.493,0.797,0.832s0.3,0.763,0.3,1.274c0,0.982-0.394,1.743-1.182,2.283      c-0.788,0.54-1.896,0.81-3.323,0.81c-0.64,0-1.233-0.071-1.781-0.214c-0.548-0.142-1.022-0.358-1.422-0.648      c-0.4-0.29-0.711-0.648-0.933-1.075c-0.223-0.427-0.334-0.93-0.334-1.51h1.129L1077.287,528.498L1077.287,528.498z"
             id="path270" /><path
             style="fill:#323333;"
             d="M1080.626,532.505c-0.684,0-1.331-0.078-1.922-0.231c-0.611-0.159-1.152-0.407-1.609-0.737      c-0.468-0.338-0.839-0.766-1.103-1.27c-0.264-0.506-0.398-1.101-0.398-1.769v-0.561h2.202l0.048,0.507      c0.036,0.384,0.134,0.709,0.288,0.962c0.155,0.257,0.357,0.468,0.6,0.626c0.257,0.169,0.562,0.294,0.904,0.371      c0.801,0.181,1.814,0.163,2.458-0.028c0.327-0.096,0.591-0.223,0.785-0.379c0.183-0.146,0.312-0.307,0.395-0.491      c0.088-0.195,0.13-0.394,0.13-0.61c0-0.277-0.062-0.486-0.192-0.637c-0.164-0.193-0.384-0.355-0.657-0.482      c-0.307-0.142-0.67-0.261-1.082-0.35c-0.448-0.097-0.906-0.192-1.377-0.285c-0.489-0.095-0.967-0.21-1.432-0.342      c-0.499-0.141-0.952-0.336-1.342-0.58c-0.418-0.257-0.763-0.597-1.024-1.005c-0.274-0.426-0.414-0.962-0.414-1.59      c0-0.451,0.111-0.895,0.328-1.318c0.214-0.415,0.531-0.786,0.946-1.102c0.399-0.303,0.899-0.548,1.488-0.724      c1.169-0.348,2.846-0.347,3.973,0.019c0.585,0.187,1.084,0.453,1.483,0.79c0.405,0.341,0.715,0.747,0.921,1.207      c0.204,0.457,0.307,0.945,0.307,1.452v0.561h-2.235v-0.561c0-0.307-0.058-0.56-0.176-0.771      c-0.122-0.216-0.284-0.389-0.496-0.528c-0.228-0.149-0.497-0.262-0.801-0.336c-0.808-0.195-1.745-0.134-2.311,0.066      c-0.33,0.116-0.589,0.261-0.77,0.431c-0.172,0.162-0.286,0.332-0.348,0.519c-0.061,0.183-0.072,0.356-0.035,0.532      c0.044,0.224,0.135,0.383,0.286,0.507c0.203,0.165,0.458,0.306,0.76,0.415c0.339,0.123,0.716,0.223,1.121,0.3      c0.442,0.083,0.894,0.173,1.353,0.266c0.473,0.096,0.932,0.211,1.375,0.343c0.478,0.143,0.909,0.34,1.285,0.584      c0.405,0.264,0.733,0.607,0.975,1.018c0.25,0.425,0.377,0.948,0.377,1.557c0,1.173-0.48,2.096-1.425,2.744      C1083.386,532.199,1082.162,532.505,1080.626,532.505z M1076.762,529.058c0.044,0.255,0.119,0.485,0.226,0.689      c0.124,0.237,0.276,0.444,0.462,0.625c-0.1-0.119-0.191-0.247-0.274-0.383c-0.165-0.273-0.288-0.584-0.367-0.931H1076.762z       M1083.834,527.287c0.084,0.078,0.162,0.159,0.234,0.243c0.304,0.359,0.459,0.818,0.459,1.365c0,0.372-0.077,0.733-0.229,1.07      c-0.003,0.009-0.008,0.016-0.011,0.024c0.189-0.323,0.284-0.701,0.284-1.138c0-0.405-0.074-0.738-0.222-0.989      C1084.214,527.633,1084.046,527.445,1083.834,527.287z M1077.099,523.083c-0.061,0.177-0.091,0.356-0.091,0.54      c0,0.375,0.067,0.685,0.199,0.921c-0.065-0.142-0.113-0.295-0.145-0.459C1076.993,523.756,1077.005,523.418,1077.099,523.083z"
             id="path272" /></g></g><g
         id="g280"><rect
           x="1079.634"
           y="519.248"
           style="fill:#323333;"
           width="2.019"
           height="14.23"
           id="rect278" /></g></g></g><g
     id="g306"><g
       id="g290"><circle
         style="fill:#FFFFFF;"
         cx="1613.329"
         cy="596.385"
         r="13.204"
         id="circle286" /><path
         style="fill:#323333;"
         d="M1613.329,610.15c-7.591,0-13.765-6.175-13.765-13.765s6.175-13.765,13.765-13.765    c7.591,0,13.765,6.175,13.765,13.765S1620.919,610.15,1613.329,610.15z M1613.329,583.741c-6.972,0-12.644,5.672-12.644,12.644    s5.672,12.644,12.644,12.644s12.644-5.672,12.644-12.644S1620.301,583.741,1613.329,583.741z"
         id="path288" /></g><g
       id="g304"><g
         id="g298"><g
           id="g296"><path
             style="fill:#323333;"
             d="M1609.972,598.521c0.046,0.471,0.169,0.871,0.368,1.2c0.2,0.329,0.457,0.596,0.771,0.803      c0.314,0.206,0.676,0.356,1.088,0.449c0.411,0.093,0.85,0.14,1.319,0.14c0.548,0,1.022-0.059,1.422-0.177      s0.725-0.277,0.976-0.479c0.251-0.201,0.437-0.434,0.557-0.699c0.12-0.265,0.18-0.545,0.18-0.84      c0-0.412-0.109-0.746-0.325-1.001c-0.217-0.255-0.5-0.464-0.848-0.626s-0.748-0.292-1.199-0.39      c-0.451-0.098-0.914-0.194-1.387-0.287c-0.474-0.093-0.936-0.204-1.388-0.331c-0.451-0.128-0.851-0.299-1.199-0.516      c-0.349-0.216-0.631-0.493-0.848-0.832s-0.326-0.768-0.326-1.289c0-0.363,0.089-0.717,0.266-1.06      c0.177-0.344,0.439-0.648,0.788-0.913c0.348-0.265,0.785-0.476,1.31-0.633s1.13-0.236,1.816-0.236      c0.697,0,1.305,0.083,1.824,0.25c0.519,0.167,0.951,0.395,1.293,0.685c0.343,0.29,0.599,0.626,0.771,1.009      c0.171,0.383,0.257,0.79,0.257,1.222h-1.114c0-0.403-0.083-0.751-0.248-1.046c-0.166-0.294-0.391-0.535-0.676-0.721      c-0.286-0.187-0.611-0.324-0.976-0.412c-0.366-0.088-0.743-0.133-1.131-0.133c-0.594,0-1.093,0.071-1.499,0.214      c-0.405,0.142-0.728,0.326-0.968,0.552s-0.405,0.476-0.497,0.751c-0.091,0.275-0.109,0.55-0.051,0.825      c0.069,0.344,0.228,0.619,0.479,0.825s0.56,0.375,0.925,0.508s0.768,0.241,1.207,0.324c0.44,0.083,0.888,0.172,1.345,0.265      s0.899,0.204,1.328,0.331c0.428,0.128,0.807,0.3,1.139,0.515c0.331,0.216,0.597,0.493,0.797,0.832s0.3,0.763,0.3,1.274      c0,0.982-0.394,1.743-1.182,2.283c-0.788,0.54-1.896,0.81-3.323,0.81c-0.64,0-1.233-0.071-1.781-0.214      c-0.548-0.142-1.022-0.358-1.422-0.648c-0.4-0.289-0.711-0.648-0.933-1.075c-0.223-0.427-0.334-0.93-0.334-1.51h1.129      L1609.972,598.521L1609.972,598.521z"
             id="path292" /><path
             style="fill:#323333;"
             d="M1613.311,602.528c-0.684,0-1.331-0.078-1.922-0.231c-0.611-0.159-1.152-0.407-1.609-0.737      c-0.468-0.338-0.839-0.766-1.103-1.27c-0.264-0.506-0.398-1.101-0.398-1.769v-0.561h2.202l0.048,0.507      c0.036,0.384,0.134,0.709,0.288,0.962c0.156,0.257,0.357,0.468,0.6,0.626c0.257,0.169,0.562,0.293,0.903,0.371      c0.801,0.181,1.814,0.163,2.458-0.028c0.327-0.096,0.591-0.223,0.785-0.379c0.183-0.146,0.312-0.307,0.395-0.491      c0.088-0.195,0.13-0.394,0.13-0.61c0-0.277-0.062-0.486-0.192-0.637c-0.164-0.193-0.384-0.355-0.657-0.482      c-0.307-0.142-0.67-0.261-1.082-0.35c-0.448-0.097-0.906-0.192-1.377-0.285c-0.489-0.095-0.967-0.21-1.432-0.342      c-0.499-0.141-0.952-0.336-1.342-0.58c-0.418-0.257-0.763-0.597-1.024-1.005c-0.274-0.426-0.414-0.962-0.414-1.59      c0-0.451,0.111-0.895,0.328-1.317c0.214-0.415,0.531-0.786,0.946-1.102c0.399-0.303,0.899-0.548,1.488-0.724      c1.169-0.348,2.846-0.347,3.973,0.019c0.585,0.187,1.084,0.453,1.483,0.79c0.405,0.341,0.715,0.747,0.921,1.207      c0.204,0.457,0.307,0.945,0.307,1.452v0.561h-2.235v-0.561c0-0.307-0.058-0.56-0.176-0.771      c-0.121-0.216-0.284-0.389-0.496-0.528c-0.228-0.149-0.497-0.262-0.801-0.336c-0.808-0.195-1.745-0.134-2.311,0.066      c-0.33,0.116-0.589,0.261-0.77,0.432c-0.172,0.162-0.286,0.332-0.348,0.519c-0.061,0.183-0.072,0.356-0.035,0.532      c0.044,0.225,0.135,0.383,0.286,0.507c0.203,0.165,0.458,0.306,0.76,0.415c0.339,0.123,0.716,0.223,1.121,0.3      c0.442,0.083,0.894,0.173,1.353,0.266c0.473,0.096,0.932,0.211,1.375,0.343c0.478,0.143,0.909,0.34,1.285,0.584      c0.405,0.264,0.733,0.607,0.975,1.018c0.25,0.425,0.377,0.948,0.377,1.557c0,1.173-0.48,2.096-1.425,2.745      C1616.071,602.222,1614.847,602.528,1613.311,602.528z M1609.446,599.081c0.044,0.255,0.119,0.485,0.226,0.689      c0.124,0.237,0.276,0.444,0.462,0.625c-0.1-0.119-0.191-0.247-0.274-0.383c-0.165-0.273-0.288-0.584-0.367-0.931H1609.446z       M1616.519,597.31c0.084,0.078,0.162,0.159,0.234,0.243c0.304,0.359,0.459,0.818,0.459,1.365c0,0.372-0.077,0.733-0.229,1.07      c-0.003,0.009-0.008,0.016-0.011,0.024c0.189-0.323,0.284-0.701,0.284-1.138c0-0.405-0.074-0.738-0.222-0.989      C1616.899,597.656,1616.73,597.468,1616.519,597.31z M1609.784,593.106c-0.061,0.177-0.091,0.356-0.091,0.54      c0,0.375,0.067,0.685,0.199,0.921c-0.065-0.142-0.113-0.295-0.145-0.459C1609.677,593.779,1609.69,593.441,1609.784,593.106z"
             id="path294" /></g></g><g
         id="g302"><rect
           x="1612.319"
           y="589.271"
           style="fill:#323333;"
           width="2.019"
           height="14.23"
           id="rect300" /></g></g></g><g
     id="g318"><circle
       style="fill:#FFFFFF;stroke:#323333;stroke-miterlimit:10;"
       cx="268.228"
       cy="635.289"
       r="13.204"
       id="circle308" /><g
       id="g316"><path
         style="fill:#323333;"
         d="M277.72,635.06c1.006-1.04,0.813-3.047-0.428-4.052c-0.421-0.383-1.253-0.627-1.821-0.627h-1.94    c-0.326,0-0.844,0.048-1.115,0.228l-9.953,5.75h-1.283c-1.598,0-2.894,1.408-2.894,3.007c-0.034,0.568,0.261,1.412,0.644,1.932    h-1.23v1.04h5.574c0.325,0,0.843-0.178,1.115-0.358l9.953-5.88h4.413v-1.04L277.72,635.06L277.72,635.06z M275.47,635.06h-1.419    l-10.211,6.032c-0.136,0.09-0.395,0.207-0.558,0.207h-2.102c-1.006,0-1.821-0.944-1.821-1.949s0.815-1.95,1.821-1.95h1.573    l10.211-5.771c0.136-0.09,0.395,0.053,0.558,0.053h1.948c1.006,0,1.821,0.684,1.821,1.689S276.476,635.06,275.47,635.06z"
         id="path310" /><circle
         style="fill:#323333;"
         cx="268.031"
         cy="629.321"
         r="1.08"
         id="circle312" /><path
         style="fill:#323333;"
         d="M267.132,634.523v-2.984c0-0.488,0.396-0.883,0.883-0.883h0.03c0.488,0,0.883,0.396,0.883,0.883    v1.932L267.132,634.523z"
         id="path314" /></g></g><g
     id="g330"><circle
       style="fill:#FFFFFF;stroke:#323333;stroke-miterlimit:10;"
       cx="480.824"
       cy="713.115"
       r="13.204"
       id="circle320" /><g
       id="g328"><path
         style="fill:#323333;"
         d="M490.316,712.885c1.006-1.04,0.813-3.047-0.428-4.052c-0.421-0.383-1.253-0.626-1.821-0.626h-1.94    c-0.326,0-0.844,0.048-1.115,0.228l-9.953,5.75h-1.283c-1.598,0-2.894,1.408-2.894,3.007c-0.034,0.568,0.261,1.412,0.644,1.932    h-1.23v1.04h5.574c0.325,0,0.843-0.178,1.115-0.358l9.953-5.88h4.413v-1.04h-1.035L490.316,712.885L490.316,712.885z     M488.066,712.885h-1.419l-10.211,6.032c-0.136,0.09-0.395,0.207-0.558,0.207h-2.102c-1.006,0-1.821-0.944-1.821-1.949    s0.815-1.95,1.821-1.95h1.573l10.211-5.771c0.136-0.09,0.395,0.053,0.558,0.053h1.948c1.006,0,1.821,0.684,1.821,1.689    S489.072,712.885,488.066,712.885z"
         id="path322" /><circle
         style="fill:#323333;"
         cx="480.627"
         cy="707.146"
         r="1.08"
         id="circle324" /><path
         style="fill:#323333;"
         d="M479.728,712.348v-2.984c0-0.488,0.396-0.883,0.883-0.883h0.03c0.488,0,0.883,0.396,0.883,0.883    v1.932L479.728,712.348z"
         id="path326" /></g></g><g
     id="g342"><circle
       style="fill:#FFFFFF;stroke:#323333;stroke-miterlimit:10;"
       cx="1112.419"
       cy="671.576"
       r="13.204"
       id="circle332" /><g
       id="g340"><path
         style="fill:#323333;"
         d="M1121.911,671.346c1.006-1.04,0.813-3.047-0.428-4.052c-0.421-0.383-1.253-0.626-1.821-0.626h-1.94    c-0.326,0-0.844,0.048-1.115,0.228l-9.953,5.75h-1.283c-1.598,0-2.894,1.408-2.894,3.007c-0.034,0.568,0.261,1.412,0.644,1.932    h-1.23v1.04h5.574c0.325,0,0.843-0.178,1.115-0.358l9.953-5.88h4.413v-1.04h-1.035V671.346z M1119.662,671.346h-1.419    l-10.211,6.032c-0.135,0.09-0.395,0.207-0.558,0.207h-2.102c-1.006,0-1.821-0.944-1.821-1.949s0.816-1.95,1.821-1.95h1.573    l10.211-5.771c0.136-0.09,0.395,0.053,0.558,0.053h1.948c1.006,0,1.821,0.684,1.821,1.689S1120.667,671.346,1119.662,671.346z"
         id="path334" /><circle
         style="fill:#323333;"
         cx="1112.222"
         cy="665.607"
         r="1.08"
         id="circle336" /><path
         style="fill:#323333;"
         d="M1111.324,670.809v-2.984c0-0.488,0.396-0.883,0.883-0.883h0.03c0.488,0,0.883,0.396,0.883,0.883    v1.933L1111.324,670.809z"
         id="path338" /></g></g><g
     id="g362"><g
       id="g348"><circle
         style="fill:#FFFFFF;"
         cx="747.409"
         cy="384.914"
         r="13.204"
         id="circle344" /><path
         style="fill:#323333;"
         d="M747.409,398.678c-7.591,0-13.765-6.175-13.765-13.765c0-7.591,6.175-13.765,13.765-13.765    s13.765,6.175,13.765,13.765C761.175,392.504,755,398.678,747.409,398.678z M747.409,372.27c-6.972,0-12.644,5.672-12.644,12.644    c0,6.972,5.672,12.644,12.644,12.644s12.644-5.672,12.644-12.644C760.053,377.941,754.381,372.27,747.409,372.27z"
         id="path346" /></g><g
       id="g360"><g
         id="g354"><g
           id="g352"><path
             style="fill:#323333;"
             d="M751.267,388.686c-0.649,0.542-1.575,0.812-2.779,0.812h-2.308v3.985h-2.301V382.4h4.759      c1.097,0,1.972,0.286,2.624,0.857c0.653,0.572,0.979,1.456,0.979,2.654C752.241,387.22,751.916,388.145,751.267,388.686z       M749.499,384.693c-0.293-0.246-0.704-0.368-1.232-0.368h-2.087v3.263h2.087c0.528,0,0.939-0.133,1.232-0.398      c0.294-0.266,0.44-0.687,0.44-1.263C749.94,385.35,749.793,384.939,749.499,384.693z"
             id="path350" /></g></g><g
         id="g358"><path
           style="fill:#323333;"
           d="M738.578,382.216c-0.293,0-0.578-0.153-0.734-0.427c-0.228-0.404-0.085-0.918,0.319-1.147     l9.341-5.278l8.38,5.3c0.393,0.249,0.51,0.768,0.262,1.16c-0.247,0.393-0.767,0.511-1.16,0.262l-7.53-4.761l-8.465,4.783     C738.859,382.181,738.718,382.216,738.578,382.216z"
           id="path356" /></g></g></g><g
     id="g382"><g
       id="g368"><circle
         style="fill:#FFFFFF;"
         cx="1965.552"
         cy="602.508"
         r="13.204"
         id="circle364" /><path
         style="fill:#323333;"
         d="M1965.552,616.273c-7.591,0-13.765-6.175-13.765-13.765c0-7.591,6.175-13.765,13.765-13.765    c7.591,0,13.765,6.175,13.765,13.765C1979.318,610.099,1973.143,616.273,1965.552,616.273z M1965.552,589.864    c-6.972,0-12.644,5.672-12.644,12.644s5.672,12.644,12.644,12.644s12.644-5.672,12.644-12.644S1972.524,589.864,1965.552,589.864z    "
         id="path366" /></g><g
       id="g380"><g
         id="g374"><g
           id="g372"><path
             style="fill:#323333;"
             d="M1969.41,606.28c-0.649,0.542-1.575,0.812-2.779,0.812h-2.308v3.985h-2.301v-11.083h4.759      c1.097,0,1.972,0.286,2.624,0.857c0.653,0.572,0.979,1.456,0.979,2.654C1970.384,604.814,1970.059,605.739,1969.41,606.28z       M1967.642,602.287c-0.293-0.246-0.704-0.368-1.232-0.368h-2.087v3.263h2.087c0.528,0,0.939-0.133,1.232-0.398      c0.294-0.266,0.44-0.687,0.44-1.263C1968.083,602.944,1967.936,602.533,1967.642,602.287z"
             id="path370" /></g></g><g
         id="g378"><path
           style="fill:#323333;"
           d="M1956.721,599.81c-0.294,0-0.578-0.153-0.734-0.427c-0.228-0.404-0.085-0.918,0.319-1.147     l9.341-5.279l8.381,5.301c0.392,0.249,0.509,0.768,0.261,1.161c-0.249,0.392-0.766,0.511-1.161,0.261l-7.529-4.762l-8.465,4.784     C1957.002,599.775,1956.861,599.81,1956.721,599.81z"
           id="path376" /></g></g></g><g
     id="g402"><g
       id="g388"><circle
         style="fill:#FFFFFF;"
         cx="1596.942"
         cy="400.7"
         r="13.204"
         id="circle384" /><path
         style="fill:#323333;"
         d="M1596.942,414.465c-7.591,0-13.765-6.175-13.765-13.765c0-7.591,6.175-13.765,13.765-13.765    c7.591,0,13.765,6.175,13.765,13.765S1604.532,414.465,1596.942,414.465z M1596.942,388.056c-6.972,0-12.644,5.672-12.644,12.644    c0,6.972,5.672,12.644,12.644,12.644s12.644-5.672,12.644-12.644C1609.585,393.728,1603.913,388.056,1596.942,388.056z"
         id="path386" /></g><g
       id="g400"><g
         id="g394"><g
           id="g392"><path
             style="fill:#323333;"
             d="M1600.799,404.472c-0.649,0.542-1.575,0.812-2.779,0.812h-2.308v3.985h-2.301v-11.083h4.759      c1.097,0,1.972,0.286,2.624,0.857c0.653,0.572,0.979,1.456,0.979,2.654C1601.773,403.006,1601.448,403.931,1600.799,404.472z       M1599.031,400.479c-0.293-0.246-0.704-0.368-1.232-0.368h-2.087v3.263h2.087c0.528,0,0.939-0.133,1.232-0.398      c0.294-0.266,0.44-0.687,0.44-1.263C1599.472,401.136,1599.325,400.725,1599.031,400.479z"
             id="path390" /></g></g><g
         id="g398"><path
           style="fill:#323333;"
           d="M1588.11,398.002c-0.293,0-0.578-0.153-0.734-0.427c-0.228-0.404-0.085-0.918,0.319-1.147     l9.341-5.279l8.381,5.301c0.392,0.249,0.509,0.768,0.261,1.161c-0.249,0.392-0.766,0.511-1.161,0.261l-7.529-4.762l-8.465,4.784     C1588.392,397.967,1588.25,398.002,1588.11,398.002z"
           id="path396" /></g></g></g><g
     id="g422"><g
       id="g408"><circle
         style="fill:#FFFFFF;"
         cx="214.43"
         cy="1043.175"
         r="13.204"
         id="circle404" /><path
         style="fill:#323333;"
         d="M214.43,1056.94c-7.591,0-13.765-6.175-13.765-13.765c0-7.591,6.175-13.765,13.765-13.765    s13.765,6.175,13.765,13.765C228.196,1050.765,222.021,1056.94,214.43,1056.94z M214.43,1030.531    c-6.972,0-12.644,5.672-12.644,12.644s5.672,12.644,12.644,12.644s12.644-5.672,12.644-12.644    C227.074,1036.203,221.402,1030.531,214.43,1030.531z"
         id="path406" /></g><g
       id="g420"><g
         id="g414"><g
           id="g412"><path
             style="fill:#323333;"
             d="M218.288,1046.947c-0.649,0.542-1.575,0.812-2.779,0.812h-2.308v3.985H210.9v-11.083h4.759      c1.097,0,1.972,0.286,2.624,0.857c0.653,0.572,0.979,1.456,0.979,2.654C219.262,1045.481,218.937,1046.406,218.288,1046.947z       M216.52,1042.954c-0.293-0.246-0.704-0.369-1.232-0.369h-2.087v3.263h2.087c0.528,0,0.939-0.133,1.232-0.398      c0.294-0.266,0.44-0.687,0.44-1.263C216.96,1043.611,216.814,1043.2,216.52,1042.954z"
             id="path410" /></g></g><g
         id="g418"><path
           style="fill:#323333;"
           d="M205.599,1040.477c-0.294,0-0.578-0.153-0.734-0.427c-0.228-0.404-0.085-0.918,0.319-1.147     l9.341-5.279l8.381,5.301c0.392,0.249,0.509,0.768,0.261,1.161c-0.249,0.392-0.766,0.511-1.161,0.261l-7.529-4.762l-8.465,4.784     C205.88,1040.442,205.739,1040.477,205.599,1040.477z"
           id="path416" /></g></g></g><g
     id="g444"><circle
       style="fill:#FFFFFF;stroke:#323333;stroke-miterlimit:10;"
       cx="1499.242"
       cy="513.974"
       r="13.204"
       id="circle424" /><g
       id="g442"><g
         id="g440"><path
           style="fill:#323333;"
           d="M1508.355,513.777h0.381l-2.275-3.585c-0.424-0.668-1.16-1.072-1.951-1.072h-6.436     c-0.78,0-1.507,0.393-1.934,1.046l-2.361,3.611h0.381c-0.688,0-1.246,0.558-1.246,1.246v2.19c0,0.688,0.558,1.246,1.246,1.246     h0.138c-0.055,0.13-0.085,0.273-0.085,0.423c0,0.601,0.487,1.088,1.088,1.088s1.088-0.487,1.088-1.088     c0-0.15-0.03-0.293-0.085-0.423h9.906c-0.055,0.13-0.085,0.273-0.085,0.423c0,0.601,0.487,1.088,1.088,1.088     s1.088-0.487,1.088-1.088c0-0.15-0.03-0.293-0.085-0.423h0.138c0.688,0,1.246-0.558,1.246-1.246v-2.19     C1509.601,514.335,1509.044,513.777,1508.355,513.777z M1494.989,514.449h0.627c0.369,0,0.672,0.302,0.672,0.672     s-0.302,0.672-0.672,0.672h-0.627c-0.37,0-0.672-0.302-0.672-0.672S1494.619,514.449,1494.989,514.449z M1496.494,512.881     l1.471-2.173c0.293-0.433,0.783-0.693,1.306-0.693h4.018c0.531,0,1.026,0.267,1.318,0.711l1.416,2.155H1496.494z      M1506.901,514.449h0.627c0.369,0,0.672,0.302,0.672,0.672s-0.302,0.672-0.672,0.672h-0.627c-0.37,0-0.672-0.302-0.672-0.672     S1506.531,514.449,1506.901,514.449z"
           id="path426" /><g
           id="g438"><circle
             style="fill:#323333;"
             cx="1492.698"
             cy="509.112"
             r="1.134"
             id="circle428" /><path
             style="fill:#323333;"
             d="M1491.391,515.196l-0.448-0.053c-0.506-0.059-0.867-0.517-0.808-1.023l0.361-3.069      c0.059-0.506,0.517-0.867,1.023-0.808l0.448,0.053c0.506,0.059,0.867,0.517,0.808,1.023l-0.361,3.069      C1492.355,514.894,1491.897,515.255,1491.391,515.196z"
             id="path430" /><path
             style="fill:#323333;"
             d="M1489.19,514.411l-0.137-0.061c-0.155-0.069-0.225-0.251-0.156-0.406l1.575-3.548      c0.069-0.155,0.251-0.225,0.406-0.156l0.137,0.061c0.155,0.069,0.225,0.251,0.156,0.406l-1.575,3.548      C1489.527,514.409,1489.344,514.48,1489.19,514.411z"
             id="path432" /><path
             style="fill:#323333;"
             d="M1491.419,519.564h-0.348c-0.391,0-0.711-0.32-0.711-0.711V514.9c0-0.391,0.32-0.711,0.711-0.711      h0.348c0.391,0,0.711,0.32,0.711,0.711v3.953C1492.13,519.243,1491.81,519.564,1491.419,519.564z"
             id="path434" /><path
             style="fill:#323333;"
             d="M1493.838,514.103l-0.145,0.059c-0.163,0.067-0.351-0.012-0.418-0.176l-1.213-2.972      c-0.067-0.163,0.012-0.351,0.176-0.418l0.145-0.059c0.163-0.067,0.351,0.012,0.418,0.176l1.213,2.972      C1494.08,513.848,1494.001,514.036,1493.838,514.103z"
             id="path436" /></g></g></g></g><g
     id="g482"><circle
       style="fill:#FFFFFF;stroke:#323333;stroke-miterlimit:10;"
       cx="1294.654"
       cy="287.972"
       r="13.204"
       id="circle446" /><g
       id="g480"><path
         style="fill:#323333;"
         d="M1292.713,287.587h-0.77c-1.744,0-3.171-1.427-3.171-3.171v-0.77c0-1.744,1.427-3.171,3.171-3.171    h0.77c1.744,0,3.171,1.427,3.171,3.171v0.77C1295.885,286.16,1294.458,287.587,1292.713,287.587z"
         id="path448" /><circle
         style="fill:#323333;"
         cx="1288.772"
         cy="282.312"
         r="1.231"
         id="circle450" /><circle
         style="fill:#323333;"
         cx="1295.885"
         cy="282.312"
         r="1.231"
         id="circle452" /><ellipse
         style="fill:#323333;"
         cx="1291.003"
         cy="283.286"
         rx="0.361"
         ry="0.475"
         id="ellipse454" /><ellipse
         style="fill:#323333;"
         cx="1293.594"
         cy="283.286"
         rx="0.361"
         ry="0.475"
         id="ellipse456" /><ellipse
         style="fill:#323333;"
         cx="1292.328"
         cy="284.543"
         rx="0.564"
         ry="0.333"
         id="ellipse458" /><g
         id="g464"><path
           style="fill:#323333;"
           d="M1294.044,288.085c-0.1-0.653,0.739-1.164,1.318-0.972c0.526,0.175,0.79,0.738,1.06,1.177     c0.33,0.536,0.629,1.095,0.839,1.69c0.362,1.024,0.699,3.68-1.082,3.6c-0.56-0.025-0.838-0.444-0.851-0.95     c-0.017-0.696,0.071-1.368-0.109-2.053c-0.181-0.686-0.567-1.295-0.922-1.901c-0.106-0.18-0.211-0.366-0.249-0.572     C1294.047,288.098,1294.045,288.092,1294.044,288.085z"
           id="path460" /><path
           style="fill:#323333;"
           d="M1290.612,288.085c0.1-0.653-0.739-1.164-1.318-0.972c-0.526,0.175-0.79,0.738-1.06,1.177     c-0.33,0.536-0.629,1.095-0.839,1.69c-0.362,1.024-0.699,3.68,1.082,3.6c0.56-0.025,0.838-0.444,0.851-0.95     c0.017-0.696-0.071-1.368,0.109-2.053c0.181-0.686,0.567-1.295,0.922-1.901c0.106-0.18,0.211-0.366,0.249-0.572     C1290.61,288.098,1290.611,288.092,1290.612,288.085z"
           id="path462" /></g><g
         id="g470"><path
           style="fill:#323333;"
           d="M1290.87,295.47h-0.274c-0.621,0-1.129-0.508-1.129-1.129v-0.998c0-0.621,0.508-1.129,1.129-1.129     h0.274c0.621,0,1.129,0.508,1.129,1.129v0.998C1291.999,294.962,1291.491,295.47,1290.87,295.47z"
           id="path466" /><path
           style="fill:#323333;"
           d="M1294.06,295.47h-0.274c-0.621,0-1.129-0.508-1.129-1.129v-0.998c0-0.621,0.508-1.129,1.129-1.129     h0.274c0.621,0,1.129,0.508,1.129,1.129v0.998C1295.189,294.962,1294.681,295.47,1294.06,295.47z"
           id="path468" /></g><g
         id="g478"><path
           style="fill:#323333;"
           d="M1298.384,292.962l4.76,1.447c0.384-0.507,0.568-1.13,0.532-1.757l-4.76-1.447     C1298.532,291.713,1298.348,292.335,1298.384,292.962z"
           id="path472" /><path
           style="fill:#323333;"
           d="M1298.798,294.258c0.801,1.233,2.45,1.582,3.683,0.781c0.128-0.083,0.241-0.181,0.35-0.281     l-4.38-1.331C1298.521,293.714,1298.628,293.996,1298.798,294.258z"
           id="path474" /><path
           style="fill:#323333;"
           d="M1303.262,291.357c-0.801-1.233-2.45-1.582-3.683-0.781c-0.129,0.083-0.241,0.181-0.35,0.281     l4.38,1.331C1303.54,291.901,1303.432,291.618,1303.262,291.357z"
           id="path476" /></g></g></g><g
     id="g494"><circle
       style="fill:#FFFFFF;stroke:#323333;stroke-miterlimit:10;"
       cx="1205.775"
       cy="497.168"
       r="13.204"
       id="circle484" /><g
       id="g492"><g
         id="g490"><path
           style="fill:#323333;"
           d="M1206.575,500.357c-0.262-0.262-0.675-0.299-0.979-0.086l-2.42,1.608v-11.051     c0-0.422-0.342-0.765-0.765-0.765c-0.002,0-0.003,0.001-0.005,0.001s-0.003-0.001-0.005-0.001c-0.422,0-0.765,0.342-0.765,0.765     v11.051l-2.42-1.608c-0.304-0.213-0.717-0.177-0.979,0.086l-0.141,0.141c-0.299,0.299-0.299,0.783,0,1.081l3.689,2.468     c0.179,0.179,0.405,0.244,0.619,0.22c0.001,0,0.002,0,0.002,0c0.001,0,0.001,0,0.002,0c0.214,0.023,0.44-0.041,0.619-0.22     l3.689-2.468c0.299-0.299,0.299-0.783,0-1.081L1206.575,500.357z"
           id="path486" /><path
           style="fill:#323333;"
           d="M1214.981,492.757l-3.689-2.468c-0.179-0.179-0.405-0.244-0.619-0.22c-0.001,0-0.002,0-0.002,0     c-0.001,0-0.001,0-0.002,0c-0.214-0.023-0.44,0.041-0.619,0.22l-3.689,2.468c-0.299,0.299-0.299,0.783,0,1.081l0.141,0.141     c0.262,0.262,0.675,0.299,0.979,0.086l2.42-1.608v11.051c0,0.422,0.342,0.765,0.765,0.765c0.002,0,0.003-0.001,0.005-0.001     s0.003,0.001,0.005,0.001c0.422,0,0.765-0.342,0.765-0.765v-11.051l2.42,1.608c0.304,0.213,0.717,0.177,0.979-0.086l0.141-0.141     C1215.28,493.539,1215.28,493.055,1214.981,492.757z"
           id="path488" /></g></g></g><g
     id="g516"><circle
       style="fill:#FFFFFF;stroke:#323333;stroke-miterlimit:10;"
       cx="394.113"
       cy="553.004"
       r="13.204"
       id="circle496" /><g
       id="g514"><g
         id="g512"><g
           id="g502"><path
             style="fill:#323333;"
             d="M388.02,545.937c0,0.755,0.612,1.368,1.368,1.368c0.755,0,1.368-0.612,1.368-1.368      s-0.612-1.368-1.368-1.368C388.633,544.569,388.02,545.181,388.02,545.937L388.02,545.937z"
             id="path498" /><path
             style="fill:#323333;"
             d="M392.336,549.117c0,0,0.077-1.528-1.535-1.528h-2.795c-1.555,0-1.543,1.411-1.544,1.528      l0.001,4.335c0.025,0.234,0.256,0.5,0.543,0.5c0.285,0,0.495-0.258,0.52-0.492l0.485,6.904c0.036,0.351,0.284,0.482,0.589,0.482      s0.552-0.131,0.588-0.482h0.431c0.037,0.351,0.284,0.482,0.588,0.482c0.306,0,0.553-0.131,0.59-0.482l0.5-6.908      c0,0.234,0.227,0.498,0.513,0.498s0.514-0.267,0.539-0.501L392.336,549.117z"
             id="path500" /></g><g
           id="g508"><path
             style="fill:#323333;"
             d="M398.164,545.961c0,0.753,0.599,1.363,1.338,1.363s1.338-0.61,1.338-1.363      s-0.599-1.363-1.338-1.363S398.164,545.208,398.164,545.961L398.164,545.961z"
             id="path504" /><path
             style="fill:#323333;"
             d="M402.445,551.074c0.119-0.507-0.571-2.596-0.571-2.596c-0.077-0.197-0.444-0.801-1.475-0.807      l-2.015,0.006c-1-0.055-1.368,0.517-1.461,0.819c0,0-0.67,2.104-0.559,2.577c0.074,0.311,0.63,0.694,1.215,0.972l-1.228,3.746      l1.798-0.005l0.005,4.545c0.035,0.35,0.278,0.478,0.577,0.478c0.297,0,0.541-0.118,0.576-0.467h0.185      c0.035,0.35,0.277,0.474,0.576,0.474c0.299,0,0.541-0.131,0.577-0.481l0.005-4.549l1.916,0.003l-1.169-3.825      C401.916,551.696,402.379,551.355,402.445,551.074L402.445,551.074z"
             id="path506" /></g><rect
           x="394.16"
           y="545.165"
           style="fill:#323333;"
           width="0.656"
           height="15.681"
           id="rect510" /></g></g></g><g
     id="g538"><circle
       style="fill:#FFFFFF;stroke:#323333;stroke-miterlimit:10;"
       cx="1615.037"
       cy="560.817"
       r="13.204"
       id="circle518" /><g
       id="g536"><g
         id="g534"><g
           id="g524"><path
             style="fill:#323333;"
             d="M1608.945,553.749c0,0.755,0.612,1.368,1.368,1.368s1.368-0.612,1.368-1.368      c0-0.755-0.612-1.368-1.368-1.368S1608.945,552.994,1608.945,553.749L1608.945,553.749z"
             id="path520" /><path
             style="fill:#323333;"
             d="M1613.26,556.929c0,0,0.077-1.528-1.535-1.528h-2.795c-1.555,0-1.543,1.411-1.544,1.528v4.335      c0.025,0.234,0.256,0.5,0.543,0.5c0.285,0,0.495-0.258,0.521-0.492l0.485,6.904c0.036,0.351,0.284,0.482,0.589,0.482      c0.305,0,0.552-0.131,0.588-0.482h0.431c0.037,0.351,0.285,0.482,0.588,0.482c0.306,0,0.554-0.131,0.59-0.482l0.5-6.908      c0,0.234,0.227,0.498,0.513,0.498c0.286,0,0.514-0.267,0.539-0.501L1613.26,556.929z"
             id="path522" /></g><g
           id="g530"><path
             style="fill:#323333;"
             d="M1619.088,553.773c0,0.753,0.599,1.363,1.338,1.363s1.338-0.61,1.338-1.363      s-0.599-1.363-1.338-1.363C1619.687,552.41,1619.088,553.02,1619.088,553.773L1619.088,553.773z"
             id="path526" /><path
             style="fill:#323333;"
             d="M1623.369,558.886c0.119-0.507-0.571-2.596-0.571-2.596c-0.077-0.197-0.444-0.801-1.475-0.807      l-2.015,0.006c-1-0.055-1.368,0.517-1.461,0.819c0,0-0.67,2.104-0.559,2.578c0.074,0.311,0.63,0.694,1.215,0.972l-1.228,3.746      l1.798-0.005l0.005,4.545c0.035,0.35,0.278,0.478,0.577,0.478c0.297,0,0.542-0.118,0.576-0.467h0.185      c0.035,0.35,0.277,0.474,0.576,0.474c0.299,0,0.541-0.131,0.577-0.481l0.005-4.549l1.916,0.003l-1.169-3.825      C1622.841,559.508,1623.303,559.167,1623.369,558.886L1623.369,558.886z"
             id="path528" /></g><rect
           x="1615.085"
           y="552.977"
           style="fill:#323333;"
           width="0.656"
           height="15.681"
           id="rect532" /></g></g></g><g
     id="g550"><circle
       style="fill:#FFFFFF;stroke:#323333;stroke-miterlimit:10;"
       cx="1382.773"
       cy="686.239"
       r="13.204"
       id="circle540" /><g
       id="g548"><path
         style="fill:#323333;"
         d="M1392.265,686.01c1.006-1.04,0.813-3.047-0.428-4.052c-0.42-0.383-1.253-0.627-1.821-0.627h-1.939    c-0.326,0-0.844,0.048-1.115,0.228l-9.953,5.75h-1.283c-1.598,0-2.894,1.408-2.894,3.007c-0.034,0.568,0.261,1.412,0.644,1.932    h-1.23v1.04h5.574c0.325,0,0.843-0.178,1.115-0.358l9.953-5.88h4.414v-1.04L1392.265,686.01L1392.265,686.01z M1390.016,686.01    h-1.419l-10.211,6.032c-0.136,0.09-0.395,0.207-0.558,0.207h-2.102c-1.006,0-1.821-0.944-1.821-1.949s0.815-1.95,1.821-1.95h1.573    l10.211-5.771c0.136-0.09,0.395,0.053,0.558,0.053h1.948c1.006,0,1.821,0.684,1.821,1.689S1391.021,686.01,1390.016,686.01z"
         id="path542" /><circle
         style="fill:#323333;"
         cx="1382.576"
         cy="680.271"
         r="1.08"
         id="circle544" /><path
         style="fill:#323333;"
         d="M1381.678,685.473v-2.984c0-0.488,0.396-0.883,0.883-0.883h0.03c0.488,0,0.883,0.396,0.883,0.883    v1.932L1381.678,685.473z"
         id="path546" /></g></g><g
     id="g562"><circle
       style="fill:#FFFFFF;stroke:#323333;stroke-miterlimit:10;"
       cx="1169.376"
       cy="539.318"
       r="13.204"
       id="circle552" /><g
       id="g560"><path
         style="fill:#323333;"
         d="M1178.868,539.088c1.006-1.04,0.813-3.047-0.428-4.052c-0.421-0.383-1.253-0.627-1.821-0.627h-1.94    c-0.326,0-0.844,0.048-1.115,0.228l-9.953,5.75h-1.283c-1.598,0-2.894,1.408-2.894,3.007c-0.034,0.568,0.261,1.412,0.644,1.932    h-1.23v1.04h5.574c0.325,0,0.843-0.178,1.115-0.358l9.953-5.88h4.413v-1.04L1178.868,539.088L1178.868,539.088z M1176.618,539.088    h-1.419l-10.211,6.032c-0.136,0.09-0.395,0.207-0.558,0.207h-2.102c-1.006,0-1.821-0.944-1.821-1.949s0.815-1.95,1.821-1.95h1.573    l10.211-5.771c0.136-0.09,0.395,0.053,0.558,0.053h1.948c1.006,0,1.821,0.684,1.821,1.689S1177.624,539.088,1176.618,539.088z"
         id="path554" /><circle
         style="fill:#323333;"
         cx="1169.179"
         cy="533.349"
         r="1.08"
         id="circle556" /><path
         style="fill:#323333;"
         d="M1168.281,538.551v-2.984c0-0.488,0.396-0.883,0.883-0.883h0.03c0.488,0,0.883,0.396,0.883,0.883    v1.932L1168.281,538.551z"
         id="path558" /></g></g><g
     id="g572"><circle
       style="fill:#FFFFFF;stroke:#323333;stroke-miterlimit:10;"
       cx="1145.665"
       cy="707.146"
       r="13.204"
       id="circle564" /><g
       id="g570"><g
         id="g568"><path
           style="fill:#323333;"
           d="M1141.896,701.638h2.264v4.539l4.255-4.539h2.974l-4.52,4.53l4.752,6.485h-2.959l-3.394-4.808     l-1.108,1.124v3.684h-2.264L1141.896,701.638L1141.896,701.638z"
           id="path566" /></g></g></g><g
     id="g582"><circle
       style="fill:#FFFFFF;stroke:#323333;stroke-miterlimit:10;"
       cx="1156.172"
       cy="640.521"
       r="13.204"
       id="circle574" /><g
       id="g580"><g
         id="g578"><path
           style="fill:#323333;"
           d="M1152.403,635.013h2.264v4.539l4.255-4.539h2.974l-4.52,4.53l4.752,6.485h-2.959l-3.394-4.808     l-1.108,1.124v3.684h-2.264L1152.403,635.013L1152.403,635.013z"
           id="path576" /></g></g></g><g
     id="g594"><circle
       style="fill:#FFFFFF;stroke:#323333;stroke-miterlimit:10;"
       cx="1583.418"
       cy="737.46"
       r="13.204"
       id="circle584" /><g
       id="g592"><g
         id="g590"><path
           style="fill:#323333;"
           d="M1584.219,740.649c-0.262-0.262-0.675-0.299-0.979-0.086l-2.42,1.608V731.12     c0-0.422-0.342-0.765-0.765-0.765c-0.002,0-0.003,0.001-0.005,0.001s-0.003-0.001-0.005-0.001c-0.422,0-0.765,0.342-0.765,0.765     v11.051l-2.42-1.608c-0.304-0.213-0.717-0.177-0.979,0.086l-0.141,0.141c-0.299,0.299-0.299,0.783,0,1.081l3.689,2.468     c0.179,0.179,0.405,0.244,0.619,0.22c0.001,0,0.002,0,0.002,0c0.001,0,0.001,0,0.002,0c0.214,0.023,0.44-0.041,0.619-0.22     l3.689-2.468c0.299-0.299,0.299-0.783,0-1.081L1584.219,740.649z"
           id="path586" /><path
           style="fill:#323333;"
           d="M1592.625,733.049l-3.689-2.468c-0.179-0.179-0.405-0.244-0.619-0.22c-0.001,0-0.002,0-0.002,0     c-0.001,0-0.002,0-0.003,0c-0.214-0.023-0.44,0.041-0.619,0.22l-3.689,2.468c-0.299,0.299-0.299,0.783,0,1.081l0.141,0.141     c0.262,0.262,0.675,0.299,0.979,0.086l2.42-1.607v11.05c0,0.422,0.342,0.765,0.765,0.765c0.002,0,0.003-0.001,0.005-0.001     s0.003,0.001,0.005,0.001c0.422,0,0.765-0.342,0.765-0.765v-11.051l2.42,1.607c0.304,0.213,0.717,0.177,0.979-0.086l0.141-0.141     C1592.923,733.831,1592.923,733.347,1592.625,733.049z"
           id="path588" /></g></g></g><g
     id="g606"><circle
       style="fill:#FFFFFF;stroke:#323333;stroke-miterlimit:10;"
       cx="1529.303"
       cy="514.426"
       r="13.204"
       id="circle596" /><g
       id="g604"><g
         id="g602"><path
           style="fill:#323333;"
           d="M1530.104,517.615c-0.262-0.262-0.675-0.299-0.979-0.086l-2.42,1.607v-11.051     c0-0.422-0.342-0.765-0.765-0.765c-0.002,0-0.003,0.001-0.005,0.001s-0.003-0.001-0.005-0.001c-0.422,0-0.765,0.342-0.765,0.765     v11.051l-2.42-1.607c-0.304-0.213-0.717-0.177-0.979,0.086l-0.141,0.141c-0.299,0.299-0.299,0.783,0,1.081l3.689,2.468     c0.179,0.179,0.405,0.244,0.619,0.22c0.001,0,0.002,0,0.002,0s0.001,0,0.002,0c0.214,0.023,0.44-0.041,0.619-0.22l3.689-2.468     c0.299-0.299,0.299-0.783,0-1.081L1530.104,517.615z"
           id="path598" /><path
           style="fill:#323333;"
           d="M1538.51,510.014l-3.689-2.468c-0.179-0.179-0.405-0.244-0.619-0.22c-0.001,0-0.002,0-0.002,0     c-0.002,0-0.002,0-0.003,0c-0.214-0.023-0.44,0.041-0.619,0.22l-3.689,2.468c-0.299,0.299-0.299,0.783,0,1.081l0.141,0.141     c0.262,0.262,0.675,0.299,0.979,0.086l2.42-1.608v11.051c0,0.422,0.342,0.765,0.765,0.765c0.002,0,0.003-0.001,0.005-0.001     s0.003,0.001,0.005,0.001c0.422,0,0.765-0.342,0.765-0.765v-11.051l2.42,1.608c0.304,0.213,0.717,0.177,0.979-0.086l0.141-0.141     C1538.808,510.797,1538.808,510.313,1538.51,510.014z"
           id="path600" /></g></g></g><g
     id="g618"><circle
       style="fill:#FFFFFF;stroke:#323333;stroke-miterlimit:10;"
       cx="1610.55"
       cy="707.602"
       r="13.204"
       id="circle608" /><g
       id="g616"><path
         style="fill:#323333;"
         d="M1620.042,707.373c1.006-1.04,0.813-3.047-0.428-4.052c-0.421-0.383-1.253-0.627-1.821-0.627h-1.94    c-0.326,0-0.844,0.049-1.115,0.229l-9.953,5.75h-1.283c-1.598,0-2.894,1.408-2.894,3.007c-0.034,0.568,0.261,1.412,0.644,1.932    h-1.23v1.04h5.574c0.325,0,0.843-0.178,1.115-0.358l9.953-5.88h4.413v-1.04h-1.035V707.373z M1617.792,707.373h-1.419    l-10.211,6.032c-0.136,0.09-0.395,0.207-0.558,0.207h-2.102c-1.006,0-1.821-0.944-1.821-1.949s0.815-1.95,1.821-1.95h1.573    l10.211-5.771c0.136-0.09,0.395,0.053,0.558,0.053h1.948c1.006,0,1.821,0.684,1.821,1.689    C1619.613,706.689,1618.798,707.373,1617.792,707.373z"
         id="path610" /><circle
         style="fill:#323333;"
         cx="1610.353"
         cy="701.634"
         r="1.08"
         id="circle612" /><path
         style="fill:#323333;"
         d="M1609.454,706.836v-2.984c0-0.488,0.396-0.883,0.883-0.883h0.03c0.488,0,0.883,0.396,0.883,0.883    v1.932L1609.454,706.836z"
         id="path614" /></g></g><g
     id="g626"><circle
       style="fill:#FFFFFF;stroke:#323333;stroke-miterlimit:10;"
       cx="1584.141"
       cy="705.443"
       r="13.204"
       id="circle620" /><g
       id="g624"><polygon
         style="fill:#323333;"
         points="1579.619,712.975 1575.266,712.975 1575.266,711.629 1578.274,711.629 1578.274,708.44     1581.323,708.44 1581.323,704.771 1584.59,704.771 1584.59,700.589 1587.779,700.589 1587.779,697.54 1591.57,697.54     1591.57,698.886 1589.124,698.886 1589.124,701.935 1585.935,701.935 1585.935,706.117 1582.668,706.117 1582.668,709.786     1579.619,709.786   "
         id="polygon622" /></g></g><path
     style="fill:none;stroke:#58A543;stroke-width:10;stroke-linecap:round;stroke-linejoin:round;stroke-miterlimit:10;stroke-dasharray:0,16;"
     d="  M467.619,699.91c-3.374-6.37-22.613-16.231-44.868-11.025s-42.285,29.141-43.134-1.464c-0.461-16.63-0.461-16.63,3.322-25.649  c3.784-9.018,49.624-4.399,49.624-4.399s18.72,5.899,27.153-15.035c8.433-20.935,19.37-38.904,27.088-39.83  s25.662-4.849,30.709,5.523s22.36,42.429,22.36,42.429s3.995,10.237,15.209,9.837c11.215-0.4,310.214,5.359,316.251-0.075  c8.411-7.571,15.7-26.476,25.233-23.774c9.532,2.702,18.196,10.438,23.188,16.203c12.138,14.016,125.212,12.103,125.212,12.103  s8.26-1.966,8.525,3.13s0.265,15.633,10.359,14.664c10.093-0.97,37.051,2.258,39.272-4.963c2.222-7.221,0.4-28.978,5.609-31.557  s34.471-0.959,37.223-5.507s-1.464-66.612-0.291-87.167s-4.296-35.134,13.204-52.703c17.501-17.569,17.268-37.276,13.921-48.721  c-2.042-6.982-18.184-16.559-12.281-23.144c8.966-10.001,26.297-0.849,25.845,5.793c-0.451,6.642,9.858,24.365,9.551,31.868  c-0.596,14.579-19.479,37.265-8.675,52.139c13.812,19.015,3.112,54.733,3.112,54.733s-3.66,88.083,0,95.557  s25.364,22.201,82.501,12.456c57.137-9.746,139.166-18.457,157.033-13.447s33.137,2.875,32.241-25.546"
     id="path628" /><g
     id="_x31_-298-起点"><rect
     x="59.51"
       y="652.351"
       style="fill:#333333;stroke:#000000;stroke-miterlimit:10;"
       width="1"
       height="1"
       id="rect630" /></g><g
     id="_x32_-358-卡卡"><rect
       x="539.51"
       y="652.351"
       style="fill:#333333;stroke:#000000;stroke-miterlimit:10;"
       width="1"
       height="1"
       id="rect633" /></g><g
     id="_x33_-448-哭了"><rect
       x="686.948"
       y="659.722"
       transform="matrix(0.9979 -0.0642 0.0642 0.9979 -41.0938 45.6305)"
       style="fill:#333333;stroke:#000000;stroke-miterlimit:10;"
       width="1"
       height="1"
       id="rect636" /></g></svg>